<svg width="21" height="20" viewBox="0 0 21 20" fill="none" xmlns="http://www.w3.org/2000/svg">
<path d="M16.1993 0.257071C15.8923 0.353491 15.4413 0.594542 15.1919 0.787384C14.4915 1.32734 4.78193 11.2297 4.57085 11.6251C4.33099 12.0589 4.26383 12.8785 4.41734 13.4281C4.58045 14.0259 5.15611 14.6527 5.77975 14.9226C6.36501 15.1733 7.22851 15.154 7.77539 14.8744C7.95769 14.7877 9.86698 12.946 12.0257 10.7958C15.1343 7.67181 15.9307 6.82331 15.9307 6.63047C15.9307 6.33157 15.7676 6.14837 15.5085 6.14837C15.3838 6.14837 13.9446 7.51754 11.3733 10.092C8.71565 12.7628 7.35324 14.0645 7.17094 14.1127C6.00042 14.3923 4.95463 13.3992 5.27125 12.2904C5.37679 11.9432 6.07718 11.1912 10.5866 6.6594C14.5491 2.67723 15.8923 1.38519 16.2185 1.24056C17.4466 0.68132 19.0297 1.30805 19.5478 2.57116C19.7684 3.08219 19.7396 4.02711 19.4998 4.5285C19.3559 4.81776 17.4082 6.83295 12.8413 11.4129C7.72742 16.5329 6.28826 17.931 5.90448 18.1142C5.50151 18.307 5.28084 18.3456 4.46532 18.3456C3.61141 18.3456 3.44831 18.3166 2.96859 18.0756C2.37373 17.7863 1.66374 17.0825 1.36632 16.5039C1.05929 15.8965 0.924972 15.048 1.0497 14.4213C1.26078 13.2546 1.2224 13.2931 6.69122 7.77787C11.287 3.14969 11.8146 2.58081 11.7859 2.33975C11.7667 2.15656 11.6803 2.04085 11.5268 1.983C11.3061 1.90586 10.9224 2.27226 6.14434 7.06436C2.87264 10.3523 0.886594 12.4157 0.694706 12.7339C0.157418 13.6306 -0.0344706 14.9323 0.20539 15.9736C0.733084 18.307 3.20845 19.8112 5.50151 19.2134C6.74879 18.8855 6.65284 18.9723 13.5129 12.0879C20.9198 4.66349 20.584 5.06846 20.584 3.4968C20.584 2.76401 20.5456 2.55188 20.3345 2.08906C19.778 0.893446 18.7514 0.189575 17.4562 0.11244C16.9285 0.0835133 16.6119 0.122082 16.1993 0.257071Z" fill="#6BD9C0"/>
</svg>
