<svg width="119" height="37" viewBox="0 0 119 37" fill="none" xmlns="http://www.w3.org/2000/svg">
<g clip-path="url(#clip0_361_1896)">
<path d="M29.133 9.52587C28.8163 9.8434 28.8163 10.3197 29.133 10.5578C29.4497 10.8754 29.9247 10.8754 30.1622 10.5578C30.4788 10.2403 30.4788 9.76402 30.1622 9.52587C29.8455 9.20834 29.3705 9.20834 29.133 9.52587Z" fill="white"/>
<path d="M36.4163 9.04956H33.2496L32.458 10.0022C32.2996 10.1609 32.3788 10.2403 32.5371 10.3197L33.5663 10.796L36.4955 9.44647C36.733 9.36709 36.6538 9.04956 36.4163 9.04956ZM24.6204 24.6085H20.7413C19.7121 25.2436 19.3954 25.4024 18.0496 25.958C17.9704 25.958 17.8913 26.1168 17.9704 26.1962L21.4538 35.9602H23.4329L20.2663 26.99C22.3246 26.99 27.3121 26.4343 30.0038 22.0683C29.1329 23.3384 27.1538 24.6085 24.6204 24.6085ZM30.1621 10.5578C29.8454 10.8754 29.3704 10.8754 29.1329 10.5578C28.8163 10.2403 28.8163 9.764 29.1329 9.52586C29.4496 9.20833 29.9246 9.20833 30.1621 9.52586C29.5288 8.8908 28.4996 8.8908 27.9454 9.52586C27.3913 10.1609 27.3121 11.1135 27.9454 11.7486C28.5788 12.3836 29.6079 12.3836 30.1621 11.7486C30.7163 11.1135 30.7954 10.1609 30.1621 9.52586C30.3996 9.84339 30.3996 10.2403 30.1621 10.5578ZM22.4829 28.3395L25.1746 35.9602H27.1538L24.3038 27.9426C23.8288 28.1014 23.1954 28.1808 22.4829 28.3395ZM25.1746 18.8136C25.4121 18.4961 25.5704 18.1786 25.8079 17.7816C25.7288 17.7023 25.6496 17.7816 25.5704 17.861C21.5329 22.1477 17.6538 22.7034 14.6454 22.7034H10.0538C9.89542 22.7034 9.81626 22.5446 9.89542 22.3858C13.4579 17.4641 17.3371 13.5744 20.2663 11.1135L12.5871 17.5435C11.9538 18.0198 11.2413 18.3373 10.2913 18.3373H0.632914C0.395414 18.3373 0.474581 18.5755 0.474581 18.7342C1.10791 20.7982 3.00792 22.7034 6.17459 22.7034L3.87875 25.0055C3.79958 25.0848 3.79958 25.323 4.03708 25.323H12.6663C18.8413 25.323 22.7204 22.624 25.1746 18.8136Z" fill="#10A784"/>
<path d="M111.308 35.9603H118.354V14.1301H111.308V22.1477H104.658V14.1301H97.6126V35.9603H104.658V27.7045H111.308V35.9603ZM27.9459 11.7486C27.3125 11.1136 27.3125 10.161 27.9459 9.52591C28.5792 8.89085 29.6084 8.89085 30.1625 9.52591C30.7167 10.161 30.7959 11.1136 30.1625 11.7486C29.5292 12.3837 28.5 12.3837 27.9459 11.7486ZM29.925 22.0683C32.6167 17.7023 33.5667 10.796 33.5667 10.796L32.5375 10.3197C32.3792 10.2403 32.3792 10.161 32.4584 10.0022L33.25 9.04961C32.775 8.09702 31.0334 6.50937 28.5 6.50937C26.9959 6.50937 25.65 6.90628 24.4625 7.70011C24.4625 7.70011 22.7209 8.89085 20.2667 11.0342C17.3375 13.5744 13.4584 17.3848 9.89585 22.3065C9.81668 22.4653 9.89585 22.624 10.0542 22.624H14.6459C17.6542 22.624 21.5334 22.0683 25.5709 17.7817C25.65 17.7023 25.7292 17.7023 25.8084 17.7023C25.8875 17.7817 25.8875 17.8611 25.8875 17.9405C25.2542 19.5281 23.6709 22.624 20.7417 24.5292H24.6209C27.2334 24.5292 29.1334 23.3385 29.925 22.0683ZM25.9667 27.3076L28.975 35.8809H37.525C35.7834 30.5623 33.8834 25.6406 32.0625 21.1158C30.6375 24.2117 29.2917 25.7199 25.9667 27.3076ZM0 35.9603H8.62918L11.5583 26.8313H3.16667C2.1375 29.5303 1.10833 32.5468 0 35.9603ZM11.6375 16.3528L15.9917 12.7806C16.9417 10.2403 17.8917 7.70011 18.8417 5.55678C19.3167 6.66813 19.7917 7.85887 20.2667 9.04961C22.6417 7.06505 24.1459 5.87431 26.125 5.31863C24.9375 2.69901 24.0667 0.793826 23.6709 0H14.0125C13.2208 1.74642 10.1333 8.1764 6.49167 16.8291H9.97501C10.6875 16.8291 11.2417 16.7497 11.6375 16.3528ZM64.9959 33.4994L65.4709 35.8809H71.1709V14.1301H64.1251V29.2922C63.4917 30.0066 62.3042 30.8004 61.1959 30.8004C59.2167 30.8004 58.1876 29.6891 58.1876 27.6251V14.1301H51.1417V29.2922C50.5084 30.0066 49.1626 30.8004 47.9751 30.8004C46.1542 30.8004 45.1251 29.6891 45.1251 27.6251V14.1301H38.0792V28.5777C38.0792 33.817 40.375 36.4366 45.1251 36.4366C48.5292 36.4366 50.5876 35.1665 52.1709 33.4994C53.2792 35.484 55.2584 36.4366 58.1876 36.4366C61.5917 36.3572 63.4917 35.1665 64.9959 33.4994ZM87.4001 29.2128C86.7668 29.9272 85.7376 30.721 83.9959 30.721C82.0959 30.721 81.0668 28.9746 81.0668 25.5612C81.0668 21.3539 82.1751 19.29 84.4709 19.29C85.8168 19.29 86.4501 19.3693 87.4001 19.6075V29.2128ZM81.5418 36.3572H81.7793C84.9459 36.3572 87.0834 35.2459 88.2709 33.4994L88.6668 35.8809H94.446V15.0033C92.1501 14.2889 89.4584 13.6538 84.5501 13.6538C77.5043 13.6538 73.7043 17.9405 73.7043 25.8787C73.7043 33.1819 76.3959 36.3572 81.5418 36.3572Z" fill="white"/>
</g>
<defs>
<clipPath id="clip0_361_1896">
<rect width="118.354" height="36.3572" fill="white"/>
</clipPath>
</defs>
</svg>
