<svg width="162" height="37" viewBox="0 0 162 37" fill="none" xmlns="http://www.w3.org/2000/svg">
<path d="M0 25.2966C2.79345 31.7963 9.29575 36.3558 16.8737 36.3558C14.0802 29.8533 7.57791 25.2966 0 25.2966Z" fill="#10A784"/>
<path d="M16.875 36.3556C22.4417 36.3556 27.2349 33.0753 29.3976 28.3599C23.8321 28.3599 19.0391 31.6401 16.875 36.3556Z" fill="#10A784"/>
<path fill-rule="evenodd" clip-rule="evenodd" d="M16.8748 27.2663C24.4684 27.2663 30.6246 21.1638 30.6246 13.6331C30.6246 6.10532 24.4684 0 16.8748 0C9.27973 0 3.125 6.10532 3.125 13.6331C3.125 21.1638 9.27973 27.2663 16.8748 27.2663ZM16.8748 20.4507C20.6709 20.4507 23.7489 17.3986 23.7489 13.6333C23.7489 9.86805 20.6709 6.81744 16.8748 6.81744C13.0772 6.81744 9.99914 9.86805 9.99914 13.6333C9.99914 17.3986 13.0772 20.4507 16.8748 20.4507Z" fill="#10A784"/>
<path d="M105.34 13.6335H111.091V35.7376H105.34V27.1291H95.2974V35.7376H89.546V13.6335H95.2974V21.7797H105.34V13.6335ZM113.8 19.1163H120.96V35.7376H126.712V19.1163H133.785V13.6335H113.8V19.1163ZM161.673 30.9298V35.6283C160.693 36.1149 159.468 36.3572 158.038 36.3572C155.05 36.3572 153.546 35.0682 152.943 32.9919L152.847 33.1309C151.108 35.2966 148.701 36.3572 145.58 36.3572C142.591 36.3572 140.049 35.2526 137.91 32.9976C135.815 30.7427 134.745 27.9573 134.745 24.6856C134.745 21.4166 135.815 18.6752 137.91 16.4203C140.049 14.1667 142.591 13.0153 145.58 13.0153C148.562 13.0153 150.893 13.9881 152.612 15.9693V13.6349H158.364V29.2706C158.364 30.6065 158.977 31.2944 160.203 31.2944C160.776 31.293 161.266 31.1723 161.673 30.9298ZM152.847 24.6841C152.847 22.8745 152.268 21.3712 151.064 20.221C149.905 19.0284 148.433 18.4526 146.649 18.4526C144.866 18.4526 143.395 19.027 142.235 20.221C141.076 21.3712 140.497 22.8745 140.497 24.6841C140.497 26.498 141.076 28.0013 142.235 29.1955C143.395 30.3441 144.866 30.9185 146.649 30.9185C148.433 30.9185 149.905 30.3441 151.064 29.1955C152.268 28.0013 152.847 26.498 152.847 24.6841ZM42.1634 13.6335L41.9917 21.9386C41.9516 25.301 41.8286 26.9618 41.3381 28.8636C40.8889 30.6873 40.0307 31.2022 38.6848 31.2022C38.2342 31.2022 37.8265 31.161 37.499 31.0391V35.7376C37.9481 35.9801 38.6847 36.1006 39.6645 36.1006C43.7081 35.9801 45.6691 34.0881 46.6503 30.6859C47.344 28.2552 47.467 26.3916 47.59 23.5979L47.7187 19.1148H54.8604V35.7362H60.6117V13.6321H42.1634V13.6335ZM69.8632 26.1776C70.4825 29.9499 73.4991 31.1851 76.56 31.1851C78.5882 31.1851 80.7137 30.3994 82.0211 29.2238L85.5682 32.7623C83.4499 35.088 80.5006 36.3572 76.4698 36.3572C70.8272 36.3572 64.0202 33.0544 64.0202 24.6856C64.0202 16.3182 70.5755 13.0153 76.1424 13.0153C83.1838 13.0153 86.0974 16.2955 86.0974 19.9729C86.0989 25.9847 78.3922 28.7615 69.8632 26.1776ZM79.854 20.6238C79.854 18.9092 78.1434 18.1434 76.2267 18.1434C73.2988 18.1434 70.7615 19.3687 69.9905 22.5228C75.9564 24.2318 79.854 22.9568 79.854 20.6238Z" fill="white"/>
</svg>
