<svg width="194" height="37" viewBox="0 0 194 37" fill="none" xmlns="http://www.w3.org/2000/svg">
<g clip-path="url(#clip0_361_1870)">
<mask id="mask0_361_1870" style="mask-type:luminance" maskUnits="userSpaceOnUse" x="0" y="0" width="194" height="37">
<path d="M193.388 0H0V36.3799H193.388V0Z" fill="white"/>
</mask>
<g mask="url(#mask0_361_1870)">
<path d="M103.246 30.2784V6.10181H118.266V11.7172H109.509V30.2784H103.246Z" fill="white"/>
<path d="M137.163 30.2784V20.8097H127.859V30.2784H121.596V6.10181H127.859V15.1243H137.163V6.10181H143.426V30.2784H137.163Z" fill="white"/>
<path d="M179.771 30.2784V11.7172H172.456V6.10181H193.388V11.7172H186.037V30.2784H179.771Z" fill="white"/>
<path d="M163.24 30.2752V16.4998L153.27 30.2752H148.033V6.1051H154.296V19.7371L164.098 6.1051H169.506V30.2752H163.24Z" fill="white"/>
<path d="M67.2562 30.2784V15.9104L61.0031 23.5008L54.7502 15.9104V30.2784H48.4873V6.10181H54.6682L61.0031 14.4149L67.3382 6.10181H73.5189V30.2784H67.2562Z" fill="white"/>
<path d="M85.4083 21.7752H91.2287L88.3185 14.1948L85.4083 21.7752ZM94.4929 30.2749L93.1821 26.8876H83.4453L82.1343 30.2749H75.8389L85.4707 6.10156H91.2616L100.897 30.2749H94.4929Z" fill="white"/>
<path d="M-0.00683594 11.0142C-0.000771931 8.09438 1.14347 5.29595 3.17537 3.23162C5.20726 1.16729 7.96123 0.00527986 10.8343 0H35.8628V5.59869H10.8409C9.42914 5.60481 8.0769 6.17724 7.07833 7.19143C6.07978 8.20561 5.51568 9.5795 5.50879 11.0142L5.47601 20.4131C5.36178 21.6173 4.85832 22.7491 4.04425 23.632C3.23021 24.5147 2.15141 25.0985 0.976341 25.2924L-0.00683594 25.4456V11.0142Z" fill="white"/>
<path d="M-0.00585938 36.3799V30.781H25.0225C26.4346 30.7741 27.7868 30.2008 28.7854 29.1862C29.7837 28.1714 30.3478 26.7972 30.3547 25.3623V16.443C30.3616 15.149 30.8209 13.8996 31.6506 12.9179C32.4802 11.9363 33.6262 11.2863 34.8838 11.0841L35.867 10.9342V25.3623C35.8609 28.2825 34.7168 31.0812 32.6849 33.1461C30.6532 35.2109 27.8992 36.3735 25.0258 36.3799H-0.00585938Z" fill="white"/>
<path d="M21.1974 25.4655V18.2282L17.9332 22.1882L14.6723 18.2282V25.4655H10.3496V11.224H14.4429L17.9332 15.8035L21.4235 11.224H25.5168V25.4655H21.1974Z" fill="white"/>
</g>
</g>
<defs>
<clipPath id="clip0_361_1870">
<rect width="193.388" height="36.3799" fill="white"/>
</clipPath>
</defs>
</svg>
