<svg width="73" height="37" viewBox="0 0 73 37" fill="none" xmlns="http://www.w3.org/2000/svg">
<g clip-path="url(#clip0_361_1909)">
<path d="M72.6422 0.0727539H0.0732422V36.2845H72.6422V0.0727539Z" fill="#10A784" stroke="#10A784"/>
<path d="M64.1108 21.1469C64.0944 21.276 64.0456 21.6155 63.6033 21.6596H59.7186C59.2762 21.6155 59.1955 21.276 59.1789 21.1469V15.1498C59.1953 15.0204 59.2566 14.7454 59.6989 14.7013H63.605C64.0475 14.7454 64.0944 15.0204 64.1108 15.1498V21.1469ZM65.4558 12.4417H57.8338C56.6886 12.5341 55.7212 13.1149 55.5921 14.4143V21.8392C55.7212 23.1386 56.6886 23.827 57.8338 23.9193H65.4558C66.6011 23.827 67.5684 23.1386 67.6976 21.8392V14.4143C67.5684 13.1149 66.6011 12.5341 65.4558 12.4417ZM34.609 14.7013H31.2014V12.4417H41.6034V14.7013H38.1958V23.9193H34.609V14.7013ZM30.1254 14.7013V12.4417H20.7995V23.9193L30.2494 23.9169L30.2528 21.6598H24.3954L24.396 19.2015H30.1254V16.9475H24.396V14.7013L30.1254 14.7013ZM50.9292 16.4803C50.9292 16.7287 50.8674 16.9466 50.4216 16.9466H46.2663V14.6937H50.427C50.933 14.6937 50.9292 15.0249 50.9292 15.2316V16.4803ZM51.9228 19.4575C53.0417 19.3679 54.1573 18.6063 54.1573 17.3555V14.5219C54.0274 13.2285 53.057 12.5301 51.9067 12.438H42.6793L42.6796 23.9193H46.2663V19.4575H47.6938L50.0252 23.9193H54.1501L51.3738 19.4575H51.9228ZM13.3749 23.9193L15.778 16.71V23.9193H19.3648V12.4417H14.5227L12.1912 18.1807L9.85971 12.4417H5.01758V23.9193H8.60443V16.71L11.0253 23.9193H13.3749Z" fill="white"/>
</g>
<defs>
<clipPath id="clip0_361_1909">
<rect width="72.7144" height="36.3572" fill="white"/>
</clipPath>
</defs>
</svg>
