<svg width="125" height="37" viewBox="0 0 125 37" fill="none" xmlns="http://www.w3.org/2000/svg">
<g clip-path="url(#clip0_361_1912)">
<path d="M34.5461 1.1792C34.367 1.65414 33.5205 3.83229 32.6576 5.99407C31.7948 8.17223 31.0947 10.0065 31.0947 10.0556C31.0947 10.203 33.7484 10.1702 33.96 10.0228C34.0577 9.95734 35.7508 7.86107 37.737 5.37174C39.7232 2.88242 41.4326 0.786151 41.514 0.73702C42.035 0.409477 41.3838 0.327591 38.2743 0.327591H34.8554L34.5461 1.1792Z" fill="white"/>
<path d="M110.135 1.83423C108.914 4.88038 106.96 9.90815 106.96 10.0228C106.96 10.1047 107.562 10.1538 108.311 10.1538C109.581 10.1538 109.695 10.1211 110.086 9.69525C110.314 9.44959 112.023 7.33694 113.879 4.99502C115.735 2.65309 117.33 0.70421 117.396 0.687834C117.477 0.65508 117.509 0.556817 117.444 0.474931C117.396 0.393045 115.881 0.327537 114.042 0.327537H110.737L110.135 1.83423Z" fill="white"/>
<path d="M16.0354 6.50171C13.3655 6.87839 10.7444 7.73 8.85592 8.86002C7.61863 9.61337 5.82782 11.0218 5.20918 11.7424C2.71832 14.6248 1.31823 17.458 0.63447 21.0446C-0.309776 26.0396 1.20427 30.6907 4.6231 33.2456C6.96743 34.9815 10.3537 36.0297 13.5772 36.0297C16.0029 36.0297 19.2752 35.3091 21.4404 34.3101C26.2919 32.05 30.0201 27.2024 31.1922 21.6178C31.5829 19.7344 31.5829 16.5081 31.1922 15.0997C29.9712 10.5796 26.5687 7.61536 21.4893 6.63273C20.366 6.40345 17.2402 6.33794 16.0354 6.50171ZM19.1124 13.7732C20.2032 14.1662 21.0172 15.0669 21.4404 16.2789C21.8312 17.4089 21.8312 20.455 21.4242 21.9453C20.952 23.7141 19.7962 25.925 18.8356 26.9076C17.5658 28.2178 16.5238 28.7091 14.7982 28.791C13.1701 28.8729 12.4375 28.6763 11.6235 27.9557C8.67684 25.3682 10.2723 16.9176 14.1795 14.3955C15.7261 13.4129 17.5495 13.1672 19.1124 13.7732Z" fill="white"/>
<path d="M39.1536 7.40251C39.0885 7.58266 38.5024 10.6779 38.0954 13.0199C38.014 13.462 37.7698 14.8377 37.5419 16.0496C37.3303 17.2615 36.7279 20.5042 36.2232 23.2556C35.2627 28.529 34.644 31.8863 34.2533 33.8843C34.1231 34.5394 34.0254 35.1454 34.0254 35.2272C34.0254 35.3091 36.1418 35.3746 38.8931 35.3746H43.7609L43.8586 34.7523C43.9237 34.4248 44.1516 33.1965 44.3633 32.0173C44.5749 30.8382 45.0145 28.4471 45.3401 26.6948C45.6657 24.9424 45.9587 23.2883 46.0075 23.0263C46.0889 22.6169 46.1703 22.7315 46.7402 24.0908C47.0983 24.9424 47.5216 25.9578 47.7007 26.3672C48.1077 27.2843 50.2729 32.4595 50.9567 34.13L51.4777 35.3746H57.3222H63.1668L62.8575 34.7687C62.5807 34.2119 60.5945 30.0193 58.6897 25.9578C58.3153 25.1389 57.6153 23.665 57.1431 22.6824C56.671 21.6834 56.15 20.5533 55.971 20.1603L55.6616 19.4233L57.4362 17.6218C59.0805 15.935 61.3271 13.5931 65.4623 9.28588C66.3902 8.30326 67.188 7.43527 67.2042 7.35338C67.2368 7.2715 65.2181 7.20599 62.1411 7.20599H57.0292L53.3824 11.0055C51.38 13.0854 49.1333 15.4273 48.3844 16.197C47.1797 17.4581 47.0332 17.5563 47.1146 17.1141C48.0426 12.1683 48.8403 7.63179 48.8403 7.40251C48.8403 7.10773 39.2513 7.10773 39.1536 7.40251Z" fill="white"/>
<path d="M69.0595 9.04022C68.8641 10.0556 68.5548 11.6933 68.3757 12.6923C68.0012 14.6576 67.3012 18.4407 67.0733 19.7345C66.8942 20.7499 65.2825 29.5935 64.7127 32.5905C64.501 33.8024 64.3057 34.9325 64.3057 35.0798C64.3057 35.3583 64.9569 35.3746 75.5878 35.3746H86.8862L87.4234 32.394C87.7164 30.7399 87.9932 29.1513 88.0421 28.8565L88.1072 28.3325H81.644C76.0925 28.3325 75.1971 28.2997 75.2622 28.1032C75.311 27.9722 75.4413 27.399 75.5389 26.8258C75.6366 26.2526 75.7831 25.4501 75.8808 25.0079L76.0599 24.2382H82.1975H88.3514L88.7095 22.1419C88.9049 20.9955 89.1654 19.5216 89.2793 18.8829L89.491 17.6873L83.3697 17.6546L77.2321 17.6055L77.5577 15.7548L77.8833 13.9206H84.3627C87.9281 13.9206 90.8422 13.8715 90.8422 13.8223C90.8422 13.7732 91.1027 12.2993 91.412 10.5469C91.7214 8.81094 91.9818 7.337 91.9818 7.28787C91.9818 7.23874 86.9024 7.20599 80.6834 7.20599H69.4013L69.0595 9.04022Z" fill="white"/>
<path d="M95.4989 12.3156C94.229 19.1122 94.2616 18.9484 93.122 25.057C92.1614 30.1667 91.8847 31.657 91.4939 33.8188C91.3963 34.3593 91.2823 34.9325 91.2335 35.0798C91.1521 35.3583 91.4288 35.3746 95.6779 35.3583H100.204L101.181 34.1955C101.718 33.5568 103.183 31.8372 104.437 30.3796C105.69 28.922 107.986 26.2526 109.549 24.4347C111.111 22.6169 112.398 21.1429 112.43 21.1757C112.446 21.192 112.332 21.9454 112.17 22.8461C112.007 23.7469 111.453 26.6948 110.965 29.397C110.46 32.0992 110.021 34.5558 109.956 34.8342L109.858 35.3746H114.416C116.94 35.3746 119.024 35.3091 119.072 35.2272C119.121 35.1617 119.268 34.4411 119.398 33.6387C119.659 32.132 119.952 30.5106 121.205 23.7469C122.328 17.6546 124.087 8.15586 124.168 7.64817L124.25 7.20599H119.87H115.475L110.932 12.5613C108.442 15.4928 106.309 17.9821 106.227 18.0804C106.13 18.1787 105.381 19.063 104.551 20.0293C103.737 21.0119 103.053 21.7489 103.053 21.6834C103.053 21.6179 103.264 20.4223 103.525 19.0139C103.802 17.6055 104.241 15.198 104.518 13.6749C104.795 12.1355 105.169 10.1702 105.348 9.2695C105.511 8.38514 105.658 7.56628 105.658 7.43526C105.658 7.23874 104.876 7.20599 101.05 7.20599H96.4431L95.4989 12.3156Z" fill="white"/>
</g>
<defs>
<clipPath id="clip0_361_1912">
<rect width="124.543" height="36.3572" fill="white"/>
</clipPath>
</defs>
</svg>
