<svg width="177" height="37" viewBox="0 0 177 37" fill="none" xmlns="http://www.w3.org/2000/svg">
<g clip-path="url(#clip0_361_1865)">
<path d="M20.6161 28.1863C25.1925 27.6313 28.8895 24.0954 29.4734 19.7147C29.6773 18.2195 29.5193 16.6996 29.0116 15.272C28.504 13.8445 27.6602 12.5476 26.5455 11.4814C25.4307 10.4152 24.0748 9.60824 22.5823 9.1227C21.0898 8.63715 19.5006 8.48605 17.9374 8.68104C13.3573 9.23953 9.66034 12.7755 9.08008 17.1526C8.87621 18.6478 9.03419 20.1678 9.54184 21.5953C10.0495 23.0228 10.8932 24.3197 12.008 25.3859C13.1227 26.4521 14.4787 27.2591 15.9712 27.7447C17.4637 28.2302 19.0529 28.3813 20.6161 28.1863ZM21.2402 0.0942453C25.6462 0.537878 29.7594 2.41477 32.8922 5.4111C36.0249 8.40744 37.9873 12.3416 38.4511 16.5558C39.6591 28.2142 29.4989 37.932 17.306 36.7766C12.9006 36.3322 8.78823 34.455 5.65621 31.4587C2.52419 28.4625 0.562377 24.5287 0.0986951 20.3151C-1.10928 8.6566 9.05088 -1.06113 21.2402 0.0942453ZM48.7938 0.823774H77.0079C78.0809 0.823774 78.6867 1.9966 78.0407 2.8134L58.5196 27.4463H73.8146C76.6028 27.4463 78.7962 29.8723 78.2196 32.6368C77.7962 34.6648 75.8072 36.0471 73.6468 36.0471H43.0057C41.9437 36.0471 41.3415 34.8847 41.9802 34.0784L61.5159 9.42453H48.9616C46.8011 9.42453 44.8122 8.03877 44.3888 6.01425C43.8086 3.24972 46.0056 0.823774 48.7938 0.823774ZM171.238 0.921509C174.15 0.335094 176.712 2.4434 176.712 5.12415V34.8044C176.712 35.8411 175.46 36.4171 174.613 35.7748L150.275 17.3062V31.7537C150.275 34.4344 147.713 36.5427 144.801 35.9563C142.713 35.5375 141.283 33.677 141.283 31.6385V2.06292C141.283 1.02623 142.534 0.450283 143.381 1.09255L167.723 19.5611V5.23934C167.723 3.20085 169.157 1.34387 171.241 0.921509H171.238ZM107.864 0C122.765 0 134.845 8.2517 134.845 18.4302C134.845 28.6087 122.765 36.8604 107.864 36.8604C92.9635 36.8604 80.8837 28.6087 80.8837 18.4302C80.8837 8.2517 92.9635 0 107.864 0ZM107.864 8.60075C97.5691 8.60075 89.876 13.7912 89.876 18.4302C89.876 23.0692 97.5691 28.2596 107.864 28.2596C118.16 28.2596 125.853 23.0726 125.853 18.4302C125.853 13.7877 118.16 8.60075 107.864 8.60075Z" fill="white"/>
</g>
<defs>
<clipPath id="clip0_361_1865">
<rect width="177" height="37" fill="white"/>
</clipPath>
</defs>
</svg>
