<svg width="206" height="107" viewBox="0 0 206 107" fill="none" xmlns="http://www.w3.org/2000/svg">
<path d="M111.749 17.6933C111.251 17.6265 110.795 17.5149 110.325 17.5118C109.229 17.5049 108.128 17.5457 107.028 17.5774C106.28 17.5989 105.444 17.7659 104.799 17.6434C102.935 17.2906 100.974 17.587 99.0823 17.4659C97.7234 17.3792 96.3206 17.4386 94.9365 17.4301C92.4656 17.4158 89.9947 17.3999 87.5237 17.3832C85.5349 17.3697 83.5477 17.357 81.56 17.3386C79.948 17.324 78.34 17.2561 76.7254 17.2931C74.1849 17.3514 71.6677 17.2746 69.1428 17.2367C67.9729 17.2195 66.8009 17.2155 65.6281 17.2214C64.198 17.2287 62.7619 17.2779 61.3347 17.2621C58.4845 17.2295 55.6402 17.1526 52.7898 17.1175C49.8171 17.0808 46.8404 17.0737 43.8671 17.0516C42.1102 17.0391 40.3537 17.0331 38.5988 17.0057C36.2204 16.968 33.8459 16.9008 31.4664 16.868C30.3534 16.8524 29.226 16.8327 28.1144 16.9108C25.5797 17.0895 23.4326 18.2353 23.2088 19.7532C22.9923 21.2258 23.2139 22.7002 23.1071 24.1761C23.0168 25.4292 23.028 26.6902 22.417 27.9366C21.9111 28.968 21.0615 29.2663 19.3977 28.8845C17.7023 28.4957 16.029 28.0737 14.4001 27.6091C13.551 27.3666 13.0553 26.9001 13.0788 26.3165C13.1259 25.1507 13.2184 23.9831 13.3095 22.8164C13.3779 21.9357 13.4761 21.0548 13.5501 20.1738C13.5757 19.864 13.5686 19.5537 13.5489 19.2474C13.5165 18.7282 13.9008 18.1859 14.0965 17.6516C14.346 16.9722 14.4795 16.2776 14.8425 15.6151C15.6788 14.0927 17.0042 12.7827 19.4562 11.8122C22.2248 10.7152 25.2119 10.5154 28.2433 10.4867C30.9493 10.4617 33.6367 10.6263 36.3328 10.6982C37.7485 10.7358 39.171 10.7437 40.5868 10.7821C42.2432 10.8275 43.8938 10.8929 45.5494 10.9473C46.4114 10.9753 47.2713 11.0157 48.136 11.0183C49.5853 11.023 51.0429 10.9758 52.489 10.9986C53.9251 11.0211 55.3534 11.1029 56.7844 11.1584C57.6196 11.1904 58.4517 11.2423 59.2898 11.2505C60.6229 11.2637 61.9634 11.2324 63.2955 11.2505C64.2433 11.2637 65.1797 11.3469 66.1277 11.3625C66.6629 11.3707 67.2107 11.3056 67.786 11.2716C68.0419 11.3184 68.3699 11.4294 68.7128 11.4328C70.786 11.4551 72.8656 11.442 74.9402 11.4651C75.8907 11.4756 76.8298 11.557 77.7795 11.5774C78.9271 11.6016 80.0832 11.5787 81.231 11.6062C82.2207 11.6291 83.2005 11.7015 84.1866 11.7361C84.9532 11.7624 85.7229 11.7698 86.494 11.7755C87.6421 11.785 88.7945 11.7705 89.9391 11.7941C91.1052 11.8179 92.2636 11.8814 93.4288 11.9152C94.312 11.9403 95.1984 11.9498 96.0849 11.9592C98.0783 11.9798 100.074 11.9945 102.068 12.015C103.63 12.0309 105.195 12.041 106.755 12.0749C109.414 12.1319 112.067 12.2104 114.726 12.2698C115.798 12.2936 116.877 12.2794 117.949 12.3032C119.878 12.3454 121.803 12.4067 123.731 12.4548C124.618 12.4773 125.507 12.4964 126.397 12.5032C127.521 12.5124 128.65 12.4904 129.772 12.512C131.735 12.549 133.694 12.6107 135.654 12.6594C136.514 12.681 137.373 12.7068 138.235 12.7144C140.224 12.7311 142.219 12.7206 144.204 12.7547C146.072 12.7868 147.932 12.8657 149.798 12.9159C150.589 12.9367 151.382 12.9378 152.175 12.9463C155.033 12.9768 157.895 12.9956 160.752 13.0409C163.461 13.0843 166.164 13.1606 168.872 13.2122C170.063 13.2346 171.261 13.2207 172.454 13.2414C174.318 13.2737 176.176 13.3267 178.038 13.3615C179.21 13.3835 180.387 13.3814 181.559 13.4025C183.609 13.4385 185.656 13.4868 187.708 13.5235C188.669 13.5408 189.631 13.5425 190.593 13.5507C192.559 13.5688 194.544 13.5181 196.486 13.6224C199.047 13.7602 201.099 14.4403 202.401 15.7185C203.058 16.363 203.756 17.0026 204.244 17.6955C204.693 18.3327 205.06 19.0238 205.158 19.7168C205.362 21.1556 205.464 22.6085 205.417 24.0613C205.377 25.3123 205.07 26.5708 204.888 27.8261C204.779 28.5731 204.71 29.3209 204.564 30.066C204.44 30.6915 204.289 31.3202 204.04 31.9377C203.866 32.3671 203.191 32.5441 202.527 32.3502C201.387 32.0182 200.284 31.6464 199.177 31.2797C198.678 31.1144 198.2 30.9274 197.723 30.742C197.012 30.466 196.676 30.048 196.712 29.5574C196.788 28.5327 196.933 27.5063 197.064 26.4816C197.125 26.0066 197.223 25.5319 197.297 25.0569C197.399 24.3969 197.467 23.7355 197.597 23.0762C197.788 22.1091 198.031 21.143 198.235 20.1751C198.486 18.9769 198.016 18.7258 195.938 18.5325C194.124 18.3636 192.253 18.3325 190.401 18.2661C188.956 18.2147 187.496 18.2285 186.055 18.1639C185.02 18.1167 184.007 17.9867 182.984 17.894C182.87 17.8836 182.757 17.8683 182.64 17.8679C180.248 17.8693 177.857 17.8732 175.466 17.8737C173.525 17.8745 171.583 17.8771 169.643 17.868C166.876 17.855 164.112 17.8287 161.345 17.8148C159.405 17.805 157.462 17.8133 155.52 17.8028C152.822 17.7881 150.127 17.7586 147.428 17.7447C145.44 17.7345 143.45 17.748 141.461 17.7386C138.672 17.7252 135.884 17.6946 133.095 17.6805C130.31 17.6669 127.521 17.678 124.738 17.6528C122.608 17.6338 120.487 17.5572 118.356 17.5424C116.908 17.532 115.451 17.593 114 17.6023C113.491 17.6055 112.991 17.5226 112.483 17.5291C112.223 17.5323 111.954 17.6453 111.752 17.6939L111.749 17.6933Z" fill="#10A784"/>
<path d="M1.55324 88.2989C1.35361 87.7888 1.19546 87.3781 1.03305 86.9678C0.992844 86.8658 0.904505 86.7674 0.896885 86.6635C0.785074 84.9314 0.610818 83.2014 0.609629 81.4644C0.60923 80.6946 0.963466 79.9103 1.1546 79.1332C1.29081 78.5795 1.40273 78.0241 1.56322 77.4722C1.84621 76.4948 2.14059 75.5175 2.46497 74.5424C2.65552 73.9701 2.85588 73.3955 3.14805 72.8342C3.63165 71.9061 5.188 71.703 6.5146 71.9155C7.38898 72.0562 8.11308 72.3713 8.64549 72.8103C8.76661 72.9099 9.03337 72.948 9.2597 73.0235C9.24323 73.1288 9.15911 73.292 9.2033 73.437C9.35292 73.9191 9.66803 74.3865 9.69848 74.8732C9.74379 75.6093 9.60627 76.3555 9.53965 77.0984C9.53036 77.2049 9.46425 77.3124 9.44787 77.4194C9.24327 78.7576 9.00167 80.0955 8.85247 81.4328C8.72345 82.5838 8.53588 83.7546 9.56407 84.7816C10.1009 85.319 10.8143 85.74 11.9116 85.9229C12.6556 86.0468 13.3343 86.2928 14.089 86.3811C15.236 86.5154 16.4224 86.5707 17.5983 86.6413C18.6016 86.7025 19.6123 86.7446 20.6214 86.7835C21.3369 86.8112 22.0584 86.8207 22.7774 86.8344C23.7312 86.8529 24.6873 86.8615 25.6415 86.8865C26.8065 86.917 27.9668 86.9624 29.1306 86.9978C29.8956 87.021 30.661 87.0499 31.4292 87.0566C32.5518 87.0667 33.6794 87.0415 34.7999 87.0648C35.8022 87.0854 36.7959 87.1521 37.7952 87.1948C38.0276 87.2047 38.2635 87.2022 38.4984 87.207C40.5458 87.2504 42.5921 87.298 44.6393 87.3382C46.4573 87.374 48.2788 87.3958 50.0972 87.4381C51.0213 87.4592 51.9377 87.5175 52.8596 87.5477C53.6489 87.5735 54.4418 87.5877 55.2346 87.6003C57.1334 87.6321 59.0356 87.6491 60.9324 87.6933C62.56 87.7314 64.1798 87.8059 65.8049 87.8491C66.9728 87.8802 68.1486 87.8766 69.3164 87.9069C71.081 87.9524 72.84 88.0236 74.6043 88.065C76.4996 88.1093 78.4017 88.1239 80.2984 88.1673C81.9743 88.2058 83.6448 88.2707 85.3185 88.3192C86.2302 88.3459 87.1429 88.3661 88.0554 88.3821C89.8575 88.414 91.6604 88.4344 93.4601 88.473C95.583 88.5185 97.7026 88.5805 99.8258 88.63C101.994 88.6801 104.164 88.722 106.331 88.7714C108.59 88.8228 110.851 88.8691 113.107 88.936C115.473 89.0062 117.834 89.1069 120.2 89.178C121.25 89.2096 122.311 89.1859 123.363 89.2108C125.153 89.2532 126.939 89.3186 128.729 89.3618C129.099 89.3709 129.48 89.3214 129.832 89.2321C130.095 89.3005 130.346 89.4161 130.624 89.429C131.572 89.4723 132.53 89.4792 133.484 89.5018C134.731 89.5322 135.978 89.5661 137.225 89.5957C138.834 89.6341 140.444 89.6668 142.054 89.7093C143.912 89.7582 145.769 89.8186 147.627 89.8676C148.559 89.8923 149.491 89.9072 150.425 89.9212C152.178 89.9478 153.934 89.958 155.684 89.997C157.778 90.0434 159.866 90.1187 161.959 90.1724C164.079 90.2263 166.2 90.2678 168.32 90.3184C169.743 90.3523 171.165 90.3822 172.583 90.4312C174.203 90.4869 175.815 90.5773 177.438 90.6223C178.603 90.6544 179.781 90.6237 180.949 90.6475C181.831 90.6654 182.702 90.7434 183.585 90.7629C184.957 90.7933 186.335 90.8055 187.713 90.8079C189.162 90.8101 189.997 90.2917 190.529 89.5735C190.934 89.0268 191.124 88.4707 191.063 87.8749C191.012 87.3797 191.222 86.8641 191.329 86.3586C191.465 85.7267 191.638 85.095 191.754 84.4626C191.941 83.4493 192.078 82.434 192.268 81.4205C192.389 80.7747 192.493 80.1235 192.754 79.489C192.867 79.214 193.332 78.9663 193.677 78.724C193.886 78.5787 194.172 78.4688 194.384 78.3633C194.878 78.3748 195.38 78.3777 195.877 78.4004C197.145 78.4582 198.337 79.0425 198.451 79.7575C198.584 80.5986 198.629 81.4506 198.618 82.3018C198.607 83.2069 198.522 84.1155 198.404 85.022C198.242 86.2671 198.02 87.5125 197.822 88.7582C197.722 89.3814 197.613 90.0044 197.508 90.6272C197.309 91.8182 196.912 92.9883 195.762 94.0457C195.34 94.4344 194.819 94.8168 194.209 95.1066C193.744 95.3274 193.084 95.4358 192.488 95.5274C191.459 95.6846 190.41 95.865 189.371 95.9004C187.862 95.9515 186.354 95.8826 184.846 95.8635C183.727 95.849 182.61 95.8312 181.493 95.8167C179.835 95.795 178.175 95.7857 176.519 95.7493C175.22 95.721 173.928 95.654 172.63 95.6135C171.304 95.5722 169.976 95.5432 168.648 95.5061C167.573 95.476 166.499 95.436 165.424 95.4083C164.49 95.3846 163.556 95.3625 162.618 95.356C161.47 95.3482 160.314 95.3841 159.171 95.3523C157.627 95.31 156.094 95.2141 154.554 95.1545C153.761 95.1239 152.96 95.1192 152.163 95.1069C150.176 95.0754 148.187 95.0562 146.202 95.0123C144.761 94.9802 143.328 94.9126 141.889 94.8674C141.399 94.8524 140.902 94.8623 140.411 94.853C140.091 94.8476 139.752 94.8611 139.46 94.8075C138.741 94.6747 138.163 94.7644 137.609 95.3281C137.578 94.5813 136.839 94.7327 136.18 94.731C135.131 94.7279 134.088 94.6755 133.041 94.6462C132.036 94.6177 131.03 94.5933 130.026 94.5647C128.772 94.5288 127.52 94.4848 126.265 94.4572C125.337 94.4363 124.405 94.4459 123.476 94.4218C121.584 94.3741 119.694 94.3131 117.803 94.2572C117.06 94.2351 116.32 94.2015 115.576 94.1926C114.478 94.1793 113.375 94.1933 112.276 94.1776C111.365 94.1647 110.46 94.1205 109.55 94.0994C108.197 94.0686 106.841 94.0552 105.489 94.0178C103.859 93.9733 102.232 93.9099 100.604 93.8571C99.7404 93.8283 98.8767 93.7947 98.0098 93.7792C97.0062 93.7611 95.9972 93.7712 94.9947 93.7482C93.2931 93.7087 91.5946 93.6512 89.894 93.6051C88.7731 93.5745 87.6499 93.5546 86.529 93.5239C84.7856 93.4763 83.0448 93.4229 81.3014 93.3745C80.4824 93.3521 79.6622 93.333 78.8409 93.3204C77.6923 93.3029 76.5393 93.3067 75.3928 93.2768C72.9773 93.2128 70.5662 93.1273 68.1519 93.0607C67.1008 93.0316 66.0418 93.0381 64.9892 93.0099C63.2488 92.9638 61.5151 92.8871 59.7727 92.8549C58.5171 92.8315 57.2498 92.8747 55.9919 92.8604C55.1922 92.8515 54.3994 92.7916 53.6037 92.7531C52.7323 92.711 51.865 92.6416 50.9885 92.6316C49.6338 92.6156 48.2721 92.6498 46.9165 92.6412C46.3887 92.6374 45.8698 92.5695 45.3435 92.542C44.3536 92.4905 43.3623 92.44 42.369 92.405C41.6081 92.3775 40.8403 92.379 40.0769 92.3589C37.9805 92.3045 35.8849 92.2403 33.7861 92.1942C33.2963 92.1833 32.7902 92.2573 32.3017 92.2438C30.6338 92.1983 28.9701 92.1272 27.3031 92.0727C26.3057 92.0396 25.3036 92.0231 24.3051 91.9934C22.5216 91.9416 20.7379 91.885 18.9544 91.8325C18.2066 91.8107 17.4587 91.7873 16.7085 91.7747C14.7968 91.742 12.8771 91.7407 10.9722 91.679C9.23966 91.6226 7.48902 91.5722 5.92777 91.1208C4.46632 90.6976 3.33576 90.0763 2.57904 89.2379C2.32935 88.9616 2.11456 88.6742 1.84542 88.4055C1.76826 88.3277 1.55329 88.2997 1.55476 88.3004L1.55324 88.2989Z" fill="#10A784"/>
</svg>
