<svg width="120" height="37" viewBox="0 0 120 37" fill="none" xmlns="http://www.w3.org/2000/svg">
<g clip-path="url(#clip0_361_1885)">
<path d="M29.206 30.9244L25.7629 25.1907L22.3911 30.9244H18.3541L23.5405 22.2883L18.2549 14.2705H22.4719L25.858 19.6236L29.0874 14.2705H33.1241L27.9239 22.5499L33.2666 30.9244H29.206Z" fill="white"/>
<path d="M46.3875 25.2621C46.3875 28.9259 43.633 31.2098 40.0235 31.2098C36.8416 31.2098 34.1625 29.4494 33.9014 25.619H37.3445C37.5819 27.2843 38.9117 27.9981 40.3604 27.9981C42.165 27.9981 42.9444 26.7847 42.9444 25.2145C42.9444 23.5728 41.7334 22.5499 40.0473 22.5499C38.6464 22.5499 37.7203 23.216 37.2929 23.9298H34.0016L35.1394 14.2705H45.9644L45.6039 17.5062H37.8606L37.5532 20.7027C37.5532 20.7027 38.3668 19.7425 40.831 19.7425C43.7993 19.7425 46.3875 21.741 46.3875 25.2621Z" fill="white"/>
<path d="M34.3096 12.1964C32.4757 5.03307 26.6557 0.000341415 14.5799 0.000341415H0L1.97921 13.4086C3.46807 25.5075 8.08667 29.4 16.2599 30.833C16.2984 30.839 16.5562 30.8758 16.5601 30.5722C16.5614 30.4631 16.492 30.3688 16.3976 30.3288C10.873 27.998 10.2425 20.3559 9.0627 12.6864L8.14925 6.57487H16.4725C24.1463 6.57487 30.0701 6.45345 33.8218 12.3876C33.878 12.4715 33.9645 12.533 34.0673 12.533C34.2125 12.533 34.3198 12.415 34.3198 12.2695C34.3198 12.2441 34.3162 12.2197 34.3096 12.1964Z" fill="#10A784"/>
<path d="M49.2754 22.5848C49.2754 17.4113 53.0243 13.6788 58.2352 13.6788C61.7248 13.6788 64.8843 15.7104 65.8039 18.498L63.8469 19.1595C63.1395 17.0805 60.8053 15.5687 58.2352 15.5687C54.2504 15.5687 51.421 18.4744 51.421 22.5848C51.421 26.648 54.274 29.6245 58.2352 29.6245C61.8191 29.6245 64.6485 27.0496 64.7428 23.6951L56.4904 23.6715V21.758H66.912C67.2657 27.4276 63.6346 31.5144 58.2352 31.5144C53.0243 31.5144 49.2754 27.7583 49.2754 22.5848Z" fill="white"/>
<path d="M69.4922 18.9942H71.4021V20.6005H71.6143C72.1567 19.5139 73.4769 18.7579 74.7973 18.7579C75.3397 18.7579 75.9056 18.8761 76.2593 19.065V20.884C75.6462 20.6241 74.9389 20.5296 74.4909 20.5296C72.6989 20.5296 71.4493 22.1359 71.4493 24.4983V30.9238H69.4922V18.9942Z" fill="white"/>
<path d="M88.1829 24.9473C88.1829 22.2541 86.3201 20.2934 83.7501 20.2934C81.1565 20.2934 79.3173 22.2541 79.3173 24.9473C79.3173 27.6639 81.1565 29.6246 83.7501 29.6246C86.3201 29.6246 88.1829 27.6639 88.1829 24.9473ZM77.3604 24.9473C77.3604 21.1912 80.0011 18.5218 83.7501 18.5218C87.4755 18.5218 90.1399 21.1912 90.1399 24.9473C90.1399 28.727 87.4755 31.3964 83.7501 31.3964C80.0011 31.3964 77.3604 28.727 77.3604 24.9473Z" fill="white"/>
<path d="M103.301 30.9239H101.344V29.2939H101.109C100.283 30.5931 98.9393 31.3491 97.3831 31.3491C94.3415 31.3491 92.4316 29.1522 92.4316 26.1047V18.9942H94.3886V26.1047C94.3886 28.1363 95.5676 29.5774 97.6189 29.5774C99.623 29.5774 101.344 28.0418 101.344 25.9394V18.9942H103.301V30.9239Z" fill="white"/>
<path d="M108.329 24.9472C108.329 27.5693 110.191 29.6245 112.761 29.6245C115.308 29.6245 117.171 27.5693 117.171 24.9472C117.171 22.2778 115.308 20.2934 112.761 20.2934C110.191 20.2934 108.329 22.325 108.329 24.9472ZM119.128 24.9472C119.128 28.6797 116.463 31.3963 112.997 31.3963C111.087 31.3963 109.484 30.5695 108.612 29.1522H108.399V36.3572H106.442V18.9942H108.399V20.8132H108.612C109.484 19.3722 111.017 18.5217 112.974 18.5217C116.44 18.5217 119.128 21.2147 119.128 24.9472Z" fill="white"/>
</g>
<defs>
<clipPath id="clip0_361_1885">
<rect width="119.128" height="36.3572" fill="white"/>
</clipPath>
</defs>
</svg>
