<svg width="285" height="76" viewBox="0 0 285 76" fill="none" xmlns="http://www.w3.org/2000/svg">
                            <path d="M134.512 38.688C133.216 39.088 131.544 39.288 129.496 39.288C127.048 39.288 125.28 38.6 124.192 37.224C123.12 35.864 122.592 33.656 122.608 30.6C122.592 27.448 123.064 25.248 124.024 24C125 22.768 126.712 22.152 129.16 22.152C131 22.152 132.624 22.336 134.032 22.704L133.912 24.96C132.504 24.848 131.024 24.792 129.472 24.792C128.064 24.792 127.104 25.176 126.592 25.944C126.032 26.776 125.76 28.408 125.776 30.84C125.76 33.064 126 34.584 126.496 35.4C126.976 36.216 127.88 36.632 129.208 36.648C130.968 36.664 132.584 36.584 134.056 36.408L134.512 38.688ZM147.166 38.52C145.998 39.032 144.366 39.288 142.27 39.288C140.174 39.288 138.638 38.744 137.662 37.656C136.718 36.616 136.238 35 136.222 32.808C136.19 30.552 136.606 28.992 137.47 28.128C138.318 27.312 139.838 26.904 142.03 26.904C143.982 26.904 145.374 27.264 146.206 27.984C146.91 28.592 147.27 29.536 147.286 30.816C147.286 31.968 146.942 32.808 146.254 33.336C145.614 33.832 144.542 34.128 143.038 34.224L139.366 34.536C139.51 35.464 139.846 36.112 140.374 36.48C140.79 36.768 141.446 36.912 142.342 36.912C143.654 36.912 145.11 36.816 146.71 36.624L147.166 38.52ZM142.582 32.28C143.238 32.232 143.702 32.088 143.974 31.848C144.262 31.592 144.398 31.16 144.382 30.552C144.366 29.944 144.174 29.552 143.806 29.376C143.55 29.264 142.95 29.208 142.006 29.208C140.95 29.224 140.238 29.448 139.87 29.88C139.486 30.328 139.278 31.224 139.246 32.568L142.582 32.28ZM160.507 39H157.603V29.4H155.779C154.963 29.4 154.499 29.872 154.387 30.816C154.179 32.72 153.851 34.592 153.403 36.432C152.955 38.384 151.523 39.28 149.107 39.12L148.579 36.816C149.283 36.688 149.699 36.592 149.827 36.528C150.195 36.352 150.467 35.976 150.643 35.4C151.027 34.056 151.347 32.28 151.603 30.072C151.827 28.184 152.835 27.24 154.627 27.24H160.507V39ZM166.509 31.872C167.373 31.6 168.141 31.464 168.813 31.464C170.669 31.48 171.949 31.768 172.653 32.328C173.373 32.904 173.733 33.936 173.733 35.424C173.733 36.88 173.389 37.872 172.701 38.4C172.061 38.912 170.917 39.168 169.269 39.168C167.653 39.168 166.477 39.016 165.741 38.712C164.445 38.2 163.765 37.168 163.701 35.616L163.725 27.24H166.533L166.509 31.872ZM166.509 35.64C166.509 36.168 166.693 36.528 167.061 36.72C167.365 36.88 167.877 36.96 168.597 36.96C169.429 36.96 170.005 36.84 170.325 36.6C170.661 36.344 170.821 35.856 170.805 35.136C170.805 34.48 170.677 34.04 170.421 33.816C170.149 33.592 169.605 33.48 168.789 33.48C168.005 33.48 167.245 33.584 166.509 33.792V35.64ZM187.284 39H184.404L181.428 33.96H181.044L178.068 39H174.9L178.62 32.928L175.212 27.24H178.068L180.708 31.848H181.212L183.948 27.24H187.02L183.564 32.952L187.284 39ZM194.081 26.904C196.177 26.904 197.689 27.392 198.617 28.368C199.577 29.36 200.057 30.984 200.057 33.24C200.057 35.448 199.633 37.016 198.785 37.944C197.921 38.856 196.473 39.312 194.441 39.312C192.361 39.312 190.849 38.832 189.905 37.872C188.913 36.88 188.417 35.264 188.417 33.024C188.401 30.8 188.817 29.224 189.665 28.296C190.529 27.368 192.001 26.904 194.081 26.904ZM194.417 29.232C193.297 29.232 192.537 29.496 192.137 30.024C191.705 30.584 191.481 31.656 191.465 33.24C191.465 34.712 191.649 35.704 192.017 36.216C192.369 36.728 193.073 36.984 194.129 36.984C195.233 36.984 195.993 36.704 196.409 36.144C196.825 35.6 197.033 34.56 197.033 33.024C197.033 31.52 196.857 30.512 196.505 30C196.137 29.488 195.441 29.232 194.417 29.232ZM202.103 27.432C203.127 27.128 204.463 26.976 206.111 26.976C208.111 26.976 209.519 27.184 210.335 27.6C211.263 28.08 211.735 28.968 211.751 30.264C211.751 31.128 211.575 31.76 211.223 32.16C210.855 32.592 210.199 32.848 209.255 32.928V33C211.207 33.16 212.175 34.224 212.159 36.192C212.175 37.456 211.783 38.296 210.983 38.712C210.311 39.08 209.015 39.264 207.095 39.264C205.159 39.264 203.447 39.112 201.959 38.808L202.007 36.696C203.639 36.84 205.159 36.912 206.567 36.912C207.671 36.912 208.391 36.816 208.727 36.624C209.063 36.432 209.223 36.024 209.207 35.4C209.191 34.856 209.023 34.488 208.703 34.296C208.367 34.12 207.743 34.024 206.831 34.008L203.615 33.96L203.591 32.016H206.639C207.519 32.016 208.119 31.904 208.439 31.68C208.775 31.472 208.943 31.072 208.943 30.48C208.943 29.984 208.799 29.672 208.511 29.544C208.207 29.4 207.503 29.328 206.399 29.328C204.991 29.328 203.695 29.4 202.511 29.544L202.103 27.432ZM225.932 39H223.052L220.076 33.96H219.692L216.716 39H213.548L217.268 32.928L213.86 27.24H216.716L219.356 31.848H219.86L222.596 27.24H225.668L222.212 32.952L225.932 39ZM238.555 39H236.299L236.059 36.672C234.459 38.432 232.843 39.312 231.211 39.312C230.123 39.312 229.283 39.008 228.691 38.4C228.115 37.824 227.835 37.024 227.851 36V27.24H230.755V35.232C230.739 35.824 230.819 36.24 230.995 36.48C231.187 36.72 231.515 36.84 231.979 36.84C232.907 36.84 234.139 36.088 235.675 34.584L235.651 27.24H238.531L238.555 39ZM255.572 27.24C256.308 27.24 256.684 27.6 256.7 28.32L257.132 39H254.492L254.084 29.376H253.724L251.468 36.72C251.324 37.296 250.98 37.584 250.436 37.584H248.468C247.876 37.584 247.5 37.264 247.34 36.624L245.036 29.376H244.652L244.292 39H241.652L242.036 28.248C242.052 27.576 242.388 27.24 243.044 27.24H245.78C246.356 27.24 246.732 27.56 246.908 28.2L248.66 33.816C248.932 34.776 249.1 35.416 249.164 35.736H249.5C249.708 34.712 249.836 34.12 249.884 33.96L251.708 28.08C251.884 27.52 252.236 27.24 252.764 27.24H255.572ZM270.828 39H268.572L268.332 36.672C266.732 38.432 265.116 39.312 263.484 39.312C262.396 39.312 261.556 39.008 260.964 38.4C260.388 37.824 260.108 37.024 260.124 36V27.24H263.028V35.232C263.012 35.824 263.092 36.24 263.268 36.48C263.46 36.72 263.788 36.84 264.252 36.84C265.18 36.84 266.412 36.088 267.948 34.584L267.924 27.24H270.804L270.828 39ZM284.006 39H281.174L281.15 34.848H278.846C277.742 34.848 277.118 35.208 276.974 35.928L276.302 39H273.374L274.046 35.52C274.318 34.336 275.11 33.792 276.422 33.888V33.792C274.694 33.44 273.814 32.344 273.782 30.504C273.75 29.08 274.182 28.128 275.078 27.648C275.814 27.248 277.206 27.048 279.254 27.048C281.27 27.048 282.862 27.104 284.03 27.216L284.006 39ZM281.174 29.304L278.51 29.28C277.726 29.28 277.214 29.392 276.974 29.616C276.734 29.824 276.614 30.256 276.614 30.912C276.614 31.632 276.75 32.128 277.022 32.4C277.294 32.672 277.806 32.808 278.558 32.808H281.174V29.304ZM134.512 64.688C133.216 65.088 131.544 65.288 129.496 65.288C127.048 65.288 125.28 64.6 124.192 63.224C123.12 61.864 122.592 59.656 122.608 56.6C122.592 53.448 123.064 51.248 124.024 50C125 48.768 126.712 48.152 129.16 48.152C131 48.152 132.624 48.336 134.032 48.704L133.912 50.96C132.504 50.848 131.024 50.792 129.472 50.792C128.064 50.792 127.104 51.176 126.592 51.944C126.032 52.776 125.76 54.408 125.776 56.84C125.76 59.064 126 60.584 126.496 61.4C126.976 62.216 127.88 62.632 129.208 62.648C130.968 62.664 132.584 62.584 134.056 62.408L134.512 64.688ZM145.245 65L145.005 62.96C143.901 64.496 142.373 65.272 140.421 65.288C138.981 65.304 137.941 64.84 137.301 63.896C136.629 62.92 136.293 61.264 136.293 58.928C136.293 56.416 136.765 54.728 137.709 53.864C138.429 53.224 139.701 52.904 141.525 52.904C143.573 52.904 145.573 53.136 147.525 53.6V65H145.245ZM142.485 55.232C141.093 55.232 140.213 55.44 139.845 55.856C139.445 56.304 139.245 57.376 139.245 59.072C139.245 60.672 139.357 61.712 139.581 62.192C139.773 62.624 140.197 62.84 140.853 62.84C142.037 62.84 143.285 62.064 144.597 60.512L144.621 55.256L142.485 55.232ZM153.428 55.592C154.932 53.832 156.476 52.952 158.06 52.952C159.468 52.952 160.476 53.384 161.084 54.248C161.756 55.224 162.092 56.904 162.092 59.288C162.108 61.768 161.676 63.44 160.796 64.304C160.124 64.976 158.972 65.312 157.34 65.312C156.268 65.312 155.044 65.208 153.668 65C153.78 65.864 153.828 66.608 153.812 67.232L153.764 69.68H150.836L150.884 53.24H153.164L153.428 55.592ZM155.948 63.08C157.34 63.08 158.22 62.864 158.588 62.432C158.956 61.984 159.14 60.896 159.14 59.168C159.14 57.584 159.02 56.544 158.78 56.048C158.588 55.616 158.18 55.4 157.556 55.4C156.484 55.4 155.228 56.152 153.788 57.656L153.812 63.056L155.948 63.08ZM173.394 65L173.154 62.96C172.05 64.496 170.522 65.272 168.57 65.288C167.13 65.304 166.09 64.84 165.45 63.896C164.778 62.92 164.442 61.264 164.442 58.928C164.442 56.416 164.914 54.728 165.858 53.864C166.578 53.224 167.85 52.904 169.674 52.904C171.722 52.904 173.722 53.136 175.674 53.6V65H173.394ZM170.634 55.232C169.242 55.232 168.362 55.44 167.994 55.856C167.594 56.304 167.394 57.376 167.394 59.072C167.394 60.672 167.506 61.712 167.73 62.192C167.922 62.624 168.346 62.84 169.002 62.84C170.186 62.84 171.434 62.064 172.746 60.512L172.77 55.256L170.634 55.232ZM181.529 55.568C183.001 53.792 184.513 52.904 186.065 52.904C187.857 52.904 188.913 53.72 189.233 55.352C190.625 53.72 192.065 52.904 193.553 52.904C194.593 52.904 195.401 53.2 195.977 53.792C196.553 54.384 196.833 55.192 196.817 56.216V65H193.937L193.913 56.984C193.913 55.912 193.505 55.376 192.689 55.376C191.857 55.376 190.729 56.136 189.305 57.656L189.329 65H186.521L186.497 56.984C186.497 56.408 186.417 56 186.257 55.76C186.065 55.504 185.737 55.376 185.273 55.376C184.425 55.376 183.289 56.104 181.865 57.56L181.889 65H179.009V53.24H181.241L181.529 55.568ZM205.144 52.904C207.24 52.904 208.752 53.392 209.68 54.368C210.64 55.36 211.12 56.984 211.12 59.24C211.12 61.448 210.696 63.016 209.848 63.944C208.984 64.856 207.536 65.312 205.504 65.312C203.424 65.312 201.912 64.832 200.968 63.872C199.976 62.88 199.48 61.264 199.48 59.024C199.464 56.8 199.88 55.224 200.728 54.296C201.592 53.368 203.064 52.904 205.144 52.904ZM205.48 55.232C204.36 55.232 203.6 55.496 203.2 56.024C202.768 56.584 202.544 57.656 202.528 59.24C202.528 60.712 202.712 61.704 203.08 62.216C203.432 62.728 204.136 62.984 205.192 62.984C206.296 62.984 207.056 62.704 207.472 62.144C207.888 61.6 208.096 60.56 208.096 59.024C208.096 57.52 207.92 56.512 207.568 56C207.2 55.488 206.504 55.232 205.48 55.232ZM221.179 58.808C223.355 58.952 224.435 60.08 224.419 62.192C224.387 63.344 224.003 64.152 223.267 64.616C222.499 65.08 221.171 65.312 219.283 65.312C217.011 65.312 215.475 64.896 214.675 64.064C213.795 63.168 213.371 61.456 213.403 58.928C213.435 56.496 213.875 54.864 214.723 54.032C215.491 53.264 216.923 52.888 219.019 52.904C222.459 52.936 224.115 54.08 223.987 56.336C223.891 57.776 222.955 58.568 221.179 58.712V58.808ZM218.755 57.824C220.339 57.68 221.171 57.224 221.251 56.456C221.299 55.96 221.139 55.608 220.771 55.4C220.435 55.224 219.819 55.136 218.923 55.136C217.915 55.136 217.251 55.312 216.931 55.664C216.595 56.048 216.395 56.848 216.331 58.064L218.755 57.824ZM216.283 59.984C216.315 61.328 216.499 62.192 216.835 62.576C217.123 62.912 217.731 63.08 218.659 63.08C219.715 63.08 220.443 62.968 220.843 62.744C221.275 62.504 221.491 62.056 221.491 61.4C221.475 60.744 221.299 60.288 220.963 60.032C220.579 59.76 219.899 59.664 218.923 59.744L216.283 59.984Z" fill="#022113"/>
                            <path fill-rule="evenodd" clip-rule="evenodd" d="M53.5415 20.8578C54.3394 19.1467 55.1379 17.4353 55.231 15.8793C55.3241 14.3227 54.712 12.9215 53.2616 12.1024C51.8114 11.2826 49.5226 11.0452 46.1637 12.3127C42.8049 13.581 38.3758 16.3548 35.6247 19.3044C32.8737 22.254 31.8002 25.379 32.3639 27.7061C32.927 30.0325 35.1273 31.5611 38.1363 32.31C41.1457 33.0589 44.9638 33.0295 49.5105 32.2668C54.0575 31.5045 59.3329 30.0103 64.6086 28.5154C64.6687 29.2732 64.7284 30.0312 64.7882 30.7889C63.1979 31.4444 61.608 32.0996 59.1245 33.0213C56.6413 33.9433 53.2648 35.1319 49.5581 35.95C45.8518 36.7685 41.8153 37.2159 38.4698 36.9177C35.1244 36.6195 32.4697 35.5744 30.498 33.9587C28.5259 32.3433 27.2374 30.1563 26.8681 27.7809C26.4993 25.4055 27.05 22.8413 28.3655 20.427C29.6811 18.0127 31.7619 15.748 34.4953 13.8396C37.2287 11.9309 40.615 10.3789 43.7187 9.49379C46.8225 8.60901 49.6434 8.39247 51.8215 8.47347C54 8.55447 55.5354 8.93333 56.7112 9.47191C57.8867 10.0102 58.7025 10.7081 59.311 11.3862C59.9191 12.0642 60.3195 12.722 60.5198 13.5996C60.72 14.4768 60.72 15.5736 60.4012 16.8999C60.0821 18.2257 59.4436 19.7813 58.8057 21.3369C57.0509 21.1772 55.296 21.0175 53.5415 20.8578Z" fill="#022113"/>
                            <path fill-rule="evenodd" clip-rule="evenodd" d="M60.0222 46.6844C61.2735 52.3216 62.5244 57.9589 63.5 62.1672C62.6802 62.7662 61.8751 63.341 61.1076 63.8718C57.7425 66.1992 55.0957 67.6843 53.1191 68.6615C51.1424 69.6387 49.8357 70.1077 48.6818 70.3402C47.5285 70.5728 46.5278 70.5692 45.6708 70.3177C44.8137 70.0659 44.1001 69.5665 43.6376 68.9074C43.1755 68.2487 42.9645 67.4292 42.9158 66.6313C42.8669 65.8334 42.9802 65.057 43.314 64.284C43.6481 63.5115 44.202 62.7424 44.8974 62.0699C45.5924 61.3967 46.4288 60.8203 47.327 60.3722C48.2252 59.9241 49.1854 59.6043 50.207 59.394C51.2283 59.184 52.3104 59.0831 53.3075 59.0729C54.3047 59.0622 55.2169 59.1422 56.1288 59.2215C56.6275 58.1868 57.1262 57.1521 57.6246 56.1171C56.3789 55.9633 55.1333 55.8091 53.496 55.8104C51.8587 55.8114 49.8301 55.9682 48.0452 56.3987C46.26 56.8288 44.7181 57.5326 43.5429 58.1607C42.3678 58.7885 41.5588 59.3411 40.8265 60.0345C40.0943 60.7282 39.4394 61.5627 39.022 62.3717C38.6046 63.1807 38.425 63.9642 38.3541 64.799C38.2836 65.6335 38.3221 66.5202 38.4828 67.3485C38.6432 68.1768 38.9257 68.9473 39.3957 69.7066C39.8653 70.4663 40.5225 71.2142 41.2354 71.7603C41.9481 72.3061 42.7163 72.6494 43.5269 72.958C44.3372 73.267 45.1897 73.5417 46.355 73.6684C47.5204 73.7961 48.9986 73.7758 50.582 73.4584C52.1657 73.1412 53.8552 72.5279 55.5889 71.7812C57.3225 71.0349 59.1006 70.1557 62.4653 67.829C63.0953 67.3933 63.7812 66.9069 64.5059 66.3818C65.3358 69.7092 65.7532 70.868 66.17 71.7545C66.6321 72.7379 67.0936 73.3878 67.6322 73.9003C68.1708 74.4134 68.7861 74.7893 69.4272 75.0545C70.0687 75.3197 70.7353 75.4735 71.6501 75.516C72.5646 75.5588 73.7274 75.4905 75.0201 75.21C76.3131 74.9294 77.7361 74.4369 79.1977 73.6847C80.6596 72.9325 82.1601 71.9204 83.4404 70.9441C84.721 69.9682 85.7808 69.0276 86.7296 67.9932C87.6784 66.9589 88.5162 65.8304 89.2857 64.4884C90.0548 63.1464 90.756 61.5904 91.2329 59.799C91.7101 58.0079 91.9629 55.9806 91.9459 54.2025C91.9286 52.4242 91.6415 50.895 91.1561 49.3955C90.6705 47.8958 89.9866 46.4257 89.2171 45.1006C88.4479 43.7756 87.5932 42.5959 86.4305 41.4841C85.2677 40.3733 83.7973 39.3301 82.6372 38.5959C81.4774 37.8614 80.6279 37.4358 79.5665 36.9857C78.505 36.5357 77.2319 36.0614 75.7419 35.7015C74.2516 35.3416 72.545 35.0963 70.8493 34.9738C69.1535 34.8514 67.4692 34.8517 65.7565 34.9817C64.0438 35.112 62.3029 35.372 60.3926 35.8416C58.482 36.3113 56.4021 36.9916 54.7038 37.571C53.0057 38.1508 51.6892 38.6292 50.3729 39.1084C50.5611 39.8178 50.7492 40.5278 50.9373 41.2379C52.3391 40.6307 53.7409 40.0232 55.3397 39.4288C56.9381 38.8343 58.7331 38.253 60.5876 37.8434C62.4421 37.4339 64.3554 37.1958 66.1857 37.072C68.0156 36.9479 69.7623 36.9381 71.4898 37.0658C73.2172 37.1935 74.9254 37.4583 76.4464 37.8643C77.9674 38.2703 79.3009 38.8174 80.4721 39.4497C81.6434 40.0826 82.6519 40.8005 83.5409 41.6471C84.4303 42.4933 85.1991 43.4679 85.9089 44.451C86.6182 45.4341 87.2682 46.4257 87.7895 47.4944C88.3111 48.5627 88.7043 49.7084 88.9607 50.8963C89.2171 52.0845 89.3369 53.3155 89.3487 54.6582C89.3608 56.0012 89.2651 57.4556 88.898 58.8708C88.5312 60.285 87.893 61.66 87.1232 62.8472C86.3534 64.0344 85.4526 65.0339 84.3862 66.0058C83.3205 66.9778 82.0892 67.9224 80.7723 68.7085C79.4554 69.4943 78.0533 70.1217 76.8618 70.5218C75.6707 70.9223 74.6905 71.0947 73.8498 71.1636C73.0092 71.2332 72.3083 71.1992 71.7713 70.9879C71.2347 70.7763 70.8624 70.3879 70.4035 69.4179C69.9446 68.4482 69.3998 66.8968 68.5627 63.6271L68.5036 63.3962C70.638 61.7593 72.8534 59.9956 74.8568 58.3208C78.9315 54.9139 82.129 51.8745 85.3265 48.8354C83.8836 48.3445 82.4403 47.8536 80.9973 47.3621C79.9359 48.4314 78.8747 49.5004 77.4817 50.8075C76.0887 52.1145 74.3639 53.6601 71.4597 56.0175C70.2846 56.9715 68.9158 58.0588 67.48 59.1693C66.9045 56.7073 66.331 54.1323 65.925 52.2364C65.2542 49.1029 65.0419 47.8232 64.8296 46.5436C63.2272 46.591 61.6249 46.6377 60.0222 46.6844Z" fill="#022113"/>
                            <path d="M70.0006 27.9477C67.9132 28.1747 66.0271 29.5222 65.2387 30.1591C65.9644 30.6536 67.6026 31.5626 69.6132 31.3617C71.7195 31.1497 73.6286 29.7865 74.4229 29.145C74.3853 29.1192 74.3448 29.0924 74.3023 29.0643C74.1655 29.033 74.0362 28.9523 73.864 28.8449C73.6746 28.726 73.4052 28.5574 73.0237 28.3984C72.9074 28.3514 72.7862 28.3063 72.6605 28.2632C72.6073 28.2459 72.5521 28.2282 72.4952 28.2116C71.7796 28.0006 70.6884 27.9539 70.0006 27.9477ZM94.1683 23.0175L94.1617 23.0208C91.3235 24.4549 88.4869 25.8891 86.2974 26.9185C85.1986 27.4349 84.2734 27.8451 83.4389 28.1649C82.5897 28.4905 81.8231 28.7289 81.052 28.8981C80.2825 29.067 79.5104 29.1669 78.7997 29.2241C78.1021 29.2806 77.4508 29.2959 76.9188 29.2972C76.3871 29.2985 75.9844 29.2858 75.6467 29.2655L75.5771 29.2616L75.3877 29.4354C75.3802 29.4422 72.751 31.8967 69.6962 32.204C66.6045 32.5136 64.2941 30.5096 64.2872 30.5037L63.9211 30.1928L64.2742 29.8684C64.2755 29.8678 64.3405 29.8067 64.461 29.7038C64.3075 29.7492 64.22 29.7705 64.2183 29.7711L63.7588 29.8841L63.6974 29.4145C63.6964 29.4056 63.2832 26.3718 65.2337 23.9542C67.1624 21.5664 70.659 20.7081 70.6688 20.7058L70.8527 20.6607L70.8148 20.6235C72.8101 18.5822 74.8056 16.5402 77.3254 14.463C78.5838 13.4257 79.97 12.3819 81.4191 11.3357C82.8745 10.2854 84.3808 9.24055 85.8868 8.19638L86.2474 8.71863C84.7355 9.76704 83.2233 10.8158 81.7898 11.8511C80.3498 12.8904 78.9741 13.9261 77.7285 14.9529C75.76 16.5755 74.1064 18.1857 72.5187 19.7929C73.7305 19.1822 74.7815 19.1227 74.7861 19.1227L74.8135 19.1204C75.8283 18.1057 76.8453 17.0899 77.943 16.0503C79.0444 15.0075 80.197 13.9721 81.4521 12.9508C83.9533 10.9164 86.8588 8.94464 89.7643 6.97226L89.7676 6.96866L90.1206 7.49842L90.1187 7.49972L90.118 7.49875C87.2288 9.45937 84.3397 11.4213 81.8529 13.444C80.6134 14.4516 79.4722 15.4774 78.381 16.5108C77.8624 17.0014 77.348 17.5018 76.8352 18.0074C77.7059 17.6683 78.383 17.6177 78.3866 17.6171L78.787 17.587L78.7922 17.6288C79.8161 16.5471 80.9727 15.3863 83.2958 13.5269C84.6075 12.4772 86.2738 11.2175 88.1172 9.85326C90.0197 8.44526 92.026 6.9863 94.0324 5.52702L94.4057 6.04207C92.3481 7.53826 90.2901 9.03511 88.4954 10.3634C86.6416 11.7352 84.9769 12.9933 83.6913 14.0221C82.0227 15.3576 80.9632 16.3302 80.1179 17.1748C81.1578 16.567 82.1452 16.325 82.1494 16.324L82.6063 16.212L82.6344 16.4243C85.0066 14.2455 87.4143 12.0628 90.5671 9.79382C92.2243 8.60137 94.0765 7.39195 96.026 6.175C97.9576 4.96949 100.018 3.73524 102.078 2.50165L102.404 3.04643C100.366 4.26696 98.3266 5.48815 96.3618 6.71489C94.4145 7.93085 92.5711 9.13309 90.9378 10.3092C88.5748 12.0092 86.6262 13.669 84.793 15.3174C85.214 15.1515 85.5076 15.0796 85.5096 15.079L85.9698 14.9611L86.0338 15.4337C86.0338 15.4353 86.0527 15.5741 86.0543 15.8034C86.1442 15.7074 86.2392 15.6087 86.3411 15.5062C86.7944 15.0489 87.3797 14.5238 88.2276 13.8634C89.068 13.2088 90.1719 12.4178 91.444 11.5549C92.7194 10.6897 94.1506 9.76083 95.6439 8.83229C97.1339 7.90537 98.7169 6.95984 100.346 6.00452C101.944 5.06748 103.605 4.11149 105.266 3.15584L105.582 3.70585C103.941 4.6504 102.298 5.5956 100.667 6.55158C99.0684 7.48928 97.4964 8.42893 95.9796 9.37184C94.4704 10.3108 93.0464 11.2345 91.7997 12.0797C90.5429 12.9325 89.4511 13.7147 88.6182 14.3634C87.932 14.898 87.4241 15.3399 87.0208 15.728C88.451 15.1306 89.9449 15.3929 90.0141 15.4053L114.667 0.0266113L115.002 0.566495L90.3525 15.9435L90.3339 15.9879C90.3326 15.9915 89.9972 16.8172 89.2685 17.6073C89.4468 17.5295 89.632 17.4456 89.8257 17.3538C90.7036 16.9374 91.751 16.3668 93.0578 15.5924C94.3711 14.8141 95.9414 13.8336 97.8602 12.6017C101.7 10.1364 106.94 6.65904 112.182 3.18132L112.205 3.16564L112.556 3.69572L112.533 3.71107C107.29 7.18977 102.049 10.6672 98.2032 13.1367C96.2739 14.3755 94.697 15.3602 93.3811 16.1395C92.0594 16.923 90.9949 17.5031 90.0968 17.9286C88.9928 18.4519 88.1433 18.7412 87.3928 18.9395C87.9033 19.1923 88.2077 19.4565 88.2093 19.4578L88.2955 19.5316C88.6607 19.3674 89.0536 19.1838 89.4772 18.9787C90.521 18.4734 91.7481 17.8388 93.1793 17.0439C94.4361 16.3459 95.8555 15.5215 97.4533 14.5489C100.875 12.4661 105.093 9.71641 109.31 6.96736L109.656 7.4994C105.429 10.255 101.202 13.0103 97.7845 15.0907C96.1854 16.064 94.7578 16.8936 93.4879 17.5988C92.0407 18.4026 90.8032 19.0424 89.7532 19.5512C89.0101 19.9108 88.3592 20.2058 87.7873 20.4458C87.2749 20.8292 86.3584 21.4113 85.3214 21.5893L85.326 21.5932L85.6872 21.9015L85.3374 22.2248C85.3368 22.2258 85.2976 22.2621 85.2248 22.3245C85.5017 22.2333 85.7898 22.1357 86.0909 22.0305C87.2047 21.6415 88.5111 21.1441 89.8675 20.5911C91.1599 20.0647 92.4882 19.4918 93.726 18.9192C94.9943 18.3327 96.1727 17.7441 97.2998 17.1262C98.4285 16.5069 99.5031 15.8589 100.561 15.1531C101.622 14.4457 102.674 13.6756 103.722 12.8744C104.766 12.0762 105.811 11.2417 106.855 10.4075L107.25 10.9053C106.207 11.7381 105.164 12.5713 104.107 13.3793C103.054 14.1847 101.993 14.9617 100.915 15.6806C99.8343 16.4008 98.744 17.0586 97.6058 17.6834C96.4656 18.3091 95.2738 18.9036 93.9922 19.4964C92.738 20.0767 91.4009 20.6539 90.1062 21.1813C88.7564 21.731 87.4395 22.232 86.3 22.6302C85.1905 23.0175 84.2583 23.3036 83.4157 23.5388L83.2416 23.5868C82.8624 23.7566 82.4489 23.9013 82.0165 23.9882C82.0946 24.0483 82.1364 24.0845 82.137 24.0849L82.4688 24.3693L82.1736 24.6917C82.17 24.6956 81.2718 25.6908 79.6881 26.2388C79.9709 26.2382 80.3015 26.2065 80.7029 26.1258C81.3339 25.9998 82.1318 25.7578 83.0577 25.4282C83.9934 25.0954 85.0582 24.6737 86.2134 24.1933C87.3876 23.7047 88.644 23.1599 89.9393 22.5782C91.2363 21.9952 92.5754 21.3744 93.9148 20.7339C96.5973 19.4506 99.3443 18.0567 102.091 16.6627L102.097 16.6591L102.385 17.2264L102.38 17.2297C99.6514 18.6135 96.9245 19.9974 94.1885 21.3061C92.8318 21.9551 91.4878 22.5782 90.198 23.1576C88.8779 23.7511 87.6165 24.2981 86.4571 24.7805C85.2911 25.2652 84.2155 25.6908 83.2694 26.0279C82.3134 26.3682 81.4864 26.6187 80.8276 26.7503C80.146 26.8865 79.6352 26.8983 79.2109 26.8473C79.1388 26.8392 79.0698 26.8284 79.0029 26.8166L78.9431 26.8826C78.9395 26.8865 77.9306 28.0055 76.2382 28.6551C76.4416 28.6603 76.666 28.6636 76.9188 28.6629C77.4234 28.6616 78.0511 28.6463 78.7498 28.5898C79.4353 28.5342 80.1783 28.4386 80.9175 28.2762C81.6553 28.1142 82.3924 27.8846 83.2122 27.5704C84.0464 27.2504 84.9563 26.848 86.0286 26.3437C88.178 25.3332 91.0257 23.8938 93.8733 22.4541L93.8799 22.4502L94.1683 23.0175ZM84.4056 20.7845C84.6679 20.7665 84.971 20.7215 85.3459 20.6287C85.6768 20.5461 86.0658 20.4269 86.525 20.26C86.802 20.1071 87.0423 19.9451 87.2288 19.8073C86.801 19.5597 86.0886 19.2583 85.2466 19.3429C84.3289 19.4346 83.4784 19.9601 82.993 20.3184C83.32 20.5082 83.8141 20.729 84.4056 20.7845ZM82.4584 19.3304C83.0234 19.1208 83.9291 18.6968 84.5085 17.9789C85.0406 17.3198 85.1787 16.5588 85.2055 16.066C84.6398 16.276 83.7345 16.6996 83.1547 17.4178C82.623 18.0769 82.4849 18.8379 82.4584 19.3304ZM78.4127 21.4759C79.0992 21.2267 80.2502 20.7025 80.9825 19.7952C81.6883 18.9209 81.8326 17.9006 81.8483 17.3019C81.2068 17.5282 80.0869 18.0178 79.3233 18.8761L79.2658 18.9408L79.2106 19.0078C79.0542 19.2021 78.9836 19.4056 78.9098 19.6198C78.8833 19.6972 78.8559 19.7769 78.8043 19.9063C78.5711 20.4902 78.4633 21.066 78.4127 21.4759ZM72.9962 24.0558C73.3065 23.6123 73.8908 22.7112 74.2099 21.7944L74.2171 21.7728C74.2514 21.6415 74.2805 21.5125 74.3046 21.3874C74.3285 21.2385 74.3458 21.0758 74.3556 20.9145C74.3762 20.5872 74.3673 20.2854 74.3233 20.1365L74.2978 20.0513C73.5802 20.2041 72.2904 20.6317 71.2701 21.8094C71.3113 22.2617 71.2136 22.8098 71.1708 23.0485L71.1721 23.0489L71.1601 23.1188C71.0944 23.51 70.9837 23.8984 70.8478 24.2697C70.6695 24.8338 70.4105 25.4227 70.0375 25.9929C70.9203 25.634 72.1183 25.0147 72.9962 24.0558ZM74.2955 23.7361C75.1313 23.3742 76.2022 22.7732 76.9371 21.8623C77.9091 20.6578 78.0312 19.2325 78.0237 18.5299C77.3996 18.6593 76.2081 19.028 75.2665 20.0434C75.2707 20.3805 75.2518 20.8492 75.1607 21.3848C75.1257 21.6412 75.0748 21.8848 75.0091 22.0733L75.0072 22.0798C74.8608 22.6138 74.6365 23.1828 74.2955 23.7361ZM69.1174 25.8316C69.3245 25.5063 69.5669 25.0915 69.7834 24.6274C69.8873 24.405 69.9856 24.1711 70.0708 23.9314C70.3507 23.0126 70.3919 22.1772 70.3821 21.6719C69.4124 21.9848 67.2251 22.8363 65.8938 24.4853C64.6236 26.0595 64.4884 27.9284 64.5051 28.8044C65.3422 28.5343 67.0863 27.8621 68.4094 26.618C68.5142 26.5194 68.6174 26.4162 68.717 26.3091C68.8137 26.2052 68.9061 26.0991 68.9927 25.9919C69.0355 25.9387 69.0769 25.8855 69.1174 25.8316ZM87.0335 16.6588C86.2372 17.0925 85.7091 17.8019 85.4188 18.2876C85.9854 18.3069 86.8709 18.2481 87.6671 17.8147C88.4631 17.3806 88.9915 16.6715 89.2816 16.1859C88.7149 16.1663 87.8298 16.2254 87.0335 16.6588ZM81.7967 21.2996C80.6274 21.4168 79.5526 22.1004 78.9712 22.5384C79.2256 22.6667 79.5705 22.8186 79.9857 22.9463L80.0964 22.9806C80.5167 23.1116 81.0017 23.2622 81.4858 23.2141C82.6864 23.0933 83.7877 22.3757 84.357 21.9404C83.8475 21.6262 82.9143 21.1879 81.7967 21.2996ZM79.9252 23.8148L79.8446 23.7899L79.7351 23.7563C79.694 23.7436 79.6538 23.7302 79.6136 23.7171C79.0953 23.5714 78.4986 23.4895 77.8526 23.5541C76.6934 23.6704 75.6084 24.2332 74.8488 24.7332C75.258 24.7482 75.7215 24.8018 76.1937 24.9275C76.2199 24.935 76.2473 24.9429 76.2754 24.9514C76.9368 25.1274 77.5034 25.3867 77.9391 25.6297C78.0469 25.6702 78.1374 25.6996 78.2004 25.7114C79.661 25.5523 80.695 24.8622 81.1997 24.4451C80.9106 24.2547 80.4716 24.0052 79.9252 23.8148ZM77.5991 26.4041C77.3796 26.3215 77.1363 26.2157 76.8936 26.1102C76.5416 25.957 76.1898 25.8041 75.9765 25.747H75.9746C75.9034 25.728 75.8325 25.7111 75.7616 25.6957C75.2799 25.5961 74.7488 25.552 74.1835 25.6088C72.7738 25.7502 71.4654 26.4805 70.6166 27.0681C71.3688 27.0681 72.0644 27.1958 72.6778 27.383L72.7343 27.3993C73.0867 27.5028 73.3784 27.6207 73.6201 27.7363C73.9754 27.8948 74.285 28.0626 74.5414 28.2178C76.2045 28.01 77.4198 27.1262 77.977 26.6396C77.8712 26.5677 77.7441 26.4877 77.5991 26.4041Z" fill="#022113"/>
                            <path d="M45.3324 41.9336C47.4136 41.6569 49.2671 40.2646 50.0398 39.6088C49.3024 39.1316 47.6429 38.2622 45.6381 38.5117C43.5374 38.7736 41.6614 40.1823 40.8824 40.8427C40.9209 40.8675 40.9618 40.894 41.0052 40.9204C41.1424 40.9482 41.2737 41.0263 41.4484 41.1295C41.6408 41.2438 41.9138 41.4058 42.2992 41.5553C42.4168 41.5998 42.539 41.6419 42.6654 41.6821C42.7192 41.6984 42.7748 41.7141 42.8319 41.7294C43.5524 41.9234 44.6446 41.944 45.3324 41.9336ZM21.2895 47.4418L21.2964 47.4379C24.0993 45.9368 26.9007 44.4347 29.0651 43.353C30.1511 42.8105 31.0662 42.3784 31.8928 42.0387C32.7339 41.6929 33.4945 41.4361 34.2614 41.248C35.0266 41.0609 35.7958 40.943 36.5052 40.8685C37.2012 40.7953 37.8521 40.7643 38.3839 40.7499C38.9152 40.7362 39.3179 40.7395 39.656 40.7512L39.7259 40.7539L39.9111 40.5755C39.9186 40.5683 42.488 38.0515 45.5346 37.6713C48.6181 37.2879 50.9759 39.2358 50.9824 39.241L51.3564 39.5431L51.0112 39.8759C51.0099 39.8769 50.9462 39.9393 50.8283 40.0451C50.9808 39.9965 51.0677 39.9729 51.0693 39.9726L51.5259 39.8482L51.5984 40.3165C51.5997 40.325 52.0857 43.3481 50.1933 45.8117C48.3229 48.2456 44.8478 49.1869 44.8376 49.1895L44.655 49.2395L44.6939 49.2754C42.7483 51.3637 40.8021 53.4527 38.3329 55.59C37.0996 56.6574 35.7393 57.7339 34.3153 58.8146C32.8857 59.8996 31.4046 60.9804 29.9244 62.0601L29.5511 61.5467C31.0375 60.4624 32.5239 59.3774 33.9325 58.3084C35.3474 57.2348 36.6976 56.1665 37.9181 55.1099C39.8471 53.4403 41.4615 51.7909 43.0103 50.1464C41.8136 50.7863 40.7645 50.8709 40.7596 50.8712L40.7325 50.8735C39.7422 51.9124 38.75 52.952 37.6774 54.0181C36.6016 55.0867 35.4738 56.1498 34.2434 57.2005C31.7919 59.2944 28.9348 61.3357 26.0773 63.3767L26.074 63.3806L25.7082 62.8593L25.7102 62.858L25.7111 62.8587C28.5523 60.8295 31.3938 58.7993 33.8313 56.7175C35.0462 55.6802 36.1623 54.6275 37.2286 53.5686C37.7349 53.0653 38.2375 52.5526 38.7382 52.0349C37.8757 52.3948 37.2002 52.4621 37.1963 52.4621L36.7972 52.5019L36.7907 52.4605C35.7929 53.566 34.6644 54.7542 32.3867 56.6691C31.1005 57.7499 29.4649 59.0491 27.6548 60.4575C25.7866 61.9105 23.8155 63.4172 21.8448 64.9241L21.4594 64.4179C23.4804 62.8734 25.5021 61.3272 27.2645 59.9564C29.0847 58.5406 30.719 57.243 31.9794 56.1835C33.6157 54.8084 34.6514 53.8103 35.4764 52.9458C34.4512 53.5781 33.4697 53.8443 33.4655 53.8456L33.0118 53.9681L32.9785 53.7564C30.6593 55.9914 28.3047 58.2313 25.2069 60.5754C23.579 61.8073 21.7559 63.0605 19.8365 64.3238C17.9343 65.5757 15.9038 66.859 13.8739 68.1412L13.5349 67.6043C15.5438 66.3351 17.5528 65.0659 19.4876 63.7921C21.4055 62.5301 23.2191 61.2838 24.8241 60.0694C27.1456 58.3126 29.054 56.6067 30.847 54.9146C30.43 55.091 30.1386 55.17 30.1364 55.1707L29.6791 55.299L29.604 54.8284C29.6037 54.8271 29.5815 54.6883 29.5743 54.4593C29.4867 54.5573 29.3943 54.6582 29.2947 54.7637C28.8525 55.2314 28.2799 55.7703 27.448 56.451C26.6237 57.1254 25.5393 57.9429 24.2881 58.8358C23.0339 59.7314 21.625 60.6942 20.1546 61.6584C18.6874 62.6203 17.1272 63.604 15.521 64.5982C13.9464 65.5728 12.3088 66.5686 10.6712 67.5638L10.342 67.0219C11.9606 66.0379 13.58 65.0535 15.1872 64.0586C16.7634 63.0831 18.3122 62.1062 19.8061 61.1267C21.2925 60.1521 22.6939 59.1945 23.9197 58.3198C25.1559 57.4373 26.2285 56.629 27.0457 55.9604C27.7188 55.4097 28.2159 54.9551 28.6101 54.5579C27.1943 55.1896 25.6948 54.9629 25.6249 54.9522L1.34849 70.9174L1 70.3857L25.2741 54.4221L25.2915 54.3773C25.2928 54.3737 25.6083 53.5402 26.3177 52.7329C26.1416 52.8145 25.9581 52.9037 25.767 53C24.8992 53.437 23.8658 54.0328 22.578 54.8385C21.2837 55.6475 19.7372 56.6655 17.8487 57.9432C14.0695 60.4996 8.91403 64.1014 3.75657 67.7042L3.7337 67.7202L3.37051 67.199L3.39338 67.1826C8.55117 63.5798 13.7073 59.9777 17.4927 57.4164C19.3919 56.1319 20.945 55.1093 22.2413 54.2989C23.5444 53.4841 24.5945 52.8788 25.4822 52.4317C26.5731 51.882 27.4154 51.5724 28.161 51.3562C27.645 51.1155 27.3341 50.8588 27.3324 50.8575L27.2442 50.7859C26.8833 50.9587 26.495 51.1514 26.0766 51.3667C25.0449 51.8971 23.8335 52.5611 22.4216 53.3903C21.1821 54.118 19.7829 54.9763 18.2086 55.9872C14.8384 58.151 10.6875 61.0009 6.53731 63.8506L6.17868 63.3264C10.338 60.4705 14.4974 57.6147 17.8647 55.4525C19.4399 54.4413 20.847 53.5784 22.0998 52.8429C23.5274 52.0045 24.749 51.335 25.7869 50.8013C26.5208 50.4237 27.1645 50.1135 27.7306 49.86C28.2335 49.4638 29.1363 48.8603 30.168 48.6574L30.1638 48.6538L29.795 48.3544L30.137 48.0225C30.1377 48.0215 30.1762 47.984 30.2474 47.9203C29.9727 48.0179 29.6873 48.1225 29.3884 48.2351C28.2845 48.6506 26.9901 49.179 25.6475 49.7643C24.3678 50.3215 23.0539 50.9264 21.8301 51.5283C20.5765 52.145 19.4125 52.7613 18.3004 53.4066C17.187 54.0527 16.1281 54.7265 15.0872 55.4571C14.0434 56.1897 13.0103 56.985 11.9825 57.811C10.9576 58.6343 9.93338 59.4936 8.90946 60.352L8.50217 59.864C9.52478 59.0067 10.548 58.1483 11.5847 57.3155C12.6181 56.4849 13.6606 55.6828 14.7211 54.9384C15.7839 54.1925 16.8581 53.5085 17.981 52.8566C19.1058 52.2041 20.2832 51.5812 21.5502 50.9577C22.7903 50.3476 24.113 49.7388 25.3947 49.1803C26.7311 48.598 28.0356 48.0656 29.1654 47.6404C30.265 47.2266 31.19 46.9183 32.0271 46.6632L32.1995 46.6106C32.5748 46.4319 32.9847 46.2778 33.4148 46.1798C33.3351 46.1223 33.2927 46.087 33.292 46.0861L32.9533 45.8097L33.2411 45.4805C33.2444 45.4766 34.1184 44.4602 35.6887 43.8746C35.4058 43.8815 35.076 43.9216 34.6765 44.0111C34.0488 44.1525 33.2571 44.4138 32.3393 44.7653C31.4121 45.1206 30.3578 45.5674 29.2143 46.0756C28.0519 46.5923 26.8089 47.1668 25.5283 47.7798C24.2453 48.3932 22.9216 49.0461 21.5982 49.7186C18.9471 51.0655 16.234 52.5251 13.5215 53.9844L13.5156 53.9883L13.2135 53.4282L13.2197 53.4246C15.9139 51.9761 18.6068 50.5269 21.3104 49.1529C22.6515 48.4716 23.9801 47.8168 25.2555 47.2066C26.561 46.5815 27.8089 46.0047 28.9566 45.4946C30.1105 44.9818 31.1753 44.5304 32.1136 44.1712C33.0611 43.808 33.8816 43.5375 34.5371 43.3899C35.2154 43.2377 35.7256 43.2139 36.1512 43.2544C36.2234 43.2609 36.2926 43.2697 36.3599 43.2802L36.418 43.2129C36.4213 43.209 37.4031 42.0662 39.0799 41.3764C38.8761 41.3754 38.6517 41.378 38.3989 41.3845C37.8943 41.3979 37.2675 41.4283 36.5705 41.5015C35.8863 41.5736 35.1459 41.6866 34.4107 41.8669C33.6771 42.0466 32.9455 42.2938 32.1336 42.6276C31.3072 42.9673 30.4074 43.3919 29.3473 43.9216C27.223 44.9828 24.4106 46.4904 21.5982 47.9977L21.5916 48.0019L21.2895 47.4418ZM31.1034 49.4403C30.8415 49.4645 30.5397 49.5167 30.1671 49.6186C29.8378 49.7085 29.4521 49.8375 28.9972 50.0155C28.7238 50.1749 28.4876 50.3431 28.3044 50.4848C28.7382 50.7219 29.4573 51.0061 30.297 50.9016C31.2122 50.7879 32.05 50.2421 32.5265 49.8718C32.195 49.6905 31.6956 49.4811 31.1034 49.4403ZM33.0846 50.847C32.5248 51.0701 31.6296 51.5156 31.0675 52.2475C30.5515 52.9193 30.4319 53.683 30.4169 54.1765C30.977 53.9531 31.8719 53.5072 32.4344 52.7756C32.9504 52.1041 33.0699 51.3399 33.0846 50.847ZM37.0777 48.6055C36.3974 48.8707 35.2592 49.422 34.5488 50.347C33.8646 51.238 33.7447 52.2619 33.7434 52.8606C34.379 52.6185 35.4872 52.1025 36.2299 51.2262L36.2857 51.1602L36.3393 51.0923C36.4912 50.894 36.5565 50.6889 36.6254 50.4724C36.6499 50.3947 36.6757 50.3143 36.724 50.184C36.9429 49.5945 37.0372 49.0164 37.0777 48.6055ZM42.4312 45.8963C42.1314 46.347 41.5686 47.2615 41.2717 48.1861L41.2649 48.2074C41.2338 48.34 41.208 48.4693 41.1868 48.5951C41.1669 48.7446 41.1535 48.9076 41.147 49.0693C41.1346 49.3966 41.1506 49.6987 41.1982 49.8463L41.2257 49.9309C41.9393 49.7607 43.2186 49.3025 44.2105 48.1009C44.1583 47.6492 44.2429 47.0989 44.2798 46.8595L44.2785 46.8591L44.2893 46.7886C44.3454 46.3963 44.4467 46.0054 44.5734 45.6308C44.7383 45.0628 44.9833 44.4677 45.3422 43.8886C44.4686 44.2688 43.2859 44.9168 42.4312 45.8963ZM41.1395 46.2474C40.3125 46.6292 39.2569 47.2556 38.5436 48.1835C37.601 49.4109 37.5128 50.8389 37.5373 51.5411C38.1582 51.3967 39.3402 50.9995 40.2576 49.9616C40.2452 49.6252 40.253 49.1562 40.3311 48.6182C40.3595 48.3615 40.4049 48.1166 40.4656 47.9265L40.4679 47.9203C40.6015 47.3824 40.8122 46.8088 41.1395 46.2474ZM46.2662 44.0278C46.0666 44.3577 45.8344 44.7786 45.629 45.248C45.5307 45.473 45.4379 45.7085 45.3586 45.9508C45.1005 46.8758 45.0797 47.7119 45.1015 48.2165C46.0637 47.8808 48.2295 46.977 49.5212 45.2973C50.7535 43.6927 50.8436 41.8206 50.8057 40.9456C49.9755 41.2353 48.2481 41.9492 46.955 43.2246C46.8525 43.3259 46.7519 43.4314 46.6549 43.5411C46.5608 43.6473 46.4707 43.7551 46.3867 43.8648C46.3452 43.919 46.3051 43.9732 46.2662 44.0278ZM28.5752 53.6278C29.3603 53.1751 29.8715 52.4533 30.1501 51.9608C29.5831 51.9552 28.6993 52.0349 27.9141 52.4872C27.1286 52.9399 26.6172 53.6617 26.3389 54.1542C26.9059 54.1601 27.7894 54.0801 28.5752 53.6278ZM33.6993 48.8625C34.865 48.7172 35.9232 48.0081 36.4938 47.5568C36.2367 47.4343 35.8879 47.2909 35.4702 47.1727L35.3585 47.1413C34.9349 47.0208 34.4466 46.881 33.9639 46.9414C32.7665 47.0907 31.6828 47.8344 31.124 48.2831C31.641 48.5853 32.5843 49.001 33.6993 48.8625ZM35.5097 46.3033L35.591 46.3261L35.7011 46.3578C35.7422 46.3692 35.7831 46.3813 35.8236 46.3934C36.3452 46.527 36.9435 46.5943 37.5879 46.5142C38.7441 46.3702 39.815 45.7813 40.563 45.2637C40.1531 45.2584 39.6887 45.216 39.2134 45.1013C39.187 45.0948 39.1599 45.0879 39.1315 45.0798C38.4655 44.9197 37.8933 44.6735 37.4517 44.4416C37.343 44.4034 37.2518 44.3763 37.1882 44.3658C35.7321 44.5595 34.7151 45.2748 34.2206 45.7036C34.5139 45.8871 34.9587 46.1262 35.5097 46.3033ZM37.7731 43.659C37.9942 43.7364 38.2398 43.8364 38.4854 43.936C38.8408 44.0807 39.1961 44.225 39.411 44.277L39.4127 44.2766C39.4845 44.2943 39.5557 44.3093 39.6269 44.3234C40.111 44.4115 40.643 44.4422 41.2067 44.372C42.6125 44.197 43.9029 43.4353 44.7377 42.8278C43.9855 42.8461 43.2872 42.7347 42.6693 42.5623L42.6128 42.5476C42.2578 42.4522 41.9635 42.3415 41.7188 42.2321C41.3599 42.0815 41.0464 41.9212 40.7864 41.7725C39.1289 42.0201 37.9351 42.9333 37.3897 43.4327C37.4971 43.5016 37.6258 43.579 37.7731 43.659Z" fill="#022113"/>
                            </svg>