<svg width="152" height="76" viewBox="0 0 152 76" fill="none" xmlns="http://www.w3.org/2000/svg">
<mask id="mask0_340_117" style="mask-type:luminance" maskUnits="userSpaceOnUse" x="0" y="59" width="96" height="3">
<path d="M95.5133 61.0328H1.52588e-05V59.9825H95.5133V61.0328Z" fill="white"/>
</mask>
<g mask="url(#mask0_340_117)">
<path d="M0.478958 60.0512H94.9833C95.2362 60.0512 95.4413 60.2563 95.4413 60.5096C95.4413 60.7624 95.2362 60.9676 94.9833 60.9676H0.478958C0.2257 60.9676 0.0209351 60.7624 0.0209351 60.5096C0.0209351 60.2563 0.2257 60.0512 0.478958 60.0512Z" fill="#6BD9C0"/>
</g>
<mask id="mask1_340_117" style="mask-type:luminance" maskUnits="userSpaceOnUse" x="142" y="-1" width="10" height="63">
<path d="M151.116 61.0328H142.205V-0.000190735H151.116V61.0328Z" fill="white"/>
</mask>
<g mask="url(#mask1_340_117)">
<path d="M150.641 0.00691223C150.894 0.00691223 151.099 0.212055 151.099 0.465309V52.6097C151.099 57.2172 147.351 60.9665 142.746 60.9665C142.493 60.9665 142.288 60.7613 142.288 60.5081C142.288 60.2548 142.493 60.05 142.746 60.05C146.846 60.05 150.183 56.7118 150.183 52.6097V0.464191C150.183 0.210934 150.388 0.00579453 150.641 0.00579453V0.00691223Z" fill="#6BD9C0"/>
</g>
<mask id="mask2_340_117" style="mask-type:luminance" maskUnits="userSpaceOnUse" x="103" y="52" width="32" height="24">
<path d="M134.28 75.5938H103.152V52.8211H134.28V75.5938Z" fill="white"/>
</mask>
<g mask="url(#mask2_340_117)">
<path d="M122.524 52.8387H134.188V61.3401C134.188 71.8434 127.523 74.5934 122.775 75.5938V71.3425C128.274 69.5917 128.774 66.5918 128.94 63.4232H122.525V52.8376L122.524 52.8387ZM103.195 52.8387H114.859V61.3401C114.859 71.8419 108.195 74.5934 103.446 75.5938V71.3425C108.945 69.5917 109.444 66.5918 109.611 63.4232H103.196V52.8376L103.195 52.8387Z" fill="#6BD9C0"/>
</g>
</svg>
