<svg width="152" height="76" viewBox="0 0 152 76" fill="none" xmlns="http://www.w3.org/2000/svg">
<mask id="mask0_340_100" style="mask-type:luminance" maskUnits="userSpaceOnUse" x="55" y="14" width="97" height="2">
<path d="M55.6031 14.5609H151.116V15.6112H55.6031V14.5609Z" fill="white"/>
</mask>
<g mask="url(#mask0_340_100)">
<path d="M150.637 15.5426H56.1331C55.8802 15.5426 55.675 15.3374 55.675 15.0842C55.675 14.8313 55.8802 14.6262 56.1331 14.6262H150.637C150.891 14.6262 151.095 14.8313 151.095 15.0842C151.095 15.3374 150.891 15.5426 150.637 15.5426Z" fill="#6BD9C0"/>
</g>
<mask id="mask1_340_100" style="mask-type:luminance" maskUnits="userSpaceOnUse" x="0" y="14" width="9" height="62">
<path d="M0 14.5609H8.91136V75.5939H0V14.5609Z" fill="white"/>
</mask>
<g mask="url(#mask1_340_100)">
<path d="M0.475549 75.5868C0.222293 75.5868 0.0171509 75.3817 0.0171509 75.1284V22.984C0.0171509 18.3765 3.7649 14.6273 8.37015 14.6273C8.62341 14.6273 8.82855 14.8324 8.82855 15.0857C8.82855 15.3389 8.62341 15.5437 8.37015 15.5437C4.26993 15.5437 0.933575 18.8819 0.933575 22.984V75.1296C0.933575 75.3828 0.728433 75.588 0.475549 75.588V75.5868Z" fill="#6BD9C0"/>
</g>
<mask id="mask2_340_100" style="mask-type:luminance" maskUnits="userSpaceOnUse" x="16" y="0" width="32" height="23">
<path d="M16.8365 0H47.9644V22.7726H16.8365V0Z" fill="white"/>
</mask>
<g mask="url(#mask2_340_100)">
<path d="M28.5923 22.7551H16.9283V14.2536C16.9283 3.75036 23.5932 1.00035 28.3417 0V4.25128C22.8428 6.00208 22.3422 9.00199 22.1762 12.1705H28.5912V22.7562L28.5923 22.7551ZM47.9212 22.7551H36.2572V14.2536C36.2572 3.75186 42.9217 1.00035 47.6705 0V4.25128C42.1716 6.00208 41.6722 9.00199 41.5051 12.1705H47.92V22.7562L47.9212 22.7551Z" fill="#6BD9C0"/>
</g>
</svg>
