<svg width="1627" height="181" viewBox="0 0 1627 181" fill="none" xmlns="http://www.w3.org/2000/svg">
<g opacity="0.2">
<mask id="mask0_340_8" style="mask-type:luminance" maskUnits="userSpaceOnUse" x="0" y="0" width="1665" height="181">
<path d="M0 0H1665V181H0V0Z" fill="white"/>
</mask>
<g mask="url(#mask0_340_8)">
<path d="M1664.47 35.0737L1627.01 160.817C1623.79 171.609 1606.23 179.512 1585.74 179.395L1456.62 178.632L1291.8 177.684L797.403 174.8L632.619 173.848L486.617 172.897L322.009 171.928L5.62755 181C2.32314 181.077 -0.32849 179.544 0.0316639 177.782L1.55782 170.301L5.95619 149.297C6.03273 148.887 6.28483 148.501 6.64949 148.15L16.7518 138.944C17.5531 138.188 17.6972 137.277 17.148 136.463L11.0479 127.667C10.7507 127.24 10.6427 126.794 10.7507 126.35L12.8576 116.213L17.3686 94.5657L19.624 83.7326L21.875 72.9235L26.3814 51.2934L28.6324 40.4603L30.7843 30.2702C30.8473 29.8623 31.1039 29.4569 31.5046 29.1066L45.4291 16.5483C46.6986 15.4254 46.37 13.969 44.6277 13.0429C43.5382 12.443 43.07 11.7232 43.07 11.0274C43.07 9.51343 45.285 8.06183 48.5894 8.07862L58.255 9.06715L562.826 0L696.367 1.08451L893.533 2.2122L1066.14 3.23673L1251.02 4.29964L1435.87 5.36495L1625.39 9.60221C1650.08 10.1541 1668.35 22.062 1664.47 35.0737Z" fill="url(#paint0_linear_340_8)"/>
</g>
</g>
<defs>
<linearGradient id="paint0_linear_340_8" x1="-0.00115967" y1="90.5014" x2="1664.99" y2="90.5014" gradientUnits="userSpaceOnUse">
<stop stop-color="white"/>
<stop offset="1" stop-color="white" stop-opacity="0.33"/>
</linearGradient>
</defs>
</svg>
