<svg width="214" height="256" viewBox="0 0 214 256" fill="none" xmlns="http://www.w3.org/2000/svg">
<path d="M208.571 80.9813C202.459 52.9299 190.523 29.9396 168.875 15.4589C153.339 5.06541 136.508 0.94632 119.084 0.100149C107.644 -0.458643 96.412 1.39336 85.2281 3.85205C68.6203 7.52411 52.7965 13.7187 38.8447 25.2777C23.3729 38.082 10.861 54.0795 3.93309 75.6009C0.621134 85.8827 -3.73079 124.407 5.7571 167.083C10.125 180.829 13.7091 194.336 21.309 206.901C35.4208 230.243 59.7565 246.128 75.3563 252.243C80.0442 254.079 88.2041 255.548 94.7641 255.851C110.604 256.586 126.188 254.574 141.58 250.423C163.483 244.516 181.563 231.44 194.971 209.663C204.011 194.975 209.547 179.361 211.371 168.137C213.115 157.376 214.267 134.881 213.947 123.737C213.643 112.96 211.627 95.0628 208.571 80.9973V80.9813ZM144.092 140.197C141.292 156.674 131.836 164.577 119.18 168.424C100.172 174.204 77.6762 163.044 72.6363 129.005C71.2603 119.682 71.6763 110.677 74.6203 101.928C80.9082 83.2005 93.3881 75.8883 109.34 75.2976C127.484 74.6111 142.155 83.7433 145.147 121.597C145.371 126.627 145.147 134.019 144.092 140.197Z" fill="white"/>
</svg>
