<svg width="21" height="21" viewBox="0 0 21 21" fill="none" xmlns="http://www.w3.org/2000/svg">
<path d="M20.7546 19.5183L15.536 14.2998C16.9581 12.5605 17.6573 10.3411 17.489 8.10072C17.3207 5.86034 16.2977 3.77037 14.6316 2.2631C12.9656 0.755833 10.7839 -0.0534179 8.53793 0.00273877C6.29194 0.0588955 4.15346 0.976163 2.56481 2.56481C0.976163 4.15346 0.0588955 6.29194 0.00273877 8.53793C-0.0534179 10.7839 0.755833 12.9656 2.2631 14.6316C3.77037 16.2977 5.86034 17.3207 8.10072 17.489C10.3411 17.6573 12.5605 16.9581 14.2998 15.536L19.5183 20.7546C19.6832 20.9138 19.9041 21.002 20.1333 21C20.3626 20.998 20.5818 20.906 20.7439 20.7439C20.906 20.5818 20.998 20.3626 21 20.1333C21.002 19.9041 20.9138 19.6832 20.7546 19.5183ZM8.7708 15.7651C7.38747 15.7651 6.0352 15.3548 4.885 14.5863C3.7348 13.8178 2.83833 12.7254 2.30895 11.4474C1.77957 10.1694 1.64107 8.76304 1.91094 7.40629C2.18081 6.04954 2.84695 4.80328 3.82512 3.82512C4.80328 2.84695 6.04954 2.18081 7.40629 1.91094C8.76304 1.64107 10.1694 1.77957 11.4474 2.30895C12.7254 2.83833 13.8178 3.7348 14.5863 4.885C15.3548 6.0352 15.7651 7.38747 15.7651 8.7708C15.763 10.6252 15.0254 12.403 13.7142 13.7142C12.403 15.0254 10.6252 15.763 8.7708 15.7651Z" fill="white"/>
</svg>
