<svg width="43" height="43" viewBox="0 0 43 43" fill="none" xmlns="http://www.w3.org/2000/svg">
<rect x="0.0429688" y="0.104492" width="42" height="42" rx="8" fill="#67524F"/>
<g clip-path="url(#clip0_562_7397)">
<path d="M20.5545 8.09912H20.5303C14.3572 8.09912 9.35059 13.1036 9.35059 19.2788C9.35059 26.1812 16.5668 33.4754 20.0799 35.0042C20.2271 35.0681 20.3859 35.1011 20.5464 35.1011C20.7068 35.1011 20.8656 35.0681 21.0128 35.0042C24.5249 33.4749 31.73 26.1807 31.73 19.2788C31.7321 13.1036 26.7276 8.09912 20.5545 8.09912ZM20.5424 23.023C19.7602 23.023 18.9955 22.791 18.3451 22.3564C17.6947 21.9218 17.1877 21.3041 16.8884 20.5814C16.589 19.8587 16.5107 19.0635 16.6633 18.2963C16.8159 17.5291 17.1926 16.8243 17.7457 16.2712C18.2989 15.7181 19.0036 15.3414 19.7708 15.1888C20.538 15.0362 21.3332 15.1145 22.0559 15.4139C22.7786 15.7132 23.3963 16.2201 23.8309 16.8705C24.2655 17.521 24.4975 18.2856 24.4975 19.0679C24.4975 19.5873 24.3952 20.1016 24.1964 20.5814C23.9977 21.0613 23.7063 21.4973 23.3391 21.8645C22.9718 22.2318 22.5358 22.5231 22.0559 22.7219C21.5761 22.9206 21.0618 23.023 20.5424 23.023Z" fill="#FAE9C5"/>
</g>
<defs>
<clipPath id="clip0_562_7397">
<rect width="27" height="27" fill="white" transform="translate(7.04297 8.10327)"/>
</clipPath>
</defs>
</svg>
