<svg width="42" height="43" viewBox="0 0 42 43" fill="none" xmlns="http://www.w3.org/2000/svg">
<rect y="0.179565" width="42" height="42" rx="8" fill="#67524F"/>
<g clip-path="url(#clip0_564_6)">
<path d="M23.34 23.8346C22.6434 24.299 21.8343 24.5445 21 24.5445C20.1658 24.5445 19.3566 24.299 18.66 23.8346L7.18643 16.1853C7.12309 16.143 7.06092 16.0989 7 16.0532V28.5874C7 30.0244 8.16621 31.165 9.57759 31.165H32.4224C33.8594 31.165 34.9999 29.9987 34.9999 28.5874V16.0531C34.9389 16.099 34.8766 16.1431 34.8131 16.1856L23.34 23.8346Z" fill="#FAE9C5"/>
<path d="M8.09649 14.8202L19.5701 22.4696C20.0044 22.7591 20.5022 22.9039 20.9999 22.9039C21.4978 22.9039 21.9956 22.7591 22.4299 22.4696L33.9035 14.8202C34.5901 14.3628 35 13.5971 35 12.7708C35 11.35 33.8441 10.1941 32.4233 10.1941H9.57671C8.15593 10.1941 7 11.35 7 12.7722C6.99958 13.1775 7.09948 13.5767 7.2908 13.934C7.48212 14.2914 7.75891 14.5958 8.09649 14.8202Z" fill="#FAE9C5"/>
</g>
<defs>
<clipPath id="clip0_564_6">
<rect width="28" height="21" fill="white" transform="translate(7 10.1796)"/>
</clipPath>
</defs>
</svg>
