<svg width="42" height="43" viewBox="0 0 42 43" fill="none" xmlns="http://www.w3.org/2000/svg">
<rect y="-0.00305176" width="42" height="42.0867" rx="8.01651" fill="#67524F"/>
<path fill-rule="evenodd" clip-rule="evenodd" d="M9.49469 20.8309C15.6163 18.141 19.7083 16.4024 21.7706 15.5495C27.5976 13.1221 28.8088 12.6956 29.5945 12.6628C29.7581 12.6628 30.151 12.6956 30.4129 12.8925C30.6093 13.0565 30.6747 13.2861 30.7075 13.4501C30.7402 13.6141 30.7729 13.975 30.7402 14.2702C30.4129 17.5833 29.0707 25.6858 28.3505 29.3925C28.0559 30.9671 27.4666 31.492 26.9101 31.5576C25.6989 31.656 24.7496 30.7375 23.5711 29.983C21.7379 28.7693 20.6903 28.0148 18.8899 26.8339C16.8275 25.4561 18.1697 24.7017 19.3482 23.4879C19.6428 23.1599 25.0442 18.2722 25.1424 17.813C25.1424 17.7474 25.1751 17.5505 25.0442 17.4521C24.9132 17.3537 24.7496 17.3865 24.6186 17.4193C24.4222 17.4521 21.476 19.4203 15.7472 23.2911C14.8961 23.8816 14.1432 24.144 13.4557 24.144C12.7028 24.144 11.2624 23.7176 10.1821 23.3567C8.87271 22.9303 7.82517 22.7007 7.92338 21.979C7.98885 21.6182 8.51262 21.2245 9.49469 20.8309Z" fill="#FAE9C5"/>
</svg>
