<svg width="43" height="43" viewBox="0 0 43 43" fill="none" xmlns="http://www.w3.org/2000/svg">
<rect x="0.146484" y="0.0405273" width="42" height="42" rx="8" fill="#67524F"/>
<path fill-rule="evenodd" clip-rule="evenodd" d="M31.193 11.1823C28.6435 8.62979 25.253 7.22348 21.6407 7.22192C14.1975 7.22192 8.13959 13.2794 8.1366 20.7249C8.13569 23.1049 8.75739 25.428 9.93919 27.476L8.02344 34.4735L15.1821 32.5957C17.1545 33.6715 19.3752 34.2386 21.6352 34.2394H21.6408C29.0832 34.2394 35.1416 28.1811 35.1447 20.7355C35.146 17.1274 33.7426 13.7347 31.193 11.1823ZM21.6408 31.9588H21.6362C19.6223 31.958 17.6469 31.4169 15.9237 30.3943L15.5138 30.1512L11.2657 31.2654L12.3996 27.1236L12.1327 26.6988C11.0093 24.9119 10.4158 22.8465 10.4167 20.7256C10.4191 14.5372 15.4541 9.50263 21.6453 9.50263C24.6431 9.50367 27.4613 10.6726 29.5804 12.7943C31.6995 14.9158 32.8657 17.7357 32.8645 20.7348C32.8621 26.9237 27.8271 31.9588 21.6408 31.9588ZM27.7973 23.5525C27.4599 23.3837 25.8011 22.5674 25.4918 22.4548C25.1826 22.3424 24.9575 22.286 24.7326 22.6238C24.5077 22.9616 23.861 23.7215 23.6641 23.9468C23.4673 24.1719 23.2704 24.2002 22.9332 24.0312C22.5956 23.8624 21.5085 23.506 20.2197 22.3564C19.2166 21.4617 18.5395 20.3569 18.3426 20.0189C18.1458 19.6811 18.3216 19.4986 18.4906 19.3303C18.6424 19.1791 18.828 18.9361 18.9968 18.7392C19.1656 18.5422 19.2217 18.4014 19.3342 18.1762C19.4467 17.951 19.3905 17.7539 19.306 17.5852C19.2217 17.4161 18.5469 15.7553 18.2657 15.0797C17.9918 14.4219 17.7137 14.5109 17.5066 14.5005C17.31 14.4907 17.0848 14.4885 16.8598 14.4885C16.6349 14.4885 16.2694 14.573 15.9601 14.9108C15.6508 15.2486 14.7792 16.0649 14.7792 17.7257C14.7792 19.3866 15.9881 20.9909 16.1569 21.2162C16.3255 21.4414 18.5362 24.8494 21.9209 26.3111C22.7258 26.6588 23.3544 26.8663 23.8445 27.0219C24.6529 27.2788 25.3884 27.2424 25.9696 27.1556C26.618 27.0587 27.966 26.3393 28.2471 25.5512C28.5283 24.7629 28.5283 24.0873 28.4439 23.9466C28.3596 23.806 28.1347 23.7215 27.7973 23.5525Z" fill="#FAE9C5"/>
</svg>
