<svg width="41" height="17" viewBox="0 0 41 17" fill="none" xmlns="http://www.w3.org/2000/svg">
<path opacity="0.7" fill-rule="evenodd" clip-rule="evenodd" d="M27.7905 0.920812C27.7905 0.936039 29.0924 2.25322 30.6837 3.84449C32.275 5.42815 33.5769 6.75294 33.5769 6.78339C33.5769 6.80623 28.1331 6.82908 21.4711 6.82908H9.36523V8.65637V10.4837H21.4711C28.1331 10.4837 33.5769 10.4989 33.5769 10.5141C33.5769 10.5294 32.2674 11.8541 30.6761 13.4454L27.7676 16.3463H30.539H33.3105L37.1554 12.5013L41.0003 8.65637L37.1173 4.77337L33.2343 0.890357H30.5162C29.0163 0.890357 27.7905 0.905584 27.7905 0.920812ZM0 8.65641V10.4837H1.48468H2.96936V8.65641V6.82911H1.48468H0V8.65641ZM4.50689 8.73254C4.49928 7.79605 4.50689 6.98138 4.52212 6.92809C4.55258 6.85195 4.91042 6.82911 6.01441 6.82911H7.46102V8.65641V10.4837L5.99919 10.4685L4.52973 10.4456L4.50689 8.73254Z" fill="url(#paint0_linear_362_2097)"/>
<defs>
<linearGradient id="paint0_linear_362_2097" x1="7.46103" y1="8.65641" x2="4.50391" y2="8.65641" gradientUnits="userSpaceOnUse">
<stop stop-color="white"/>
<stop offset="1" stop-color="white"/>
</linearGradient>
</defs>
</svg>
