<svg width="41" height="17" viewBox="0 0 41 17" fill="none" xmlns="http://www.w3.org/2000/svg">
<path opacity="0.7" fill-rule="evenodd" clip-rule="evenodd" d="M13.2095 0.920836C13.2095 0.936063 11.9076 2.25324 10.3163 3.84451C8.72502 5.42817 7.42307 6.75296 7.42307 6.78342C7.42307 6.80626 12.8669 6.8291 19.5289 6.8291H31.6348V8.6564V10.4837H19.5289C12.8669 10.4837 7.42307 10.4989 7.42307 10.5141C7.42307 10.5294 8.73263 11.8542 10.3239 13.4454L13.2324 16.3463H10.461H7.68955L3.84461 12.5013L-0.000328064 8.6564L3.88268 4.77339L7.76569 0.890381H10.4838C11.9837 0.890381 13.2095 0.905608 13.2095 0.920836ZM41 8.65643V10.4837H39.5153H38.0306V8.65643V6.82913H39.5153H41V8.65643ZM36.4931 8.73257C36.5007 7.79608 36.4931 6.98141 36.4779 6.92811C36.4474 6.85197 36.0896 6.82913 34.9856 6.82913H33.539V8.65643V10.4837L35.0008 10.4685L36.4703 10.4457L36.4931 8.73257Z" fill="url(#paint0_linear_362_2098)"/>
<defs>
<linearGradient id="paint0_linear_362_2098" x1="33.539" y1="8.65641" x2="36.4961" y2="8.65641" gradientUnits="userSpaceOnUse">
<stop stop-color="white"/>
<stop offset="1" stop-color="white"/>
</linearGradient>
</defs>
</svg>
