<svg width="43" height="43" viewBox="0 0 43 43" fill="none" xmlns="http://www.w3.org/2000/svg">
<rect width="43" height="43" rx="7" fill="#FAE9C5"/>
<path d="M29.6429 20.2044C29.1475 19.9889 28.6124 19.8779 28.0714 19.8783H13.9286C13.3877 19.8778 12.8525 19.9887 12.3571 20.2039C11.657 20.5073 11.0612 21.0063 10.6426 21.6398C10.224 22.2733 10.0007 23.014 10 23.7713V29.2214C10 29.4279 10.0828 29.6259 10.2301 29.772C10.3775 29.918 10.5773 30 10.7857 30C10.9941 30 11.1939 29.918 11.3413 29.772C11.4886 29.6259 11.5714 29.4279 11.5714 29.2214V28.8321C11.5727 28.7293 11.6145 28.631 11.6879 28.5582C11.7613 28.4855 11.8605 28.4441 11.9643 28.4428H30.0357C30.1395 28.4441 30.2387 28.4855 30.3121 28.5582C30.3855 28.631 30.4273 28.7293 30.4286 28.8321V29.2214C30.4286 29.4279 30.5114 29.6259 30.6587 29.772C30.8061 29.918 31.0059 30 31.2143 30C31.4227 30 31.6225 29.918 31.7699 29.772C31.9172 29.6259 32 29.4279 32 29.2214V23.7713C31.9992 23.0141 31.7759 22.2735 31.3573 21.6401C30.9387 21.0066 30.3429 20.5077 29.6429 20.2044ZM26.8929 12H15.1071C14.3778 12 13.6783 12.2871 13.1626 12.7982C12.6469 13.3092 12.3571 14.0023 12.3571 14.7251V18.2287C12.3572 18.2589 12.3643 18.2886 12.3779 18.3156C12.3915 18.3426 12.4112 18.3661 12.4356 18.3842C12.4599 18.4023 12.4882 18.4146 12.5181 18.42C12.548 18.4255 12.5788 18.424 12.6081 18.4156C13.037 18.2913 13.4817 18.2283 13.9286 18.2287H14.1363C14.1848 18.229 14.2317 18.2116 14.2679 18.1797C14.3042 18.1478 14.3273 18.1037 14.3327 18.056C14.3756 17.6755 14.5584 17.3241 14.8461 17.0687C15.1339 16.8133 15.5065 16.6719 15.8929 16.6715H18.6429C19.0294 16.6716 19.4024 16.8128 19.6905 17.0682C19.9786 17.3236 20.1616 17.6753 20.2045 18.056C20.2099 18.1037 20.233 18.1478 20.2693 18.1797C20.3055 18.2116 20.3524 18.229 20.4009 18.2287H21.6021C21.6505 18.229 21.6974 18.2116 21.7337 18.1797C21.7699 18.1478 21.793 18.1037 21.7985 18.056C21.8413 17.6758 22.0239 17.3245 22.3113 17.0692C22.5988 16.8138 22.9711 16.6723 23.3571 16.6715H26.1071C26.4937 16.6716 26.8667 16.8128 27.1548 17.0682C27.4429 17.3236 27.6259 17.6753 27.6688 18.056C27.6742 18.1037 27.6973 18.1478 27.7335 18.1797C27.7698 18.2116 27.8167 18.229 27.8652 18.2287H28.0714C28.5184 18.2285 28.963 18.2916 29.3919 18.4161C29.4212 18.4245 29.4521 18.426 29.482 18.4205C29.512 18.415 29.5403 18.4027 29.5646 18.3845C29.589 18.3664 29.6087 18.3428 29.6223 18.3158C29.6359 18.2887 29.6429 18.2589 29.6429 18.2287V14.7251C29.6429 14.0023 29.3531 13.3092 28.8374 12.7982C28.3217 12.2871 27.6222 12 26.8929 12Z" fill="#67524F"/>
</svg>
