<svg width="43" height="43" viewBox="0 0 43 43" fill="none" xmlns="http://www.w3.org/2000/svg">
<rect width="43" height="43" rx="7" fill="#FAE9C5"/>
<path d="M33.3284 19.8738L33.3267 19.8721L23.1277 9.67446C22.6929 9.2395 22.1149 9 21.5002 9C20.8854 9 20.3074 9.23936 19.8725 9.67427L9.6787 19.8667C9.67528 19.8701 9.67186 19.8737 9.66844 19.8772C8.77567 20.775 8.77724 22.2316 9.67284 23.1271C10.082 23.5364 10.6224 23.7735 11.2002 23.7983C11.2236 23.8006 11.2473 23.8017 11.2711 23.8017H11.6776V31.3066C11.6776 32.7917 12.8861 34 14.3717 34H18.3618C18.7662 34 19.0943 33.6721 19.0943 33.2676V27.3838C19.0943 26.7061 19.6456 26.1549 20.3234 26.1549H22.6769C23.3547 26.1549 23.9059 26.7062 23.9059 27.3838V33.2676C23.9059 33.6721 24.2338 34 24.6384 34H28.6286C30.1142 34 31.3227 32.7917 31.3227 31.3066V23.8018H31.6996C32.3142 23.8018 32.8922 23.5624 33.3273 23.1275C34.2239 22.2305 34.2242 20.7714 33.3284 19.8738Z" fill="#67524F"/>
</svg>
