<svg width="43" height="43" viewBox="0 0 43 43" fill="none" xmlns="http://www.w3.org/2000/svg">
<rect width="43" height="43" rx="7" fill="#FAE9C5"/>
<path d="M33 28.9375C33 29.2193 32.8899 29.4895 32.6938 29.6888C32.4977 29.8881 32.2318 30 31.9545 30H19.4091C19.1318 30 18.8659 29.8881 18.6698 29.6888C18.4738 29.4895 18.3636 29.2193 18.3636 28.9375C18.3636 27.2467 19.0245 25.6252 20.2009 24.4297C21.3772 23.2341 22.9727 22.5625 24.6364 22.5625H26.7273C28.3909 22.5625 29.9864 23.2341 31.1628 24.4297C32.3391 25.6252 33 27.2467 33 28.9375ZM25.6818 13C24.8547 13 24.0462 13.2493 23.3585 13.7163C22.6708 14.1832 22.1348 14.847 21.8183 15.6236C21.5018 16.4002 21.419 17.2547 21.5804 18.0791C21.7417 18.9036 22.14 19.6608 22.7248 20.2552C23.3097 20.8496 24.0548 21.2544 24.866 21.4183C25.6772 21.5823 26.518 21.4982 27.2821 21.1765C28.0463 20.8548 28.6994 20.3101 29.1589 19.6112C29.6184 18.9123 29.8636 18.0906 29.8636 17.25C29.8636 16.1228 29.4231 15.0418 28.6388 14.2448C27.8546 13.4478 26.7909 13 25.6818 13ZM16.2727 13C15.4456 13 14.6371 13.2493 13.9494 13.7163C13.2617 14.1832 12.7257 14.847 12.4092 15.6236C12.0927 16.4002 12.0099 17.2547 12.1713 18.0791C12.3326 18.9036 12.7309 19.6608 13.3157 20.2552C13.9006 20.8496 14.6457 21.2544 15.4569 21.4183C16.2681 21.5823 17.1089 21.4982 17.873 21.1765C18.6372 20.8548 19.2903 20.3101 19.7498 19.6112C20.2093 18.9123 20.4545 18.0906 20.4545 17.25C20.4545 16.1228 20.014 15.0418 19.2297 14.2448C18.4455 13.4478 17.3818 13 16.2727 13ZM16.2727 28.9375C16.2712 27.8215 16.4875 26.7162 16.9092 25.6857C17.331 24.6553 17.9497 23.7201 18.7295 22.9344C18.0913 22.6895 17.4149 22.5635 16.7327 22.5625H15.8127C14.2719 22.5653 12.7951 23.1886 11.7056 24.2959C10.6161 25.4031 10.0028 26.9041 10 28.47V28.9375C10 29.2193 10.1101 29.4895 10.3062 29.6888C10.5023 29.8881 10.7682 30 11.0455 30H16.4609C16.3392 29.6593 16.2756 29.3 16.2727 28.9375Z" fill="#67524F"/>
</svg>
