<svg width="24" height="24" viewBox="0 0 24 24" fill="none" xmlns="http://www.w3.org/2000/svg">
<path d="M11.9998 3.00003C10.4904 2.99853 9.00497 3.37718 7.6805 4.10103C6.35602 4.82488 5.23517 5.87063 4.42133 7.14179C3.6075 8.41296 3.1269 9.86861 3.02386 11.3745C2.92082 12.8803 3.19867 14.3879 3.83177 15.758C4.03137 16.2066 4.05283 16.7142 3.89177 17.178L3.05177 19.678C2.99399 19.8548 2.98631 20.0442 3.02958 20.2251C3.07284 20.406 3.16537 20.5714 3.2969 20.7029C3.42842 20.8344 3.59381 20.927 3.77471 20.9702C3.95562 21.0135 4.14497 21.0058 4.32177 20.948L6.82177 20.108C7.28555 19.947 7.79323 19.9684 8.24177 20.168C9.46436 20.7337 10.7983 21.0177 12.1453 20.9991C13.4923 20.9805 14.8179 20.6598 16.0244 20.0606C17.231 19.4614 18.2876 18.599 19.1163 17.537C19.9451 16.475 20.5249 15.2404 20.8129 13.9245C21.101 12.6085 21.09 11.2447 20.7807 9.93358C20.4714 8.62245 19.8717 7.39748 19.0258 6.34902C18.18 5.30055 17.1096 4.45534 15.8936 3.87571C14.6775 3.29608 13.3469 2.99683 11.9998 3.00003ZM12.7488 15C12.7488 15.1989 12.6698 15.3897 12.5291 15.5304C12.3885 15.671 12.1977 15.75 11.9988 15.75C11.7999 15.75 11.6091 15.671 11.4684 15.5304C11.3278 15.3897 11.2488 15.1989 11.2488 15V12C11.2488 11.8011 11.3278 11.6103 11.4684 11.4697C11.6091 11.329 11.7999 11.25 11.9988 11.25C12.1977 11.25 12.3885 11.329 12.5291 11.4697C12.6698 11.6103 12.7488 11.8011 12.7488 12V15ZM12.0188 10C11.8875 10.0007 11.7573 9.97547 11.6357 9.92582C11.5141 9.87617 11.4035 9.80306 11.3102 9.71067C11.1217 9.52407 11.0151 9.27024 11.0138 9.00503C11.0124 8.73981 11.1165 8.48493 11.3031 8.29645C11.4897 8.10798 11.7436 8.00135 12.0088 8.00003H12.0188C12.284 8.00003 12.5383 8.10538 12.7259 8.29292C12.9134 8.48045 13.0188 8.73481 13.0188 9.00003C13.0188 9.26524 12.9134 9.5196 12.7259 9.70713C12.5383 9.89467 12.284 10 12.0188 10Z" fill="#2EB300"/>
</svg>
