<svg width="35" height="36" viewBox="0 0 35 36" fill="none" xmlns="http://www.w3.org/2000/svg">
<rect x="0.669922" y="0.5" width="33.8302" height="34" stroke="black"/>
<line y1="-0.5" x2="35.9733" y2="-0.5" transform="matrix(-0.708835 0.705374 -0.70192 -0.712256 25.5 0)" stroke="black"/>
<line y1="-0.5" x2="35.9757" y2="-0.5" transform="matrix(-0.701912 0.712264 -0.708843 -0.705366 34.209 8.75)" stroke="black"/>
<line x1="34.3543" y1="27.6136" x2="27.4389" y2="34.5573" stroke="black"/>
<line x1="7.35527" y1="0.612567" x2="0.523876" y2="7.51092" stroke="black"/>
<line y1="-0.5" x2="12.5204" y2="-0.5" transform="matrix(0.707646 0.706567 -0.703118 0.711074 18.377 7.95435)" stroke="black"/>
<line y1="-0.5" x2="12.5204" y2="-0.5" transform="matrix(0.707646 0.706567 -0.703118 0.711074 18.377 7.95435)" stroke="black"/>
<line y1="-0.5" x2="12.915" y2="-0.5" transform="matrix(0.735515 0.677508 -0.673938 0.738788 17.584 26.25)" stroke="black"/>
<line y1="-0.5" x2="12.5204" y2="-0.5" transform="matrix(0.707646 0.706567 -0.703118 0.711074 0.169922 7.95435)" stroke="black"/>
</svg>
