<svg width="34" height="34" viewBox="0 0 34 34" fill="none" xmlns="http://www.w3.org/2000/svg">
<rect x="0.837158" y="0.758057" width="33.075" height="33.075" rx="6.3" fill="#FAE9C5"/>
<g clip-path="url(#clip0_492_267)">
<path d="M16.9902 7.05408H16.9711C12.1098 7.05408 8.16711 10.9951 8.16711 15.8581C8.16711 21.2937 13.8498 27.0379 16.6165 28.2418C16.7324 28.2922 16.8574 28.3181 16.9838 28.3181C17.1102 28.3181 17.2352 28.2922 17.3511 28.2418C20.1169 27.0375 25.7909 21.2933 25.7909 15.8581C25.7926 10.9951 21.8515 7.05408 16.9902 7.05408ZM16.9807 18.8066C16.3647 18.8066 15.7625 18.6239 15.2503 18.2817C14.7381 17.9394 14.3389 17.453 14.1031 16.8839C13.8674 16.3148 13.8057 15.6885 13.9259 15.0843C14.0461 14.4802 14.3427 13.9252 14.7783 13.4896C15.2139 13.054 15.7689 12.7574 16.373 12.6372C16.9772 12.517 17.6035 12.5787 18.1726 12.8144C18.7417 13.0502 19.2281 13.4494 19.5704 13.9616C19.9126 14.4738 20.0953 15.076 20.0953 15.692C20.0953 16.101 20.0147 16.506 19.8582 16.8839C19.7017 17.2618 19.4723 17.6051 19.183 17.8943C18.8938 18.1836 18.5505 18.413 18.1726 18.5695C17.7947 18.726 17.3897 18.8066 16.9807 18.8066Z" fill="#67524F"/>
</g>
<defs>
<clipPath id="clip0_492_267">
<rect width="21.2625" height="21.2625" fill="white" transform="translate(6.34924 7.05725)"/>
</clipPath>
</defs>
</svg>
