<svg width="34" height="34" viewBox="0 0 34 34" fill="none" xmlns="http://www.w3.org/2000/svg">
<rect x="0.836914" y="0.884521" width="33.075" height="33.075" rx="6.3" fill="#67524F"/>
<g clip-path="url(#clip0_548_232)">
<path d="M16.9901 7.18054H16.971C12.1097 7.18054 8.16699 11.1216 8.16699 15.9845C8.16699 21.4202 13.8497 27.1644 16.6163 28.3683C16.7323 28.4186 16.8573 28.4446 16.9837 28.4446C17.11 28.4446 17.2351 28.4186 17.351 28.3683C20.1168 27.164 25.7908 21.4198 25.7908 15.9845C25.7924 11.1216 21.8514 7.18054 16.9901 7.18054ZM16.9805 18.9331C16.3645 18.9331 15.7624 18.7504 15.2502 18.4081C14.738 18.0659 14.3387 17.5795 14.103 17.0103C13.8673 16.4412 13.8056 15.815 13.9258 15.2108C14.0459 14.6066 14.3426 14.0516 14.7782 13.6161C15.2138 13.1805 15.7687 12.8838 16.3729 12.7637C16.9771 12.6435 17.6033 12.7052 18.1725 12.9409C18.7416 13.1766 19.228 13.5758 19.5703 14.088C19.9125 14.6002 20.0952 15.2024 20.0952 15.8184C20.0952 16.2275 20.0146 16.6325 19.8581 17.0103C19.7016 17.3882 19.4721 17.7316 19.1829 18.0208C18.8937 18.31 18.5503 18.5394 18.1725 18.696C17.7946 18.8525 17.3896 18.9331 16.9805 18.9331Z" fill="#FAE9C5"/>
</g>
<defs>
<clipPath id="clip0_548_232">
<rect width="21.2625" height="21.2625" fill="white" transform="translate(6.34912 7.18372)"/>
</clipPath>
</defs>
</svg>
