<svg width="76" height="79" viewBox="0 0 76 79" fill="none" xmlns="http://www.w3.org/2000/svg">
<path d="M34.8371 39.3264C34.686 39.4991 34.5133 39.6502 34.3837 39.8445C34.0706 40.298 33.736 40.4167 33.3042 39.9957C33.207 39.8985 33.0559 39.8661 32.8508 39.8877C33.0235 40.0281 33.1962 40.1684 33.3797 40.2872C33.6496 40.4707 33.736 40.6542 33.5201 40.9457C32.4405 42.4139 32.6348 42.4139 31.1775 41.5826C29.4178 40.5786 28.2411 39.0133 27.3451 37.232C26.5786 35.7315 26.0064 34.1661 25.7905 32.4928C25.7689 32.3633 25.7581 32.2445 25.7581 32.115C25.715 31.1758 25.8445 31.0462 26.7729 30.9275C27.1615 30.8735 27.2803 31.0247 27.3019 31.3809C27.3235 31.8235 27.3991 32.2769 27.4854 32.7087C27.5394 32.9678 27.6689 33.2053 27.8956 33.4428C27.8956 33.2701 27.8848 33.1082 27.8633 32.9355C27.8093 32.4173 27.7553 31.8991 27.7013 31.3809C27.6581 30.9275 27.9064 30.744 28.3275 30.7008C28.8133 30.6468 29.299 30.5712 29.7848 30.4957C29.7848 30.4417 29.7848 30.3769 29.7741 30.323H27.9064C27.8956 30.0099 27.8848 29.7508 27.8633 29.5025C27.8309 29.5025 27.8093 29.5025 27.7769 29.4917C27.7445 29.5781 27.7229 29.6752 27.6905 29.7616C27.5286 30.2798 26.5138 30.6576 26.1036 30.323C25.9741 30.215 25.9417 29.9343 25.9417 29.74C25.9417 28.3042 26.503 27.0519 27.2587 25.8644C28.09 24.5582 29.2667 23.619 30.5081 22.7553C31.5229 22.0428 32.5593 21.3627 33.5956 20.6826C33.8439 20.5207 34.1354 20.4343 34.4809 20.2832C34.5456 20.8877 34.6212 21.4059 34.632 21.9133C34.632 22.0752 34.4701 22.2911 34.3189 22.3883C33.6712 22.8093 33.0019 23.198 32.3542 23.6082C32.203 23.7053 32.0843 23.8565 31.9979 24.04C32.84 23.5326 33.6712 23.0144 34.6104 22.4423C34.7076 23.2303 34.7831 23.8241 34.8587 24.4286C34.9343 24.4286 35.0098 24.4286 35.0746 24.4286C35.0746 24.0832 35.0962 23.7377 35.0746 23.3923C35.0314 22.7877 35.0098 22.2048 35.9167 22.1724C35.8951 22.1292 35.8627 22.0752 35.8411 22.032C35.6684 22.0105 35.5064 21.9781 35.2581 21.9457C35.2581 21.3951 35.2473 20.823 35.2689 20.2508C35.2689 20.1428 35.4309 19.9809 35.5496 19.9377C35.7871 19.8514 36.0354 19.819 36.2837 19.7974C38.486 19.6355 40.6775 19.7002 42.8042 20.3588C43.4951 20.5747 44.0996 21.0389 44.7473 21.3843C45.028 21.5355 45.0388 21.7622 44.9417 22.0213C44.8985 22.14 44.8337 22.248 44.7689 22.3559C44.4091 23.0036 43.9053 23.162 43.2576 22.8309C43.1388 22.7769 43.0093 22.7445 42.8473 22.7769C43.0093 22.8849 43.1604 22.9928 43.3331 23.09C43.9809 23.4786 44.0348 23.6406 43.6462 24.2883C43.3655 24.7525 43.0633 25.1951 42.7934 25.6593C42.6962 25.8213 42.6422 26.0048 42.5667 26.1775C42.9661 26.3502 43.3223 26.5014 43.6678 26.6525C43.6894 26.6309 43.7218 26.5985 43.7434 26.5769C43.657 26.469 43.603 26.2963 43.4843 26.2531C43.074 26.0588 43.1172 25.8105 43.3655 25.5406C43.7865 25.0548 44.24 24.6014 44.6394 24.1048C44.8661 23.8349 44.9848 23.4786 45.2223 23.2195C45.924 22.4531 46.14 22.4531 46.9172 23.1224C49.0115 24.9252 49.9723 27.2894 50.361 29.9451C50.5013 30.9059 50.4905 30.9059 49.357 31.3701C49.6377 31.4673 49.9292 31.5536 50.1883 31.6832C50.3502 31.7695 50.5769 31.9315 50.5877 32.0718C50.6633 33.9394 50.5553 35.7747 49.5621 37.448C49.3246 37.8474 49.0979 37.9337 48.7093 37.7934C48.0831 37.5667 47.457 37.3508 46.8309 37.1241C46.7337 37.0917 46.6258 37.1025 46.4854 37.1781C47.2087 37.6315 47.9428 38.0957 48.7525 38.6139C46.7877 40.5462 44.7797 42.2519 42.2644 43.4718C42.1348 42.8889 41.8542 42.3707 41.9513 41.9389C42.0377 41.561 42.5451 41.2695 42.7286 41.0752C42.4803 41.1184 41.9729 41.0752 41.5843 41.2911C39.2633 42.5326 37.115 41.6798 34.9559 40.8269C34.578 40.6758 34.3945 40.4815 34.6752 40.0605C34.8155 39.8553 34.8695 39.5747 34.9559 39.3372C34.9127 39.3156 34.8695 39.294 34.8155 39.2724L34.8371 39.3264ZM42.6206 38.0417C43.0417 37.7934 43.5598 37.6423 43.8729 37.2968C46.5502 34.4576 46.615 31.8883 45.449 28.8116C45.3195 28.4769 45.082 28.1855 44.8877 27.8724L44.7258 27.9587C44.7905 28.1207 44.8445 28.2934 44.9309 28.4553C45.6973 29.8803 46.0212 31.3917 45.7297 32.9894C45.3843 34.9002 44.6502 36.6059 42.8473 37.6315C42.7286 37.6962 42.6962 37.9014 42.6206 38.0525C42.286 38.1497 41.9297 38.236 41.6059 38.3656C40.5695 38.7866 39.49 39.0457 38.378 38.8622C37.5036 38.711 36.6508 38.398 35.7871 38.1605C35.6576 38.1281 35.528 38.0957 35.3985 38.0633C35.3769 38.1173 35.3553 38.1605 35.3229 38.2144C35.5928 38.3548 35.8411 38.5275 36.1218 38.6355C38.011 39.3372 39.911 39.5747 41.8002 38.6462C42.0809 38.5059 42.599 38.5815 42.6098 38.0417H42.6206ZM35.2473 27.5809C35.2905 27.6349 35.3337 27.6889 35.3769 27.7428C35.4633 27.7213 35.5604 27.7105 35.6144 27.6673C37.3525 26.2531 40.3212 26.782 41.9621 28.2934C43.6678 29.8588 43.657 33.1298 42.5775 34.4144C42.2644 34.7815 41.9189 35.1161 41.6059 35.4832C40.5803 36.6707 38.3241 37.2212 37.007 36.444C35.9922 35.8502 35.107 35.0514 34.1786 34.3065C33.9519 34.123 33.8008 33.8315 33.6172 33.594C33.5848 33.6264 33.5525 33.6587 33.5201 33.6911C34.4377 35.3752 35.7655 36.6059 37.6979 36.9622C40.8286 37.5235 43.765 35.0514 43.6786 31.8775C43.6246 29.9451 42.9985 28.2394 41.0121 27.257C39.382 26.4474 37.8059 26.307 36.1434 26.9332C35.8087 27.0627 35.5388 27.365 35.2473 27.5917V27.5809ZM32.8184 36.2605C32.8615 36.2281 32.9047 36.1957 32.9479 36.1633C32.8831 36.0553 32.8184 35.9582 32.7644 35.8502C32.311 34.8247 31.6201 33.8315 31.4473 32.7519C31.1127 30.582 32.0411 28.7144 33.4229 27.0627C34.5133 25.7565 35.8519 24.8928 37.5792 24.9144C38.6587 24.9252 39.7383 25.1519 40.8178 25.2923C41.1093 25.3355 41.4008 25.4002 41.6922 25.465C41.7138 25.3786 41.7246 25.2923 41.7462 25.2059C41.0229 25.0332 40.3104 24.8173 39.5871 24.6769C37.1258 24.2019 35.0098 24.7741 33.3258 26.7173C32.7104 27.4298 32.257 28.2178 31.836 29.0707C31.1235 30.4849 30.8428 31.9099 31.2098 33.432C31.4689 34.5224 31.9979 35.4832 32.8184 36.2605ZM37.6115 29.2218C39.1013 29.2758 40.6451 29.2974 40.9797 31.1866C41.2712 32.8275 40.6343 33.9934 38.799 34.5224C39.6519 34.7275 40.6127 34.1337 41.0661 33.3241C41.7786 32.0286 41.4871 30.6252 40.2456 29.4701C39.6303 28.898 38.3241 28.7252 37.6008 29.2218H37.6115ZM42.6422 22.669C42.0917 21.8161 38.0218 21.2008 37.2877 21.9241C39.2093 21.5678 40.8394 22.3991 42.6422 22.669ZM39.2417 32.7627C39.7167 32.4928 39.8894 31.7803 39.6735 31.3053C39.4576 30.8411 38.4104 30.4417 37.8706 30.6252C37.3525 30.8088 37.061 31.3161 37.2229 31.8883C37.6116 31.3269 37.9678 30.6684 38.7451 30.9815C39.5547 31.3053 39.436 32.0286 39.2417 32.7627ZM33.4661 30.744C32.9479 31.4997 32.9587 32.8059 33.4661 33.432V30.744ZM37.0178 34.2849C36.6615 33.8855 36.1542 33.3349 35.7008 32.8383C35.7008 33.3673 36.6076 34.2633 37.0178 34.2849ZM32.4513 39.5962L32.5809 39.4019C32.0843 39.0565 31.5769 38.7002 31.0803 38.3548C31.0371 38.4087 31.0047 38.4627 30.9616 38.5167C31.3718 38.9917 31.8252 39.3911 32.4405 39.5962H32.4513ZM45.2115 24.3207C45.19 24.3531 45.1684 24.3747 45.1468 24.407C45.6326 24.8713 46.1184 25.3355 46.6042 25.7997C46.615 25.7781 46.6365 25.7673 46.6473 25.7457C46.1615 25.2707 45.6865 24.7957 45.2008 24.3207H45.2115ZM33.8979 29.2218L34.1354 29.3945C34.4053 29.0059 34.6644 28.6281 34.9343 28.2394C34.8695 28.1855 34.7939 28.1423 34.7292 28.0883L33.8871 29.211L33.8979 29.2218ZM44.4559 40.0605C44.4883 40.1036 44.5206 40.1468 44.5638 40.1792L46.2911 38.8082C46.2587 38.765 46.2263 38.7218 46.1939 38.6786C45.611 39.132 45.0388 39.5962 44.4559 40.0497V40.0605Z" fill="#FAE9C5"/>
<path d="M67.7737 44.8101C68.2271 44.1084 68.6265 43.4823 69.0368 42.8561C69.5765 42.0249 70.0839 41.1828 70.6561 40.3732C70.9799 39.909 70.926 39.5959 70.5049 39.2289C67.7521 36.7675 65.0208 34.2954 62.2896 31.8232C57.7339 27.7209 53.1782 23.6187 48.6226 19.5164C45.5674 16.7635 42.5123 13.9999 39.4356 11.2579C39.1873 11.0312 38.7771 10.934 38.4209 10.88C37.1902 10.6857 36.251 11.0743 35.3118 11.9704C30.5078 16.5476 25.6066 21.0277 20.7487 25.5402C15.7828 30.1499 10.8061 34.7596 5.84017 39.3692C5.23563 39.9198 5.24642 39.963 5.60267 40.7079C6.35836 42.3056 7.10324 43.9033 7.84813 45.4902C7.88051 45.5658 7.90211 45.6522 7.96688 45.8465C7.24359 45.5982 6.58506 45.3715 5.93733 45.1448C4.29642 44.5618 2.65552 43.9789 1.00381 43.4175C0.496427 43.2448 0.302107 42.9749 0.334494 42.4243C0.399267 41.2584 0.420857 40.0817 0.388471 38.9158C0.36688 38.2249 0.636768 37.7823 1.16575 37.3721C4.16688 34.9971 7.15722 32.6005 10.1476 30.2039C18.8271 23.2732 27.5174 16.3317 36.1862 9.39024C36.6288 9.04479 37.0714 8.93683 37.6112 8.89365C38.6476 8.80729 39.4356 9.16354 40.2561 9.80047C50.976 18.2533 61.7174 26.6738 72.4481 35.105C73.3225 35.7959 74.197 36.4868 75.0822 37.1669C75.4601 37.4476 75.6436 37.8039 75.6544 38.2681C75.6544 39.5419 75.676 40.8266 75.676 42.1005C75.676 42.5107 75.5464 42.8238 75.0822 42.9425C72.8044 43.5363 70.5265 44.1516 68.2487 44.7561C68.1299 44.7885 68.0112 44.7777 67.8061 44.7993L67.7737 44.8101Z" fill="#FAE9C5"/>
<path d="M70.2677 55.9086C70.5484 55.0989 70.7859 54.2677 71.1098 53.4796C71.412 52.7347 71.7359 51.9898 72.1461 51.2881C72.7291 50.2842 73.6035 49.712 74.8234 49.8092C75.1796 49.8415 75.5359 49.8092 75.9569 49.8092C75.9677 50.0467 75.9893 50.2302 75.9893 50.4245C75.9893 54.6023 75.9893 58.7694 76.0001 62.9472C76.0001 63.4546 75.849 63.6058 75.3632 63.5734C74.7046 63.541 74.0353 63.5518 73.366 63.5734C72.9558 63.595 72.8478 63.433 72.8478 63.0444C72.8694 61.1336 72.8478 59.2336 72.8478 57.3228C72.8478 57.1393 72.837 56.945 72.7399 56.7398C72.4268 57.5495 72.1137 58.3592 71.8007 59.1688C71.3365 60.3779 70.7643 61.533 69.9439 62.5586C69.1882 63.5086 68.2166 63.6813 67.0723 63.4978V49.7984C68.0223 49.7984 68.9291 49.7768 69.8359 49.82C69.9439 49.82 70.1166 50.133 70.1274 50.3058C70.149 51.9251 70.1382 53.5444 70.1382 55.1637C70.1382 55.4012 70.1382 55.6279 70.1382 55.8654C70.1814 55.8654 70.2245 55.8762 70.2677 55.887V55.9086Z" fill="#FAE9C5"/>
<path d="M0 63.6259V49.7969H8.17216V53.7696C7.26534 53.7696 6.36932 53.7696 5.4733 53.7588C5.37614 53.7588 5.225 53.5537 5.20341 53.4241C5.13864 52.9815 4.89034 52.8628 4.49091 52.906C4.26421 52.9276 4.01591 52.8844 3.78921 52.9168C3.54091 52.9491 3.18466 52.7332 3.1091 53.2082C3.00114 53.8991 3.07671 54.0503 3.64887 54.2122C4.82557 54.5577 5.99148 54.9571 6.95227 55.7452C9.28409 57.6884 8.7875 61.4991 6.05625 62.8486C4.96591 63.3884 3.78921 63.5287 2.60171 63.5935C1.75966 63.6366 0.917614 63.5935 0 63.5935V63.6259ZM3.16307 60.4844C3.75682 60.3009 4.30739 60.1929 4.78239 59.9554C5.40853 59.6315 5.51648 58.6276 4.95512 58.2065C4.44773 57.8287 3.82159 57.602 3.17387 57.2781V60.4844H3.16307Z" fill="#FAE9C5"/>
<path d="M30.4323 57.6586V63.5853C29.4499 63.5853 28.5215 63.5853 27.5931 63.5745C27.5067 63.5745 27.3772 63.4234 27.334 63.3154C27.2908 63.2074 27.3232 63.0671 27.3232 62.9376C27.3232 58.7813 27.3232 54.6359 27.3124 50.4796C27.3124 49.9722 27.4419 49.7671 27.9709 49.8103C28.5755 49.8535 29.1908 49.8427 29.8061 49.8103C30.2811 49.7779 30.4647 49.9074 30.4539 50.4256C30.4107 51.6131 30.4539 52.8006 30.4323 53.9881C30.4323 54.366 30.5294 54.5387 30.9289 54.5603C31.501 54.5927 32.0732 54.6898 32.7425 54.7654V49.8211C33.7573 49.8211 34.6641 49.8211 35.5817 49.8319C35.6789 49.8319 35.8084 50.0046 35.8624 50.1234C35.9056 50.2313 35.8624 50.3716 35.8624 50.5012C35.8624 54.5819 35.8624 58.6626 35.8624 62.7432C35.8624 62.9915 35.8624 63.2398 35.8624 63.5637C34.8692 63.5637 33.9192 63.5745 32.98 63.5421C32.8936 63.5421 32.7641 63.2182 32.7533 63.0455C32.7317 61.5341 32.7209 60.0228 32.7533 58.5114C32.7533 58.058 32.6237 57.8637 32.1703 57.8313C31.6198 57.7989 31.0692 57.7126 30.4215 57.6478L30.4323 57.6586Z" fill="#FAE9C5"/>
<path d="M56.9134 60.5704V63.5284H53.8799V49.8289C54.8191 49.8289 55.7475 49.8289 56.6759 49.8505C56.7623 49.8505 56.9134 50.088 56.9242 50.2284C56.9458 50.8977 56.9242 51.5562 56.935 52.2255C56.935 52.4198 56.9566 52.6034 56.9674 52.8409C57.7555 52.7113 58.2736 52.2903 58.5543 51.6318C58.7594 51.1784 58.835 50.671 59.0077 50.196C59.0617 50.0448 59.2236 49.8397 59.3424 49.8397C60.26 49.8073 61.1668 49.8181 62.2464 49.8181C62.0736 50.6278 61.9981 51.3943 61.7498 52.1068C61.0265 54.2227 59.5907 55.5937 57.3236 55.9715C57.0106 56.0255 56.9134 56.1443 56.9134 56.4573C56.9134 57.2778 56.8918 57.2778 57.6691 57.4613C60.206 58.0767 61.5015 59.8363 62.0197 62.2869C62.106 62.6755 62.1276 63.0642 62.2032 63.5607C61.1668 63.5607 60.1952 63.5607 59.2128 63.5392C59.1373 63.5392 59.0509 63.3124 58.9969 63.1721C58.781 62.5892 58.6299 61.9738 58.3384 61.4232C58.0685 60.9267 57.5935 60.6244 56.9026 60.5596L56.9134 60.5704Z" fill="#FAE9C5"/>
<path d="M16.0851 63.5509H12.8896C13.0408 62.6117 13.1271 61.6833 13.3323 60.798C13.8073 58.7469 14.9192 56.998 15.9987 55.2276C16.8516 53.8242 17.6612 52.3992 17.8124 50.7151C17.834 50.4452 17.8448 50.1861 17.8556 49.8299C18.8164 49.8299 19.7664 49.8191 20.7056 49.8514C20.8027 49.8514 20.9431 50.1645 20.9646 50.348C21.1806 52.356 21.3641 54.3531 21.5692 56.3611C21.7743 58.477 21.9902 60.5821 22.1953 62.698C22.2169 62.9679 22.2385 63.227 22.2601 63.5401H19.2374C19.205 63.4861 19.1834 63.4645 19.1726 63.4321C19.0503 62.6836 18.6004 62.3094 17.8232 62.3094C17.4669 62.3094 17.0999 62.3418 16.7436 62.3094C16.2902 62.2662 16.1283 62.4605 16.1499 62.8924C16.1499 63.1083 16.1175 63.3134 16.0959 63.5617L16.0851 63.5509ZM18.7624 59.2975C18.676 58.4554 18.5896 57.6889 18.5141 56.9225C18.4601 56.9225 18.4061 56.9009 18.3521 56.8901C17.9419 57.6674 17.5317 58.4446 17.0891 59.2867H18.7624V59.2975Z" fill="#FAE9C5"/>
<path d="M41.6381 49.8516H44.704C44.65 50.8771 44.6284 51.8703 44.5313 52.8635C44.4665 53.6084 44.4233 53.6084 45.1142 53.7919C47.4353 54.4072 48.8603 56.2641 48.9574 58.9197C49.0114 60.334 48.979 61.759 48.9574 63.184C48.9574 63.3243 48.7847 63.5726 48.6875 63.5726C47.0574 63.5834 45.4057 63.6374 43.862 62.968C41.7784 62.0612 40.7637 60.3987 40.7637 58.2072C40.7637 56.6419 41.0659 55.0658 41.2387 53.5004C41.3682 52.3129 41.4978 51.1146 41.6381 49.8516ZM45.7836 60.226C45.9995 58.3908 45.5677 56.8146 43.9699 56.8146C43.5273 58.9089 44.3046 60.1072 45.7836 60.226Z" fill="#FAE9C5"/>
<path d="M61.0484 22.2481C60.3359 21.8163 59.9257 21.1254 59.591 20.3913C58.5978 18.2646 58.6302 16.0731 59.2564 13.86C59.7098 12.2515 60.2819 10.6754 60.6706 9.05604C61.2427 6.61626 60.8109 4.27365 59.6774 2.04979C59.3643 1.43445 59.062 0.797515 58.7598 0.171379C58.7922 0.138992 58.8245 0.106605 58.8569 0.0742188C59.0944 0.246946 59.3427 0.387288 59.5586 0.581606C62.6029 3.43161 63.6501 6.87536 62.495 10.9129C62.0848 12.3486 61.5774 13.7521 61.0484 15.1447C60.4546 16.7532 60.4547 18.3725 60.8109 20.0242C60.962 20.7367 61.0808 21.46 61.2103 22.1833C61.1564 22.2049 61.1024 22.2265 61.0592 22.2481H61.0484Z" fill="#FAE9C5"/>
<path d="M23.3831 70.9563C23.6854 70.9563 23.9553 70.9779 24.2252 70.9563C24.6678 70.9131 24.8189 71.0642 24.8081 71.5284C24.7865 73.1585 24.8189 74.7994 24.7865 76.4404C24.7757 76.9801 24.9161 77.1636 25.4667 77.1421C26.4598 77.0881 26.3411 77.2392 26.3411 76.2784C26.3411 74.7347 26.3411 73.1909 26.3411 71.6364C26.3411 71.4421 26.3411 71.2477 26.3411 70.9671C26.7621 70.9671 27.14 70.9455 27.507 70.9886C27.615 70.9994 27.7769 71.2154 27.7769 71.3341C27.7985 73.5796 27.7985 75.825 27.7769 78.0705C27.7769 78.2 27.5826 78.4267 27.4638 78.4375C25.132 78.4591 22.8002 78.4483 20.3928 78.4483C20.382 78.2 20.3604 77.9949 20.3604 77.7898C20.3604 75.7063 20.3712 73.6227 20.3496 71.5392C20.3496 71.0858 20.49 70.9131 20.9326 70.9671C21.0513 70.9779 21.1809 70.9779 21.3104 70.9671C21.6882 70.9239 21.807 71.0966 21.7962 71.4636C21.7854 73.1693 21.7962 74.875 21.7746 76.5915C21.7746 77.0233 21.9042 77.1636 22.3252 77.1421C23.4911 77.0989 23.3292 77.304 23.34 76.1489C23.34 74.6375 23.34 73.1261 23.34 71.6148C23.34 71.4205 23.3615 71.2261 23.3723 70.9779L23.3831 70.9563Z" fill="#FAE9C5"/>
<path d="M43.0959 78.4384V74.0123C43.0527 74.0015 42.9987 73.9907 42.9556 73.9799C42.6749 74.4873 42.3834 74.9947 42.1027 75.4912C41.9516 75.7611 41.8652 76.0634 41.4226 76.0634C41.0124 76.0634 40.926 75.7719 40.7857 75.5236C40.4942 75.0162 40.2027 74.4981 39.8357 73.8395C39.8033 74.1094 39.7709 74.239 39.7709 74.3577C39.7709 75.5452 39.7493 76.7327 39.7709 77.9202C39.7709 78.352 39.6414 78.4708 39.2203 78.46C38.1408 78.4276 38.3243 78.5248 38.3243 77.5748C38.3135 75.5992 38.3135 73.6236 38.3243 71.6481C38.3243 71.4214 38.4862 71.0111 38.5618 71.0111C39.0044 71.0327 39.5334 70.6981 39.8573 71.3134C40.2999 72.1555 40.7749 72.9759 41.2391 73.8072C41.2823 73.8827 41.3363 73.9475 41.4334 74.0986C41.7573 73.5373 42.0487 73.0407 42.3402 72.5225C42.5561 72.1339 42.7397 71.7128 42.9988 71.3458C43.1283 71.1623 43.3982 70.9788 43.6141 70.968C44.7368 70.9356 44.5533 70.86 44.5641 71.8964C44.5641 73.8503 44.5425 75.8151 44.5857 77.7691C44.5965 78.3412 44.4129 78.514 43.884 78.4384C43.6573 78.406 43.4198 78.4384 43.1175 78.4384H43.0959Z" fill="#FAE9C5"/>
<path d="M54.6254 71.0097C54.6362 71.0097 54.6578 70.9881 54.6686 70.9881C55.5466 70.8657 55.9856 71.24 55.9856 72.1108C55.9856 73.2011 55.9856 74.2915 56.1044 75.4358C56.2015 75.2847 56.3095 75.1335 56.3958 74.9716C56.9788 73.9244 57.5725 72.8665 58.1555 71.8193C58.6953 70.8369 58.7492 70.8046 59.9367 71.0205V78.4046H58.5549V74.0216C58.5117 74.0108 58.4578 73.9892 58.4146 73.9784C58.231 74.2699 58.0475 74.5614 57.8748 74.8636C57.281 75.9324 56.6873 77.0011 56.0935 78.0699C55.91 78.3938 54.96 78.6205 54.6686 78.3938C54.593 78.3398 54.5498 78.2102 54.5498 78.1131C54.5498 75.7813 54.5498 73.4386 54.5714 71.1068C54.5714 71.0744 54.6038 71.0421 54.6254 71.0097Z" fill="#FAE9C5"/>
<path d="M14.5197 78.3521C14.4657 78.3845 14.4549 78.3953 14.4333 78.4061C13.5553 78.5212 13.1162 78.1434 13.1162 77.2726C13.1162 76.8839 13.1162 76.4953 13.1162 76.0743H10.5685C10.5685 76.7112 10.5469 77.3158 10.5685 77.9203C10.5901 78.3089 10.4822 78.4709 10.0611 78.4493C9.00318 78.4061 9.14352 78.5896 9.13273 77.5425C9.13273 76.5061 9.12193 75.4589 9.13273 74.4226C9.15432 73.3214 9.45659 72.2959 10.0935 71.3891C10.2986 71.0976 10.5145 70.9464 10.8924 70.9572C11.4969 70.9896 12.1123 70.9788 12.7276 70.9572C13.1162 70.9356 13.3645 71.076 13.5805 71.3891C14.1094 72.1447 14.4441 72.9976 14.4873 73.8936C14.552 75.3726 14.5089 76.8623 14.5089 78.3737L14.5197 78.3521ZM13.2242 74.6493C13.0191 73.9044 12.868 73.2567 12.6413 72.6305C12.5765 72.4686 12.2634 72.3067 12.0691 72.3067C11.7344 72.3067 11.3026 72.1016 11.0651 72.5658C10.7412 73.2135 10.5793 73.8936 10.6117 74.6601H13.2242V74.6493Z" fill="#FAE9C5"/>
<path d="M6.27225 78.3954C5.36543 78.5106 4.91202 78.1291 4.91202 77.2511C4.91202 76.8733 4.91202 76.5062 4.91202 76.0852H2.3643C2.3643 76.6466 2.33191 77.2187 2.3643 77.7801C2.39668 78.2767 2.26714 78.525 1.71657 78.4494C1.48986 78.417 1.25236 78.4494 0.97168 78.4494V70.9789C1.32793 70.9789 1.70577 70.9358 2.06202 71.0005C2.18077 71.0221 2.3427 71.292 2.3427 71.4431C2.37509 72.3068 2.3535 73.1704 2.3535 74.0341C2.3535 74.2284 2.3535 74.4227 2.3535 74.6602H4.90123C4.90123 73.6238 4.90123 72.6306 4.90123 71.6267C4.90123 71.4216 4.9768 71.0437 5.06316 71.0329C5.441 70.9789 5.84043 71.0221 6.22907 71.0437C6.27225 71.0437 6.31543 71.2272 6.31543 71.3244C6.31543 73.6454 6.31543 75.9556 6.31543 78.2767C6.31543 78.3091 6.29384 78.3414 6.26145 78.4062L6.27225 78.3954Z" fill="#FAE9C5"/>
<path d="M68.2917 78.4256C67.7735 78.4256 67.3417 78.4472 66.9315 78.4148C66.8127 78.4148 66.6724 78.2529 66.5968 78.1233C66.2406 77.5404 65.9059 76.9466 65.5713 76.3529C65.4201 76.083 65.2798 76.029 64.9775 76.1369C64.4161 76.3205 64.157 76.5904 64.1894 77.2489C64.2542 78.5767 64.211 78.5767 62.8832 78.4148C62.8616 78.4148 62.8508 78.3932 62.8076 78.3716V70.9659C63.1639 70.9659 63.4877 70.9767 63.8008 70.9659C64.1355 70.9443 64.2326 71.1063 64.2326 71.4193C64.2218 72.4125 64.2326 73.3949 64.2326 74.3881C64.2326 74.5608 64.2326 74.7443 64.2326 74.9279C65.4417 74.8091 65.9167 74.0966 66.3161 72.6824C66.4349 72.2722 66.4457 71.8296 66.4673 71.3977C66.4781 71.0631 66.6076 70.9767 66.9207 70.9659C68.0002 70.9335 68.0218 70.9335 67.9031 72.0023C67.7843 73.0171 67.4605 73.9671 66.7803 74.7551C66.5212 75.0574 66.5212 75.2841 66.7156 75.608C67.169 76.3421 67.5792 77.0977 68.0002 77.8534C68.0974 78.0154 68.173 78.1881 68.3025 78.4472L68.2917 78.4256Z" fill="#FAE9C5"/>
<path d="M51.9368 70.9473V72.2751C51.0407 72.2751 50.1879 72.2967 49.3243 72.2751C48.8924 72.2535 48.7521 72.4047 48.7737 72.8257C48.8061 73.3115 48.7953 73.7973 48.7737 74.2831C48.7737 74.5853 48.8816 74.7041 49.1839 74.6933C49.864 74.6825 50.5441 74.6933 51.3106 74.6933C51.3106 75.0927 51.343 75.449 51.289 75.7944C51.2782 75.8916 51.0515 76.0319 50.922 76.0319C50.3822 76.0643 49.8424 76.0751 49.3027 76.0319C48.8493 75.9995 48.7737 76.1939 48.7629 76.5933C48.7521 77.0359 48.9248 77.1439 49.335 77.1223C50.1771 77.1007 51.0191 77.1223 51.926 77.1223V78.4069H47.3703C47.3595 78.2342 47.3379 78.0615 47.3379 77.8887C47.3379 75.762 47.3379 73.6461 47.3379 71.5194C47.3379 71.1092 47.4243 70.9473 47.8669 70.9581C49.2163 70.9904 50.5549 70.9581 51.9476 70.9581L51.9368 70.9473Z" fill="#FAE9C5"/>
<path d="M75.2228 72.2845C74.262 72.2845 73.3768 72.2953 72.5024 72.2845C72.1353 72.2845 71.9842 72.3925 72.0058 72.7703C72.0274 73.3749 72.0058 73.9902 72.0058 74.6919C72.6535 74.6919 73.258 74.6919 73.8626 74.6919C74.3376 74.6919 74.5751 74.9222 74.5751 75.3828C74.5751 75.5771 74.5751 75.7715 74.5751 76.0413C73.8518 76.0413 73.1717 76.0629 72.5024 76.0413C72.0705 76.0198 71.995 76.2141 71.995 76.5811C71.995 76.9482 72.049 77.1425 72.4916 77.1317C73.2472 77.0993 74.0029 77.1317 74.7586 77.1209C75.1041 77.1209 75.266 77.2181 75.2228 77.5851C75.2012 77.747 75.212 77.909 75.2228 78.0709C75.2444 78.3408 75.1365 78.4595 74.8558 78.4595C73.5603 78.4595 72.2649 78.4595 70.9694 78.4379C70.8399 78.4379 70.6024 78.2436 70.6024 78.1357C70.5808 75.7823 70.5916 73.4288 70.5916 71.0107C70.8183 70.9891 71.0018 70.9675 71.1961 70.9675C72.3296 70.9675 73.4632 70.9891 74.5967 70.9567C75.1365 70.9351 75.3092 71.1294 75.2444 71.626C75.2228 71.8203 75.2444 72.0146 75.2444 72.2953L75.2228 72.2845Z" fill="#FAE9C5"/>
<path d="M35.9921 70.958C35.4739 73.1819 35.4631 75.4166 34.1677 77.3166C33.6171 78.1262 32.991 78.6336 31.9438 78.4501C31.5984 78.3853 31.2313 78.4501 30.8319 78.4501V77.1654C31.6739 77.0035 32.7427 77.4893 33.1637 76.1938C32.7967 76.0967 32.4296 75.9563 32.0518 75.9024C31.6523 75.8484 31.4256 75.6217 31.2205 75.3086C30.3893 74.0024 30.2381 72.5666 30.2597 70.9796C30.6807 70.9796 31.0694 70.9473 31.4472 71.0012C31.5552 71.012 31.6739 71.2711 31.6955 71.433C31.8035 72.1455 31.8575 72.858 31.9762 73.5598C32.1273 74.4882 32.6563 74.9955 33.7143 74.9308C33.7682 74.7257 33.8654 74.4882 33.9086 74.2291C34.0705 73.3223 34.2432 72.4262 34.3728 71.5194C34.4268 71.0984 34.5779 70.9041 35.0205 70.958C35.3012 70.9904 35.5927 70.958 36.0029 70.958H35.9921Z" fill="#FAE9C5"/>
<path d="M64.6218 7.26367C66.1008 8.31083 66.9213 9.63867 67.1588 11.3336C67.3423 12.6614 66.9861 13.8921 66.5111 15.112C66.3707 15.479 66.2412 15.8569 66.0684 16.2131C65.4639 17.4762 65.1616 18.7716 65.3667 20.1858C65.4207 20.5637 65.3667 20.9631 65.3667 21.4597C64.6111 21.0171 64.2764 20.3801 64.1361 19.6461C63.823 18.0267 64.1361 16.4722 64.8378 15.0364C65.6474 13.3847 65.7446 11.7546 65.2588 10.0165C65.0105 9.12049 64.827 8.21367 64.6111 7.27447L64.6218 7.26367Z" fill="#FAE9C5"/>
<path d="M55.5425 3.90625C56.2765 4.2517 56.7084 4.68352 56.989 5.23409C57.939 7.08011 58.1549 8.98011 57.3345 10.9449C56.4709 12.996 55.8339 15.1011 55.7692 17.3466C55.7692 17.433 55.726 17.5085 55.7044 17.6273C55.1754 17.4869 54.9703 17.0983 54.8084 16.6773C54.4197 15.6625 54.4953 14.6153 54.7436 13.6006C54.9703 12.6614 55.251 11.7222 55.6396 10.8477C56.4601 9.0125 56.6112 7.19886 55.9095 5.29886C55.7584 4.89943 55.6936 4.46761 55.5532 3.90625H55.5425Z" fill="#FAE9C5"/>
<path d="M34.254 40.7617C36.6614 41.9924 39.004 42.6725 41.6273 41.8521C41.6273 42.4782 41.6812 42.9856 41.6057 43.4714C41.5733 43.6765 41.2818 43.968 41.0551 44.0111C38.6261 44.4754 36.3051 44.1083 34.1352 42.9208C33.9841 42.8344 33.8222 42.543 33.8437 42.3702C33.9193 41.8736 34.0812 41.3879 34.254 40.7617Z" fill="#FAE9C5"/>
<path d="M58.8349 69.0248C58.8133 69.8776 58.1548 70.493 57.3128 70.5146C56.4276 70.5362 55.7366 69.9424 55.6719 69.0572C56.1361 69.068 56.6543 68.7873 56.9457 69.4566C56.9781 69.543 57.5287 69.543 57.5611 69.4566C57.831 68.7981 58.3491 69.0788 58.8349 69.0356V69.0248Z" fill="#FAE9C5"/>
</svg>
