<svg width="76" height="79" viewBox="0 0 76 79" fill="none" xmlns="http://www.w3.org/2000/svg">
<path d="M34.8371 39.3281C34.686 39.5008 34.5133 39.6519 34.3837 39.8463C34.0706 40.2997 33.736 40.4184 33.3042 39.9974C33.207 39.9002 33.0559 39.8678 32.8508 39.8894C33.0235 40.0298 33.1962 40.1701 33.3797 40.2889C33.6496 40.4724 33.736 40.6559 33.5201 40.9474C32.4405 42.4156 32.6348 42.4156 31.1775 41.5843C29.4178 40.5803 28.2411 39.015 27.3451 37.2338C26.5786 35.7332 26.0064 34.1678 25.7905 32.4945C25.7689 32.365 25.7581 32.2463 25.7581 32.1167C25.715 31.1775 25.8445 31.048 26.7729 30.9292C27.1615 30.8752 27.2803 31.0264 27.3019 31.3826C27.3235 31.8252 27.3991 32.2786 27.4854 32.7105C27.5394 32.9695 27.6689 33.207 27.8956 33.4445C27.8956 33.2718 27.8848 33.1099 27.8633 32.9372C27.8093 32.419 27.7553 31.9008 27.7013 31.3826C27.6581 30.9292 27.9064 30.7457 28.3275 30.7025C28.8133 30.6485 29.299 30.573 29.7848 30.4974C29.7848 30.4434 29.7848 30.3786 29.7741 30.3247H27.9064C27.8956 30.0116 27.8848 29.7525 27.8633 29.5042C27.8309 29.5042 27.8093 29.5042 27.7769 29.4934C27.7445 29.5798 27.7229 29.6769 27.6905 29.7633C27.5286 30.2815 26.5138 30.6593 26.1036 30.3247C25.9741 30.2167 25.9417 29.936 25.9417 29.7417C25.9417 28.3059 26.503 27.0536 27.2587 25.8661C28.09 24.5599 29.2667 23.6207 30.5081 22.7571C31.5229 22.0446 32.5593 21.3644 33.5956 20.6843C33.8439 20.5224 34.1354 20.436 34.4809 20.2849C34.5456 20.8894 34.6212 21.4076 34.632 21.915C34.632 22.0769 34.4701 22.2928 34.3189 22.39C33.6712 22.811 33.0019 23.1997 32.3542 23.6099C32.203 23.7071 32.0843 23.8582 31.9979 24.0417C32.84 23.5343 33.6712 23.0161 34.6104 22.444C34.7076 23.2321 34.7831 23.8258 34.8587 24.4303C34.9343 24.4303 35.0098 24.4303 35.0746 24.4303C35.0746 24.0849 35.0962 23.7394 35.0746 23.394C35.0314 22.7894 35.0098 22.2065 35.9167 22.1741C35.8951 22.1309 35.8627 22.0769 35.8411 22.0338C35.6684 22.0122 35.5064 21.9798 35.2581 21.9474C35.2581 21.3968 35.2473 20.8247 35.2689 20.2525C35.2689 20.1446 35.4309 19.9826 35.5496 19.9394C35.7871 19.8531 36.0354 19.8207 36.2837 19.7991C38.486 19.6372 40.6775 19.7019 42.8042 20.3605C43.4951 20.5764 44.0996 21.0406 44.7473 21.386C45.028 21.5372 45.0388 21.7639 44.9417 22.023C44.8985 22.1417 44.8337 22.2497 44.7689 22.3576C44.4091 23.0053 43.9053 23.1637 43.2576 22.8326C43.1388 22.7786 43.0093 22.7463 42.8473 22.7786C43.0093 22.8866 43.1604 22.9946 43.3331 23.0917C43.9809 23.4803 44.0348 23.6423 43.6462 24.29C43.3655 24.7542 43.0633 25.1968 42.7934 25.661C42.6962 25.823 42.6422 26.0065 42.5667 26.1792C42.9661 26.3519 43.3223 26.5031 43.6678 26.6542C43.6894 26.6326 43.7218 26.6002 43.7434 26.5786C43.657 26.4707 43.603 26.298 43.4843 26.2548C43.074 26.0605 43.1172 25.8122 43.3655 25.5423C43.7865 25.0565 44.24 24.6031 44.6394 24.1065C44.8661 23.8366 44.9848 23.4803 45.2223 23.2213C45.924 22.4548 46.14 22.4548 46.9172 23.1241C49.0115 24.9269 49.9723 27.2911 50.361 29.9468C50.5013 30.9076 50.4905 30.9076 49.357 31.3718C49.6377 31.469 49.9292 31.5553 50.1883 31.6849C50.3502 31.7713 50.5769 31.9332 50.5877 32.0735C50.6633 33.9411 50.5553 35.7764 49.5621 37.4497C49.3246 37.8491 49.0979 37.9355 48.7093 37.7951C48.0831 37.5684 47.457 37.3525 46.8309 37.1258C46.7337 37.0934 46.6258 37.1042 46.4854 37.1798C47.2087 37.6332 47.9428 38.0974 48.7525 38.6156C46.7877 40.548 44.7797 42.2536 42.2644 43.4735C42.1348 42.8906 41.8542 42.3724 41.9513 41.9406C42.0377 41.5627 42.5451 41.2713 42.7286 41.0769C42.4803 41.1201 41.9729 41.0769 41.5843 41.2928C39.2633 42.5343 37.115 41.6815 34.9559 40.8286C34.578 40.6775 34.3945 40.4832 34.6752 40.0622C34.8155 39.857 34.8695 39.5764 34.9559 39.3389C34.9127 39.3173 34.8695 39.2957 34.8155 39.2741L34.8371 39.3281ZM42.6206 38.0434C43.0417 37.7951 43.5598 37.644 43.8729 37.2985C46.5502 34.4593 46.615 31.89 45.449 28.8133C45.3195 28.4786 45.082 28.1872 44.8877 27.8741L44.7258 27.9605C44.7905 28.1224 44.8445 28.2951 44.9309 28.4571C45.6973 29.8821 46.0212 31.3934 45.7297 32.9911C45.3843 34.9019 44.6502 36.6076 42.8473 37.6332C42.7286 37.698 42.6962 37.9031 42.6206 38.0542C42.286 38.1514 41.9297 38.2377 41.6059 38.3673C40.5695 38.7883 39.49 39.0474 38.378 38.8639C37.5036 38.7127 36.6508 38.3997 35.7871 38.1622C35.6576 38.1298 35.528 38.0974 35.3985 38.065C35.3769 38.119 35.3553 38.1622 35.3229 38.2161C35.5928 38.3565 35.8411 38.5292 36.1218 38.6372C38.011 39.3389 39.911 39.5764 41.8002 38.648C42.0809 38.5076 42.599 38.5832 42.6098 38.0434H42.6206ZM35.2473 27.5826C35.2905 27.6366 35.3337 27.6906 35.3769 27.7445C35.4633 27.723 35.5604 27.7122 35.6144 27.669C37.3525 26.2548 40.3212 26.7838 41.9621 28.2951C43.6678 29.8605 43.657 33.1315 42.5775 34.4161C42.2644 34.7832 41.9189 35.1178 41.6059 35.4849C40.5803 36.6724 38.3241 37.223 37.007 36.4457C35.9922 35.8519 35.107 35.0531 34.1786 34.3082C33.9519 34.1247 33.8008 33.8332 33.6172 33.5957C33.5848 33.6281 33.5525 33.6605 33.5201 33.6928C34.4377 35.3769 35.7655 36.6076 37.6979 36.9639C40.8286 37.5252 43.765 35.0531 43.6786 31.8792C43.6246 29.9468 42.9985 28.2411 41.0121 27.2588C39.382 26.4491 37.8059 26.3088 36.1434 26.9349C35.8087 27.0644 35.5388 27.3667 35.2473 27.5934V27.5826ZM32.8184 36.2622C32.8615 36.2298 32.9047 36.1974 32.9479 36.165C32.8831 36.057 32.8184 35.9599 32.7644 35.8519C32.311 34.8264 31.6201 33.8332 31.4473 32.7536C31.1127 30.5838 32.0411 28.7161 33.4229 27.0644C34.5133 25.7582 35.8519 24.8946 37.5792 24.9161C38.6587 24.9269 39.7383 25.1536 40.8178 25.294C41.1093 25.3372 41.4008 25.4019 41.6922 25.4667C41.7138 25.3803 41.7246 25.294 41.7462 25.2076C41.0229 25.0349 40.3104 24.819 39.5871 24.6786C37.1258 24.2036 35.0098 24.7758 33.3258 26.719C32.7104 27.4315 32.257 28.2196 31.836 29.0724C31.1235 30.4866 30.8428 31.9116 31.2098 33.4338C31.4689 34.5241 31.9979 35.4849 32.8184 36.2622ZM37.6115 29.2235C39.1013 29.2775 40.6451 29.2991 40.9797 31.1883C41.2712 32.8292 40.6343 33.9951 38.799 34.5241C39.6519 34.7292 40.6127 34.1355 41.0661 33.3258C41.7786 32.0303 41.4871 30.6269 40.2456 29.4718C39.6303 28.8997 38.3241 28.7269 37.6008 29.2235H37.6115ZM42.6422 22.6707C42.0917 21.8178 38.0218 21.2025 37.2877 21.9258C39.2093 21.5696 40.8394 22.4008 42.6422 22.6707ZM39.2417 32.7644C39.7167 32.4945 39.8894 31.782 39.6735 31.307C39.4576 30.8428 38.4104 30.4434 37.8706 30.6269C37.3525 30.8105 37.061 31.3178 37.2229 31.89C37.6116 31.3286 37.9678 30.6701 38.7451 30.9832C39.5547 31.307 39.436 32.0303 39.2417 32.7644ZM33.4661 30.7457C32.9479 31.5014 32.9587 32.8076 33.4661 33.4338V30.7457ZM37.0178 34.2866C36.6615 33.8872 36.1542 33.3366 35.7008 32.84C35.7008 33.369 36.6076 34.265 37.0178 34.2866ZM32.4513 39.598L32.5809 39.4036C32.0843 39.0582 31.5769 38.7019 31.0803 38.3565C31.0371 38.4105 31.0047 38.4644 30.9616 38.5184C31.3718 38.9934 31.8252 39.3928 32.4405 39.598H32.4513ZM45.2115 24.3224C45.19 24.3548 45.1684 24.3764 45.1468 24.4088C45.6326 24.873 46.1184 25.3372 46.6042 25.8014C46.615 25.7798 46.6365 25.769 46.6473 25.7474C46.1615 25.2724 45.6865 24.7974 45.2008 24.3224H45.2115ZM33.8979 29.2235L34.1354 29.3963C34.4053 29.0076 34.6644 28.6298 34.9343 28.2411C34.8695 28.1872 34.7939 28.144 34.7292 28.09L33.8871 29.2127L33.8979 29.2235ZM44.4559 40.0622C44.4883 40.1053 44.5206 40.1485 44.5638 40.1809L46.2911 38.8099C46.2587 38.7667 46.2263 38.7235 46.1939 38.6803C45.611 39.1338 45.0388 39.598 44.4559 40.0514V40.0622Z" fill="white"/>
<path d="M67.7737 44.8113C68.2271 44.1096 68.6265 43.4835 69.0368 42.8574C69.5765 42.0261 70.0839 41.1841 70.6561 40.3744C70.9799 39.9102 70.926 39.5971 70.5049 39.2301C67.7521 36.7687 65.0208 34.2966 62.2896 31.8244C57.7339 27.7221 53.1782 23.6199 48.6226 19.5176C45.5674 16.7648 42.5123 14.0011 39.4356 11.2591C39.1873 11.0324 38.7771 10.9352 38.4209 10.8812C37.1902 10.6869 36.251 11.0756 35.3118 11.9716C30.5078 16.5488 25.6066 21.029 20.7487 25.5415C15.7828 30.1511 10.8061 34.7608 5.84017 39.3704C5.23563 39.921 5.24642 39.9642 5.60267 40.7091C6.35836 42.3068 7.10324 43.9045 7.84813 45.4915C7.88051 45.567 7.90211 45.6534 7.96688 45.8477C7.24359 45.5994 6.58506 45.3727 5.93733 45.146C4.29642 44.563 2.65552 43.9801 1.00381 43.4187C0.496427 43.246 0.302107 42.9761 0.334494 42.4255C0.399267 41.2596 0.420857 40.0829 0.388471 38.917C0.36688 38.2261 0.636768 37.7835 1.16575 37.3733C4.16688 34.9983 7.15722 32.6017 10.1476 30.2051C18.8271 23.2744 27.5174 16.3329 36.1862 9.39146C36.6288 9.04601 37.0714 8.93806 37.6112 8.89487C38.6476 8.80851 39.4356 9.16476 40.2561 9.80169C50.976 18.2545 61.7174 26.675 72.4481 35.1062C73.3225 35.7971 74.197 36.488 75.0822 37.1682C75.4601 37.4488 75.6436 37.8051 75.6544 38.2693C75.6544 39.5432 75.676 40.8278 75.676 42.1017C75.676 42.5119 75.5464 42.825 75.0822 42.9437C72.8044 43.5375 70.5265 44.1528 68.2487 44.7574C68.1299 44.7898 68.0112 44.779 67.8061 44.8005L67.7737 44.8113Z" fill="white"/>
<path d="M70.2677 55.9086C70.5484 55.0989 70.7859 54.2677 71.1098 53.4796C71.412 52.7347 71.7359 51.9898 72.1461 51.2881C72.7291 50.2842 73.6035 49.712 74.8234 49.8092C75.1796 49.8415 75.5359 49.8092 75.9569 49.8092C75.9677 50.0467 75.9893 50.2302 75.9893 50.4245C75.9893 54.6023 75.9893 58.7694 76.0001 62.9472C76.0001 63.4546 75.849 63.6058 75.3632 63.5734C74.7046 63.541 74.0353 63.5518 73.366 63.5734C72.9558 63.595 72.8478 63.433 72.8478 63.0444C72.8694 61.1336 72.8478 59.2336 72.8478 57.3228C72.8478 57.1393 72.837 56.945 72.7399 56.7398C72.4268 57.5495 72.1137 58.3592 71.8007 59.1688C71.3365 60.3779 70.7643 61.533 69.9439 62.5586C69.1882 63.5086 68.2166 63.6813 67.0723 63.4978V49.7984C68.0223 49.7984 68.9291 49.7768 69.8359 49.82C69.9439 49.82 70.1166 50.133 70.1274 50.3058C70.149 51.9251 70.1382 53.5444 70.1382 55.1637C70.1382 55.4012 70.1382 55.6279 70.1382 55.8654C70.1814 55.8654 70.2245 55.8762 70.2677 55.887V55.9086Z" fill="white"/>
<path d="M0 63.6278V49.7988H8.17216V53.7716C7.26534 53.7716 6.36932 53.7716 5.4733 53.7608C5.37614 53.7608 5.225 53.5556 5.20341 53.4261C5.13864 52.9835 4.89034 52.8647 4.49091 52.9079C4.26421 52.9295 4.01591 52.8863 3.78921 52.9187C3.54091 52.9511 3.18466 52.7352 3.1091 53.2102C3.00114 53.9011 3.07671 54.0522 3.64887 54.2142C4.82557 54.5596 5.99148 54.9591 6.95227 55.7471C9.28409 57.6903 8.7875 61.5011 6.05625 62.8505C4.96591 63.3903 3.78921 63.5306 2.60171 63.5954C1.75966 63.6386 0.917614 63.5954 0 63.5954V63.6278ZM3.16307 60.4863C3.75682 60.3028 4.30739 60.1949 4.78239 59.9574C5.40853 59.6335 5.51648 58.6295 4.95512 58.2085C4.44773 57.8306 3.82159 57.6039 3.17387 57.2801V60.4863H3.16307Z" fill="white"/>
<path d="M30.4323 57.6586V63.5853C29.4499 63.5853 28.5215 63.5853 27.5931 63.5745C27.5067 63.5745 27.3772 63.4234 27.334 63.3154C27.2908 63.2074 27.3232 63.0671 27.3232 62.9376C27.3232 58.7813 27.3232 54.6359 27.3124 50.4796C27.3124 49.9722 27.4419 49.7671 27.9709 49.8103C28.5755 49.8535 29.1908 49.8427 29.8061 49.8103C30.2811 49.7779 30.4647 49.9074 30.4539 50.4256C30.4107 51.6131 30.4539 52.8006 30.4323 53.9881C30.4323 54.366 30.5294 54.5387 30.9289 54.5603C31.501 54.5927 32.0732 54.6898 32.7425 54.7654V49.8211C33.7573 49.8211 34.6641 49.8211 35.5817 49.8319C35.6789 49.8319 35.8084 50.0046 35.8624 50.1234C35.9056 50.2313 35.8624 50.3716 35.8624 50.5012C35.8624 54.5819 35.8624 58.6626 35.8624 62.7432C35.8624 62.9915 35.8624 63.2398 35.8624 63.5637C34.8692 63.5637 33.9192 63.5745 32.98 63.5421C32.8936 63.5421 32.7641 63.2182 32.7533 63.0455C32.7317 61.5341 32.7209 60.0228 32.7533 58.5114C32.7533 58.058 32.6237 57.8637 32.1703 57.8313C31.6198 57.7989 31.0692 57.7126 30.4215 57.6478L30.4323 57.6586Z" fill="white"/>
<path d="M56.9134 60.5724V63.5303H53.8799V49.8309C54.8191 49.8309 55.7475 49.8309 56.6759 49.8525C56.7623 49.8525 56.9134 50.09 56.9242 50.2303C56.9458 50.8996 56.9242 51.5582 56.935 52.2275C56.935 52.4218 56.9566 52.6053 56.9674 52.8428C57.7555 52.7133 58.2736 52.2922 58.5543 51.6337C58.7594 51.1803 58.835 50.6729 59.0077 50.1979C59.0617 50.0468 59.2236 49.8417 59.3424 49.8417C60.26 49.8093 61.1668 49.8201 62.2464 49.8201C62.0736 50.6297 61.9981 51.3962 61.7498 52.1087C61.0265 54.2246 59.5907 55.5957 57.3236 55.9735C57.0106 56.0275 56.9134 56.1462 56.9134 56.4593C56.9134 57.2797 56.8918 57.2797 57.6691 57.4633C60.206 58.0786 61.5015 59.8383 62.0197 62.2888C62.106 62.6775 62.1276 63.0661 62.2032 63.5627C61.1668 63.5627 60.1952 63.5627 59.2128 63.5411C59.1373 63.5411 59.0509 63.3144 58.9969 63.1741C58.781 62.5911 58.6299 61.9758 58.3384 61.4252C58.0685 60.9286 57.5935 60.6263 56.9026 60.5616L56.9134 60.5724Z" fill="white"/>
<path d="M16.0851 63.5519H12.8896C13.0408 62.6126 13.1271 61.6842 13.3323 60.799C13.8073 58.7479 14.9192 56.999 15.9987 55.2286C16.8516 53.8251 17.6612 52.4001 17.8124 50.7161C17.834 50.4462 17.8448 50.1871 17.8556 49.8308C18.8164 49.8308 19.7664 49.82 20.7056 49.8524C20.8027 49.8524 20.9431 50.1655 20.9646 50.349C21.1806 52.357 21.3641 54.3541 21.5692 56.3621C21.7743 58.478 21.9902 60.5831 22.1953 62.699C22.2169 62.9689 22.2385 63.228 22.2601 63.5411H19.2374C19.205 63.4871 19.1834 63.4655 19.1726 63.4331C19.0503 62.6846 18.6004 62.3104 17.8232 62.3104C17.4669 62.3104 17.0999 62.3428 16.7436 62.3104C16.2902 62.2672 16.1283 62.4615 16.1499 62.8933C16.1499 63.1092 16.1175 63.3144 16.0959 63.5626L16.0851 63.5519ZM18.7624 59.2984C18.676 58.4564 18.5896 57.6899 18.5141 56.9234C18.4601 56.9234 18.4061 56.9019 18.3521 56.8911C17.9419 57.6683 17.5317 58.4456 17.0891 59.2876H18.7624V59.2984Z" fill="white"/>
<path d="M41.6381 49.8525H44.704C44.65 50.8781 44.6284 51.8713 44.5313 52.8645C44.4665 53.6094 44.4233 53.6094 45.1142 53.7929C47.4353 54.4082 48.8603 56.265 48.9574 58.9207C49.0114 60.3349 48.979 61.7599 48.9574 63.1849C48.9574 63.3253 48.7847 63.5736 48.6875 63.5736C47.0574 63.5844 45.4057 63.6383 43.862 62.969C41.7784 62.0622 40.7637 60.3997 40.7637 58.2082C40.7637 56.6429 41.0659 55.0667 41.2387 53.5014C41.3682 52.3139 41.4978 51.1156 41.6381 49.8525ZM45.7836 60.227C45.9995 58.3917 45.5677 56.8156 43.9699 56.8156C43.5273 58.9099 44.3046 60.1082 45.7836 60.227Z" fill="white"/>
<path d="M61.0484 22.2488C60.3359 21.817 59.9257 21.1261 59.591 20.392C58.5978 18.2653 58.6302 16.0738 59.2564 13.8607C59.7098 12.2522 60.2819 10.6761 60.6706 9.05677C61.2427 6.617 60.8109 4.27438 59.6774 2.05052C59.3643 1.43518 59.062 0.798248 58.7598 0.172111C58.7922 0.139725 58.8245 0.107338 58.8569 0.0749512C59.0944 0.247678 59.3427 0.388021 59.5586 0.582339C62.6029 3.43234 63.6501 6.87609 62.495 10.9136C62.0848 12.3494 61.5774 13.7528 61.0484 15.1454C60.4546 16.7539 60.4547 18.3732 60.8109 20.0249C60.962 20.7374 61.0808 21.4607 61.2103 22.184C61.1564 22.2056 61.1024 22.2272 61.0592 22.2488H61.0484Z" fill="white"/>
<path d="M23.3831 70.9582C23.6854 70.9582 23.9553 70.9798 24.2252 70.9582C24.6678 70.915 24.8189 71.0662 24.8081 71.5304C24.7865 73.1605 24.8189 74.8014 24.7865 76.4423C24.7757 76.9821 24.9161 77.1656 25.4667 77.144C26.4598 77.09 26.3411 77.2412 26.3411 76.2804C26.3411 74.7366 26.3411 73.1929 26.3411 71.6383C26.3411 71.444 26.3411 71.2497 26.3411 70.969C26.7621 70.969 27.14 70.9474 27.507 70.9906C27.615 71.0014 27.7769 71.2173 27.7769 71.3361C27.7985 73.5815 27.7985 75.827 27.7769 78.0724C27.7769 78.202 27.5826 78.4287 27.4638 78.4395C25.132 78.4611 22.8002 78.4503 20.3928 78.4503C20.382 78.202 20.3604 77.9968 20.3604 77.7917C20.3604 75.7082 20.3712 73.6247 20.3496 71.5412C20.3496 71.0878 20.49 70.915 20.9326 70.969C21.0513 70.9798 21.1809 70.9798 21.3104 70.969C21.6882 70.9258 21.807 71.0986 21.7962 71.4656C21.7854 73.1713 21.7962 74.877 21.7746 76.5934C21.7746 77.0253 21.9042 77.1656 22.3252 77.144C23.4911 77.1008 23.3292 77.3059 23.34 76.1508C23.34 74.6395 23.34 73.1281 23.34 71.6167C23.34 71.4224 23.3615 71.2281 23.3723 70.9798L23.3831 70.9582Z" fill="white"/>
<path d="M43.0959 78.4394V74.0132C43.0527 74.0025 42.9987 73.9917 42.9556 73.9809C42.6749 74.4882 42.3834 74.9956 42.1027 75.4922C41.9516 75.7621 41.8652 76.0644 41.4226 76.0644C41.0124 76.0644 40.926 75.7729 40.7857 75.5246C40.4942 75.0172 40.2027 74.499 39.8357 73.8405C39.8033 74.1104 39.7709 74.24 39.7709 74.3587C39.7709 75.5462 39.7493 76.7337 39.7709 77.9212C39.7709 78.353 39.6414 78.4718 39.2203 78.461C38.1408 78.4286 38.3243 78.5257 38.3243 77.5757C38.3135 75.6002 38.3135 73.6246 38.3243 71.649C38.3243 71.4223 38.4862 71.0121 38.5618 71.0121C39.0044 71.0337 39.5334 70.699 39.8573 71.3144C40.2999 72.1564 40.7749 72.9769 41.2391 73.8081C41.2823 73.8837 41.3363 73.9485 41.4334 74.0996C41.7573 73.5382 42.0487 73.0417 42.3402 72.5235C42.5561 72.1348 42.7397 71.7138 42.9988 71.3468C43.1283 71.1632 43.3982 70.9797 43.6141 70.9689C44.7368 70.9365 44.5533 70.861 44.5641 71.8973C44.5641 73.8513 44.5425 75.8161 44.5857 77.7701C44.5965 78.3422 44.4129 78.515 43.884 78.4394C43.6573 78.407 43.4198 78.4394 43.1175 78.4394H43.0959Z" fill="white"/>
<path d="M54.6254 71.0116C54.6362 71.0116 54.6578 70.99 54.6686 70.99C55.5466 70.8677 55.9856 71.2419 55.9856 72.1128C55.9856 73.2031 55.9856 74.2934 56.1044 75.4378C56.2015 75.2866 56.3095 75.1355 56.3958 74.9736C56.9788 73.9264 57.5725 72.8684 58.1555 71.8213C58.6953 70.8389 58.7492 70.8065 59.9367 71.0224V78.4065H58.5549V74.0236C58.5117 74.0128 58.4578 73.9912 58.4146 73.9804C58.231 74.2718 58.0475 74.5633 57.8748 74.8656C57.281 75.9344 56.6873 77.0031 56.0935 78.0719C55.91 78.3957 54.96 78.6224 54.6686 78.3957C54.593 78.3417 54.5498 78.2122 54.5498 78.115C54.5498 75.7832 54.5498 73.4406 54.5714 71.1088C54.5714 71.0764 54.6038 71.044 54.6254 71.0116Z" fill="white"/>
<path d="M14.5197 78.3531C14.4657 78.3855 14.4549 78.3963 14.4333 78.4071C13.5553 78.5222 13.1162 78.1444 13.1162 77.2736C13.1162 76.8849 13.1162 76.4963 13.1162 76.0753H10.5685C10.5685 76.7122 10.5469 77.3167 10.5685 77.9213C10.5901 78.3099 10.4822 78.4718 10.0611 78.4503C9.00318 78.4071 9.14352 78.5906 9.13273 77.5434C9.13273 76.5071 9.12193 75.4599 9.13273 74.4236C9.15432 73.3224 9.45659 72.2968 10.0935 71.39C10.2986 71.0986 10.5145 70.9474 10.8924 70.9582C11.4969 70.9906 12.1123 70.9798 12.7276 70.9582C13.1162 70.9366 13.3645 71.077 13.5805 71.39C14.1094 72.1457 14.4441 72.9986 14.4873 73.8946C14.552 75.3736 14.5089 76.8633 14.5089 78.3747L14.5197 78.3531ZM13.2242 74.6503C13.0191 73.9054 12.868 73.2576 12.6413 72.6315C12.5765 72.4696 12.2634 72.3076 12.0691 72.3076C11.7344 72.3076 11.3026 72.1025 11.0651 72.5667C10.7412 73.2145 10.5793 73.8946 10.6117 74.661H13.2242V74.6503Z" fill="white"/>
<path d="M6.27225 78.3957C5.36543 78.5108 4.91202 78.1294 4.91202 77.2513C4.91202 76.8735 4.91202 76.5065 4.91202 76.0854H2.3643C2.3643 76.6468 2.33191 77.219 2.3643 77.7803C2.39668 78.2769 2.26714 78.5252 1.71657 78.4496C1.48986 78.4173 1.25236 78.4496 0.97168 78.4496V70.9792C1.32793 70.9792 1.70577 70.936 2.06202 71.0008C2.18077 71.0224 2.3427 71.2923 2.3427 71.4434C2.37509 72.307 2.3535 73.1707 2.3535 74.0343C2.3535 74.2286 2.3535 74.4229 2.3535 74.6604H4.90123C4.90123 73.6241 4.90123 72.6309 4.90123 71.6269C4.90123 71.4218 4.9768 71.044 5.06316 71.0332C5.441 70.9792 5.84043 71.0224 6.22907 71.044C6.27225 71.044 6.31543 71.2275 6.31543 71.3246C6.31543 73.6457 6.31543 75.9559 6.31543 78.2769C6.31543 78.3093 6.29384 78.3417 6.26145 78.4065L6.27225 78.3957Z" fill="white"/>
<path d="M68.2917 78.4275C67.7735 78.4275 67.3417 78.4491 66.9315 78.4167C66.8127 78.4167 66.6724 78.2548 66.5968 78.1253C66.2406 77.5423 65.9059 76.9486 65.5713 76.3548C65.4201 76.0849 65.2798 76.0309 64.9775 76.1389C64.4161 76.3224 64.157 76.5923 64.1894 77.2508C64.2542 78.5787 64.211 78.5787 62.8832 78.4167C62.8616 78.4167 62.8508 78.3951 62.8076 78.3736V70.9679C63.1639 70.9679 63.4877 70.9787 63.8008 70.9679C64.1355 70.9463 64.2326 71.1082 64.2326 71.4213C64.2218 72.4145 64.2326 73.3969 64.2326 74.39C64.2326 74.5628 64.2326 74.7463 64.2326 74.9298C65.4417 74.8111 65.9167 74.0986 66.3161 72.6844C66.4349 72.2741 66.4457 71.8315 66.4673 71.3997C66.4781 71.065 66.6076 70.9787 66.9207 70.9679C68.0002 70.9355 68.0218 70.9355 67.9031 72.0042C67.7843 73.019 67.4605 73.969 66.7803 74.7571C66.5212 75.0594 66.5212 75.2861 66.7156 75.6099C67.169 76.344 67.5792 77.0997 68.0002 77.8554C68.0974 78.0173 68.173 78.19 68.3025 78.4491L68.2917 78.4275Z" fill="white"/>
<path d="M51.9368 70.9475V72.2754C51.0407 72.2754 50.1879 72.2969 49.3243 72.2754C48.8924 72.2538 48.7521 72.4049 48.7737 72.8259C48.8061 73.3117 48.7953 73.7975 48.7737 74.2833C48.7737 74.5856 48.8816 74.7043 49.1839 74.6935C49.864 74.6827 50.5441 74.6935 51.3106 74.6935C51.3106 75.093 51.343 75.4492 51.289 75.7947C51.2782 75.8918 51.0515 76.0322 50.922 76.0322C50.3822 76.0646 49.8424 76.0754 49.3027 76.0322C48.8493 75.9998 48.7737 76.1941 48.7629 76.5935C48.7521 77.0361 48.9248 77.1441 49.335 77.1225C50.1771 77.1009 51.0191 77.1225 51.926 77.1225V78.4072H47.3703C47.3595 78.2344 47.3379 78.0617 47.3379 77.889C47.3379 75.7623 47.3379 73.6464 47.3379 71.5197C47.3379 71.1094 47.4243 70.9475 47.8669 70.9583C49.2163 70.9907 50.5549 70.9583 51.9476 70.9583L51.9368 70.9475Z" fill="white"/>
<path d="M75.2228 72.2855C74.262 72.2855 73.3768 72.2963 72.5024 72.2855C72.1353 72.2855 71.9842 72.3935 72.0058 72.7713C72.0274 73.3758 72.0058 73.9912 72.0058 74.6929C72.6535 74.6929 73.258 74.6929 73.8626 74.6929C74.3376 74.6929 74.5751 74.9232 74.5751 75.3838C74.5751 75.5781 74.5751 75.7724 74.5751 76.0423C73.8518 76.0423 73.1717 76.0639 72.5024 76.0423C72.0705 76.0207 71.995 76.215 71.995 76.5821C71.995 76.9491 72.049 77.1435 72.4916 77.1327C73.2472 77.1003 74.0029 77.1327 74.7586 77.1219C75.1041 77.1219 75.266 77.219 75.2228 77.5861C75.2012 77.748 75.212 77.9099 75.2228 78.0719C75.2444 78.3418 75.1365 78.4605 74.8558 78.4605C73.5603 78.4605 72.2649 78.4605 70.9694 78.4389C70.8399 78.4389 70.6024 78.2446 70.6024 78.1366C70.5808 75.7832 70.5916 73.4298 70.5916 71.0116C70.8183 70.99 71.0018 70.9685 71.1961 70.9685C72.3296 70.9685 73.4632 70.99 74.5967 70.9577C75.1365 70.9361 75.3092 71.1304 75.2444 71.627C75.2228 71.8213 75.2444 72.0156 75.2444 72.2963L75.2228 72.2855Z" fill="white"/>
<path d="M35.9921 70.958C35.4739 73.1819 35.4631 75.4166 34.1677 77.3166C33.6171 78.1262 32.991 78.6336 31.9438 78.4501C31.5984 78.3853 31.2313 78.4501 30.8319 78.4501V77.1654C31.6739 77.0035 32.7427 77.4893 33.1637 76.1938C32.7967 76.0967 32.4296 75.9563 32.0518 75.9024C31.6523 75.8484 31.4256 75.6217 31.2205 75.3086C30.3893 74.0024 30.2381 72.5666 30.2597 70.9796C30.6807 70.9796 31.0694 70.9473 31.4472 71.0012C31.5552 71.012 31.6739 71.2711 31.6955 71.433C31.8035 72.1455 31.8575 72.858 31.9762 73.5598C32.1273 74.4882 32.6563 74.9955 33.7143 74.9308C33.7682 74.7257 33.8654 74.4882 33.9086 74.2291C34.0705 73.3223 34.2432 72.4262 34.3728 71.5194C34.4268 71.0984 34.5779 70.9041 35.0205 70.958C35.3012 70.9904 35.5927 70.958 36.0029 70.958H35.9921Z" fill="white"/>
<path d="M64.6218 7.26465C66.1008 8.31181 66.9213 9.63965 67.1588 11.3345C67.3423 12.6624 66.9861 13.8931 66.5111 15.1129C66.3707 15.48 66.2412 15.8578 66.0684 16.2141C65.4639 17.4771 65.1616 18.7726 65.3667 20.1868C65.4207 20.5646 65.3667 20.9641 65.3667 21.4607C64.6111 21.0181 64.2764 20.3811 64.1361 19.647C63.823 18.0277 64.1361 16.4732 64.8378 15.0374C65.6474 13.3857 65.7446 11.7556 65.2588 10.0175C65.0105 9.12147 64.827 8.21465 64.6111 7.27544L64.6218 7.26465Z" fill="white"/>
<path d="M55.5425 3.90723C56.2765 4.25268 56.7084 4.6845 56.989 5.23507C57.939 7.08109 58.1549 8.98109 57.3345 10.9459C56.4709 12.997 55.8339 15.1021 55.7692 17.3476C55.7692 17.4339 55.726 17.5095 55.7044 17.6282C55.1754 17.4879 54.9703 17.0993 54.8084 16.6782C54.4197 15.6635 54.4953 14.6163 54.7436 13.6015C54.9703 12.6623 55.251 11.7231 55.6396 10.8487C56.4601 9.01348 56.6112 7.19984 55.9095 5.29984C55.7584 4.90041 55.6936 4.46859 55.5532 3.90723H55.5425Z" fill="white"/>
<path d="M34.254 40.7627C36.6614 41.9934 39.004 42.6735 41.6273 41.853C41.6273 42.4792 41.6812 42.9866 41.6057 43.4724C41.5733 43.6775 41.2818 43.9689 41.0551 44.0121C38.6261 44.4763 36.3051 44.1093 34.1352 42.9218C33.9841 42.8354 33.8222 42.5439 33.8437 42.3712C33.9193 41.8746 34.0812 41.3888 34.254 40.7627Z" fill="white"/>
<path d="M58.8349 69.0258C58.8133 69.8786 58.1548 70.494 57.3128 70.5155C56.4276 70.5371 55.7366 69.9434 55.6719 69.0582C56.1361 69.069 56.6543 68.7883 56.9457 69.4576C56.9781 69.544 57.5287 69.544 57.5611 69.4576C57.831 68.7991 58.3491 69.0798 58.8349 69.0366V69.0258Z" fill="white"/>
</svg>
