<svg width="150" height="157" viewBox="0 0 150 157" fill="none" xmlns="http://www.w3.org/2000/svg">
<path d="M68.7574 78.1603C68.4591 78.5012 68.1182 78.7995 67.8625 79.183C67.2446 80.0779 66.5841 80.3123 65.7318 79.4813C65.5401 79.2895 65.2418 79.2256 64.8369 79.2682C65.1779 79.5452 65.5188 79.8222 65.881 80.0566C66.4136 80.4188 66.5841 80.781 66.158 81.3563C64.0273 84.254 64.4108 84.254 61.5344 82.6134C58.0614 80.6319 55.7389 77.5424 53.9705 74.0268C52.4577 71.0651 51.3284 67.9756 50.9023 64.6731C50.8597 64.4174 50.8384 64.183 50.8384 63.9273C50.7531 62.0736 51.0088 61.8179 52.8412 61.5836C53.6082 61.477 53.8426 61.7753 53.8852 62.4785C53.9278 63.352 54.077 64.2469 54.2475 65.0992C54.354 65.6106 54.6097 66.0793 55.0571 66.5481C55.0571 66.2072 55.0358 65.8876 54.9932 65.5466C54.8867 64.5239 54.7801 63.5012 54.6736 62.4785C54.5884 61.5836 55.0784 61.2214 55.9094 61.1361C56.8682 61.0296 57.827 60.8804 58.7858 60.7313C58.7858 60.6248 58.7858 60.4969 58.7645 60.3904H55.0784C55.0571 59.7725 55.0358 59.2611 54.9932 58.7711C54.9293 58.7711 54.8867 58.7711 54.8227 58.7498C54.7588 58.9202 54.7162 59.112 54.6523 59.2824C54.3327 60.3052 52.3298 61.0509 51.5202 60.3904C51.2645 60.1773 51.2006 59.6233 51.2006 59.2398C51.2006 56.406 52.3085 53.9344 53.8 51.5907C55.4406 49.0126 57.7631 47.1589 60.2134 45.4543C62.2162 44.0481 64.2616 42.7057 66.3071 41.3634C66.7972 41.0438 67.3724 40.8733 68.0543 40.5751C68.1821 41.7682 68.3313 42.791 68.3526 43.7924C68.3526 44.112 68.033 44.5381 67.7347 44.7299C66.4563 45.5608 65.1352 46.3279 63.8568 47.1376C63.5585 47.3293 63.3242 47.6276 63.1537 47.9898C64.8156 46.9884 66.4563 45.9657 68.3099 44.8364C68.5017 46.3918 68.6509 47.5637 68.8 48.7569C68.9492 48.7569 69.0983 48.7569 69.2261 48.7569C69.2261 48.0751 69.2688 47.3932 69.2261 46.7114C69.1409 45.5182 69.0983 44.3677 70.8881 44.3037C70.8455 44.2185 70.7815 44.112 70.7389 44.0268C70.398 43.9841 70.0784 43.9202 69.5884 43.8563C69.5884 42.7697 69.567 41.6404 69.6097 40.5111C69.6097 40.2981 69.9293 39.9785 70.1636 39.8932C70.6324 39.7228 71.1224 39.6589 71.6125 39.6162C75.9591 39.2966 80.2844 39.4245 84.4818 40.7242C85.8455 41.1503 87.0386 42.0665 88.317 42.7483C88.871 43.0466 88.8923 43.4941 88.7006 44.0055C88.6153 44.2398 88.4875 44.4529 88.3597 44.666C87.6494 45.9444 86.6551 46.2569 85.3767 45.6035C85.1423 45.4969 84.8867 45.433 84.567 45.4969C84.8867 45.71 85.1849 45.9231 85.5259 46.1148C86.8043 46.8819 86.9108 47.2015 86.1438 48.4799C85.5898 49.3961 84.9932 50.2697 84.4605 51.1858C84.2688 51.5054 84.1622 51.8677 84.0131 52.2086C84.8014 52.5495 85.5045 52.8478 86.1864 53.1461C86.229 53.1035 86.2929 53.0395 86.3355 52.9969C86.1651 52.7839 86.0585 52.4429 85.8242 52.3577C85.0145 51.9742 85.0997 51.4841 85.5898 50.9515C86.4207 49.9927 87.3156 49.0978 88.104 48.1177C88.5514 47.585 88.7858 46.8819 89.2545 46.3705C90.6395 44.8577 91.0656 44.8577 92.5997 46.1787C96.7332 49.737 98.6295 54.4032 99.3966 59.6447C99.6736 61.541 99.6523 61.541 97.4151 62.4572C97.969 62.6489 98.5443 62.8194 99.0557 63.075C99.3753 63.2455 99.8227 63.5651 99.844 63.8421C99.9932 67.5282 99.7801 71.1503 97.8199 74.4529C97.3511 75.2412 96.9037 75.4117 96.1366 75.1347C94.9009 74.6873 93.6651 74.2611 92.4293 73.8137C92.2375 73.7498 92.0244 73.7711 91.7474 73.9202C93.175 74.8151 94.6239 75.7313 96.2219 76.754C92.344 80.5679 88.381 83.9344 83.4165 86.3421C83.1608 85.1915 82.6068 84.1688 82.7986 83.3165C82.969 82.5708 83.9705 81.9955 84.3327 81.612C83.8426 81.6972 82.8412 81.612 82.0741 82.0381C77.4932 84.4884 73.2531 82.8052 68.9918 81.1219C68.246 80.8236 67.8838 80.4401 68.4378 79.6091C68.7148 79.2043 68.8213 78.6503 68.9918 78.1816C68.9065 78.139 68.8213 78.0964 68.7148 78.0537L68.7574 78.1603ZM84.1196 75.6248C84.9506 75.1347 85.9733 74.8364 86.5912 74.1546C91.8753 68.5509 92.0031 63.4799 89.702 57.4074C89.4463 56.7469 88.9776 56.1716 88.594 55.5537L88.2744 55.7242C88.4023 56.0438 88.5088 56.3847 88.6793 56.7043C90.192 59.5168 90.8313 62.4998 90.256 65.6532C89.5742 69.4245 88.1253 72.791 84.567 74.8151C84.3327 74.9429 84.2688 75.3478 84.1196 75.6461C83.4591 75.8378 82.756 76.0083 82.1168 76.264C80.0713 77.0949 77.9406 77.6063 75.746 77.2441C74.0202 76.9458 72.3369 76.3279 70.6324 75.8591C70.3767 75.7952 70.121 75.7313 69.8653 75.6674C69.8227 75.7739 69.7801 75.8591 69.7162 75.9657C70.2489 76.2427 70.7389 76.5836 71.2929 76.7966C75.0216 78.1816 78.7716 78.6503 82.5003 76.8179C83.0543 76.541 84.077 76.6901 84.0983 75.6248H84.1196ZM69.567 54.9785C69.6523 55.085 69.7375 55.1915 69.8227 55.2981C69.9932 55.2554 70.1849 55.2341 70.2915 55.1489C73.7219 52.3577 79.5812 53.4018 82.8199 56.3847C86.1864 59.4742 86.1651 65.9302 84.0344 68.4657C83.4165 69.1901 82.7347 69.8506 82.1168 70.575C80.0926 72.9188 75.6395 74.0054 73.0401 72.4714C71.0372 71.2995 69.2901 69.7228 67.4577 68.2526C67.0102 67.8904 66.7119 67.3151 66.3497 66.8464C66.2858 66.9103 66.2219 66.9742 66.158 67.0381C67.969 70.362 70.5898 72.791 74.4037 73.4941C80.5827 74.602 86.3781 69.7228 86.2077 63.4586C86.1011 59.6447 84.8653 56.2782 80.9449 54.3393C77.7276 52.7412 74.6168 52.4643 71.3355 53.7001C70.675 53.9557 70.1423 54.5523 69.567 54.9998V54.9785ZM64.773 72.1091C64.8582 72.0452 64.9435 71.9813 65.0287 71.9174C64.9009 71.7043 64.773 71.5126 64.6665 71.2995C63.7716 69.2753 62.408 67.3151 62.0671 65.1844C61.4065 60.9018 63.2389 57.2157 65.9662 53.9557C68.1182 51.3776 70.7602 49.6731 74.1693 49.7157C76.3 49.737 78.4307 50.1844 80.5614 50.4614C81.1367 50.5466 81.7119 50.6745 82.2872 50.8023C82.3298 50.6319 82.3511 50.4614 82.3937 50.291C80.9662 49.9501 79.5599 49.5239 78.1324 49.2469C73.2744 48.3094 69.0983 49.4387 65.7744 53.2739C64.5599 54.6802 63.6651 56.2356 62.8341 57.9188C61.4278 60.71 60.8739 63.5225 61.5983 66.5268C62.1097 68.6787 63.1537 70.5751 64.773 72.1091ZM74.2332 58.2171C77.1736 58.3236 80.2205 58.3662 80.881 62.0949C81.4563 65.3336 80.1992 67.6347 76.577 68.6787C78.2602 69.0836 80.1565 67.9117 81.0514 66.3137C82.4577 63.7569 81.8824 60.987 79.4321 58.7072C78.2176 57.5779 75.6395 57.237 74.2119 58.2171H74.2332ZM84.1622 45.2839C83.0756 43.6006 75.0429 42.3861 73.594 43.8137C77.3867 43.1106 80.604 44.7512 84.1622 45.2839ZM77.4506 65.2057C78.3881 64.6731 78.729 63.2668 78.3028 62.3293C77.8767 61.4131 75.81 60.6248 74.7446 60.987C73.7219 61.3492 73.1466 62.3506 73.4662 63.4799C74.2332 62.3719 74.9364 61.0722 76.4705 61.6901C78.0685 62.3293 77.8341 63.7569 77.4506 65.2057ZM66.0514 61.2214C65.0287 62.7128 65.05 65.291 66.0514 66.5268V61.2214ZM73.0614 68.21C72.3582 67.4216 71.3568 66.335 70.4619 65.3549C70.4619 66.3989 72.2517 68.1674 73.0614 68.21ZM64.0486 78.6929L64.3043 78.3094C63.3242 77.6276 62.3227 76.9245 61.3426 76.2427C61.2574 76.3492 61.1935 76.4557 61.1082 76.5623C61.9179 77.4998 62.8128 78.2881 64.0273 78.6929H64.0486ZM89.2332 48.5438C89.1906 48.6077 89.148 48.6503 89.1054 48.7143C90.0642 49.6304 91.023 50.5466 91.9818 51.4628C92.0031 51.4202 92.0457 51.3989 92.0671 51.3563C91.1082 50.4188 90.1707 49.4813 89.2119 48.5438H89.2332ZM66.9037 58.2171L67.3724 58.558C67.9051 57.791 68.4165 57.0452 68.9492 56.2782C68.8213 56.1716 68.6722 56.0864 68.5443 55.9799L66.8824 58.1958L66.9037 58.2171ZM87.7418 79.6091C87.8057 79.6944 87.8696 79.7796 87.9548 79.8435L91.3639 77.1375C91.3 77.0523 91.2361 76.9671 91.1722 76.8819C90.0216 77.7768 88.8923 78.6929 87.7418 79.5878V79.6091Z" fill="#FAE9C5"/>
<path d="M133.765 88.9824C134.66 87.5974 135.448 86.3616 136.258 85.1258C137.323 83.4852 138.324 81.8233 139.454 80.2253C140.093 79.3091 139.986 78.6912 139.155 77.9667C133.722 73.1088 128.332 68.2295 122.941 63.3503C113.949 55.2537 104.958 47.1571 95.9665 39.0605C89.9366 33.6273 83.9068 28.1727 77.8344 22.7608C77.3443 22.3133 76.5347 22.1216 75.8315 22.015C73.4025 21.6315 71.5489 22.3986 69.6952 24.167C60.2136 33.2011 50.5403 42.0434 40.9523 50.9497C31.1511 60.0477 21.3287 69.1457 11.5276 78.2437C10.3344 79.3304 10.3557 79.4156 11.0588 80.8858C12.5503 84.0392 14.0205 87.1926 15.4906 90.3247C15.5545 90.4738 15.5972 90.6443 15.725 91.0278C14.2975 90.5378 12.9977 90.0903 11.7193 89.6429C8.48068 88.4923 5.24205 87.3417 1.98211 86.2338C0.980689 85.8929 0.597164 85.3602 0.661085 84.2736C0.788925 81.9724 0.831539 79.65 0.767619 77.3488C0.725005 75.9852 1.25768 75.1116 2.30171 74.302C8.22501 69.6145 14.127 64.8843 20.029 60.1542C37.1597 46.4753 54.3116 32.775 71.421 19.0747C72.2946 18.3929 73.1682 18.1798 74.2335 18.0946C76.279 17.9241 77.8344 18.6273 79.4537 19.8844C100.611 36.5676 121.812 53.1869 142.991 69.8275C144.716 71.1912 146.442 72.5548 148.189 73.8971C148.935 74.4511 149.297 75.1542 149.319 76.0704C149.319 78.5846 149.361 81.1201 149.361 83.6343C149.361 84.444 149.106 85.0619 148.189 85.2963C143.694 86.4681 139.198 87.6826 134.702 88.8758C134.468 88.9397 134.234 88.9184 133.829 88.9611L133.765 88.9824Z" fill="#FAE9C5"/>
<path d="M138.686 110.886C139.24 109.288 139.708 107.647 140.348 106.092C140.944 104.622 141.583 103.151 142.393 101.766C143.544 99.7849 145.27 98.6556 147.677 98.8474C148.38 98.9113 149.083 98.8474 149.914 98.8474C149.936 99.3161 149.978 99.6784 149.978 100.062C149.978 108.308 149.978 116.532 150 124.778C150 125.779 149.701 126.078 148.743 126.014C147.443 125.95 146.122 125.971 144.801 126.014C143.991 126.056 143.778 125.737 143.778 124.97C143.821 121.198 143.778 117.448 143.778 113.677C143.778 113.315 143.757 112.931 143.565 112.526C142.947 114.124 142.329 115.722 141.711 117.32C140.795 119.707 139.666 121.987 138.047 124.011C136.555 125.886 134.637 126.227 132.379 125.864V98.8261C134.254 98.8261 136.044 98.7835 137.833 98.8687C138.047 98.8687 138.387 99.4866 138.409 99.8275C138.451 103.024 138.43 106.22 138.43 109.416C138.43 109.884 138.43 110.332 138.43 110.801C138.515 110.801 138.6 110.822 138.686 110.843V110.886Z" fill="#FAE9C5"/>
<path d="M0 126.12V98.8262H16.1293V106.667C14.3395 106.667 12.571 106.667 10.8026 106.646C10.6108 106.646 10.3125 106.241 10.2699 105.985C10.142 105.112 9.652 104.877 8.86364 104.963C8.4162 105.005 7.92614 104.92 7.4787 104.984C6.98864 105.048 6.28552 104.622 6.13637 105.559C5.92331 106.923 6.07245 107.221 7.20171 107.541C9.52416 108.222 11.8253 109.011 13.7216 110.566C18.3239 114.401 17.3438 121.923 11.9531 124.586C9.80114 125.651 7.4787 125.928 5.13495 126.056C3.47302 126.142 1.81108 126.056 0 126.056V126.12ZM6.24291 119.92C7.41478 119.558 8.50143 119.345 9.43893 118.876C10.6747 118.237 10.8878 116.255 9.77983 115.424C8.77841 114.678 7.54262 114.231 6.26421 113.592V119.92H6.24291Z" fill="#FAE9C5"/>
<path d="M60.0637 114.339V126.036C58.1248 126.036 56.2924 126.036 54.46 126.015C54.2895 126.015 54.0338 125.717 53.9486 125.504C53.8634 125.291 53.9273 125.014 53.9273 124.758C53.9273 116.555 53.9273 108.373 53.906 100.17C53.906 99.1685 54.1617 98.7637 55.2057 98.8489C56.3989 98.9342 57.6134 98.9129 58.8279 98.8489C59.7654 98.785 60.1276 99.0407 60.1063 100.063C60.0211 102.407 60.1063 104.751 60.0637 107.095C60.0637 107.84 60.2554 108.181 61.0438 108.224C62.173 108.288 63.3023 108.48 64.6233 108.629V98.8702C66.6262 98.8702 68.4159 98.8702 70.227 98.8915C70.4188 98.8915 70.6745 99.2325 70.781 99.4668C70.8662 99.6799 70.781 99.9569 70.781 100.213C70.781 108.267 70.781 116.321 70.781 124.375C70.781 124.865 70.781 125.355 70.781 125.994C68.8208 125.994 66.9458 126.015 65.0921 125.951C64.9216 125.951 64.6659 125.312 64.6446 124.971C64.602 121.988 64.5807 119.005 64.6446 116.022C64.6446 115.127 64.389 114.744 63.4941 114.68C62.4074 114.616 61.3208 114.446 60.0424 114.318L60.0637 114.339Z" fill="#FAE9C5"/>
<path d="M112.329 120.09V125.928H106.342V98.8899C108.195 98.8899 110.028 98.8899 111.86 98.9326C112.031 98.9326 112.329 99.4013 112.35 99.6783C112.393 100.999 112.35 102.299 112.372 103.62C112.372 104.004 112.414 104.366 112.436 104.835C113.991 104.579 115.014 103.748 115.568 102.448C115.972 101.553 116.122 100.552 116.463 99.6144C116.569 99.3161 116.889 98.9113 117.123 98.9113C118.934 98.8473 120.724 98.8686 122.855 98.8686C122.514 100.467 122.365 101.979 121.874 103.386C120.447 107.562 117.613 110.268 113.139 111.014C112.521 111.12 112.329 111.354 112.329 111.972C112.329 113.592 112.286 113.592 113.821 113.954C118.828 115.168 121.384 118.641 122.407 123.478C122.578 124.245 122.62 125.012 122.769 125.992C120.724 125.992 118.806 125.992 116.867 125.95C116.718 125.95 116.548 125.502 116.441 125.225C116.015 124.075 115.717 122.86 115.142 121.773C114.609 120.793 113.671 120.197 112.308 120.069L112.329 120.09Z" fill="#FAE9C5"/>
<path d="M31.7472 125.971H25.4404C25.7387 124.117 25.9092 122.285 26.314 120.538C27.2515 116.49 29.4461 113.038 31.5768 109.544C33.26 106.774 34.858 103.961 35.1563 100.637C35.1989 100.105 35.2203 99.5933 35.2416 98.8901C37.1379 98.8901 39.0129 98.8688 40.8666 98.9327C41.0583 98.9327 41.3353 99.5506 41.3779 99.9129C41.8041 103.876 42.1663 107.818 42.5711 111.781C42.9759 115.957 43.4021 120.112 43.8069 124.288C43.8495 124.821 43.8921 125.332 43.9347 125.95H37.9688C37.9049 125.843 37.8623 125.801 37.841 125.737C37.5995 124.259 36.7117 123.521 35.1776 123.521C34.4745 123.521 33.7501 123.585 33.047 123.521C32.1521 123.436 31.8325 123.819 31.8751 124.671C31.8751 125.098 31.8112 125.502 31.7686 125.992L31.7472 125.971ZM37.0313 117.576C36.8609 115.914 36.6904 114.401 36.5413 112.889C36.4347 112.889 36.3282 112.846 36.2217 112.825C35.412 114.359 34.6024 115.893 33.7288 117.555H37.0313V117.576Z" fill="#FAE9C5"/>
<path d="M82.1799 98.9326H88.2311C88.1246 100.957 88.0819 102.917 87.8902 104.877C87.7623 106.347 87.6771 106.347 89.0407 106.71C93.6217 107.924 96.4342 111.589 96.626 116.83C96.7325 119.622 96.6686 122.434 96.626 125.247C96.626 125.524 96.2851 126.014 96.0933 126.014C92.876 126.035 89.616 126.141 86.5692 124.82C82.4569 123.031 80.4541 119.749 80.4541 115.424C80.4541 112.335 81.0507 109.224 81.3916 106.134C81.6473 103.791 81.903 101.426 82.1799 98.9326ZM90.3618 119.408C90.7879 115.786 89.9356 112.676 86.7822 112.676C85.9086 116.809 87.4427 119.174 90.3618 119.408Z" fill="#FAE9C5"/>
<path d="M120.49 44.4517C119.083 43.5994 118.274 42.2358 117.613 40.7869C115.653 36.5895 115.717 32.2642 116.953 27.8963C117.848 24.7216 118.977 21.6108 119.744 18.4148C120.873 13.5994 120.021 8.97585 117.784 4.58665C117.166 3.37216 116.569 2.11506 115.973 0.879263C116.037 0.815343 116.101 0.75142 116.164 0.6875C116.633 1.02841 117.123 1.3054 117.549 1.68892C123.558 7.31392 125.625 14.1108 123.345 22.0795C122.535 24.9134 121.534 27.6832 120.49 30.4318C119.318 33.6065 119.318 36.8026 120.021 40.0625C120.319 41.4687 120.554 42.8963 120.809 44.3239C120.703 44.3665 120.596 44.4091 120.511 44.4517H120.49Z" fill="#FAE9C5"/>
<path d="M46.1503 140.588C46.7469 140.588 47.2796 140.631 47.8122 140.588C48.6858 140.503 48.9841 140.801 48.9628 141.717C48.9202 144.935 48.9841 148.173 48.9202 151.412C48.8989 152.477 49.1759 152.84 50.2625 152.797C52.2227 152.69 51.9884 152.989 51.9884 151.092C51.9884 148.046 51.9884 144.999 51.9884 141.93C51.9884 141.547 51.9884 141.163 51.9884 140.609C52.8193 140.609 53.5651 140.567 54.2895 140.652C54.5026 140.673 54.8222 141.099 54.8222 141.334C54.8648 145.766 54.8648 150.197 54.8222 154.629C54.8222 154.885 54.4387 155.332 54.2043 155.354C49.602 155.396 44.9997 155.375 40.2483 155.375C40.227 154.885 40.1844 154.48 40.1844 154.075C40.1844 149.963 40.2057 145.851 40.1631 141.739C40.1631 140.844 40.4401 140.503 41.3137 140.609C41.548 140.631 41.8037 140.631 42.0594 140.609C42.8051 140.524 43.0395 140.865 43.0182 141.59C42.9969 144.956 43.0182 148.322 42.9756 151.71C42.9756 152.563 43.2313 152.84 44.0622 152.797C46.3634 152.712 46.0438 153.117 46.0651 150.837C46.0651 147.854 46.0651 144.871 46.0651 141.888C46.0651 141.504 46.1077 141.121 46.129 140.631L46.1503 140.588Z" fill="#FAE9C5"/>
<path d="M85.0581 155.354V146.618C84.9729 146.597 84.8664 146.576 84.7811 146.555C84.2272 147.556 83.6519 148.557 83.0979 149.538C82.7996 150.07 82.6291 150.667 81.7556 150.667C80.9459 150.667 80.7755 150.091 80.4985 149.601C79.9232 148.6 79.3479 147.577 78.6235 146.278C78.5595 146.81 78.4956 147.066 78.4956 147.3C78.4956 149.644 78.453 151.988 78.4956 154.332C78.4956 155.184 78.2399 155.418 77.409 155.397C75.2783 155.333 75.6405 155.525 75.6405 153.65C75.6192 149.751 75.6192 145.851 75.6405 141.952C75.6405 141.505 75.9601 140.695 76.1093 140.695C76.9828 140.738 78.0269 140.077 78.6661 141.292C79.5397 142.954 80.4772 144.573 81.3933 146.214C81.4786 146.363 81.5851 146.491 81.7769 146.789C82.4161 145.681 82.9914 144.701 83.5666 143.678C83.9928 142.911 84.355 142.08 84.8664 141.356C85.122 140.993 85.6547 140.631 86.0808 140.61C88.2968 140.546 87.9345 140.397 87.9559 142.442C87.9559 146.299 87.9132 150.177 87.9985 154.033C88.0198 155.163 87.6575 155.503 86.6135 155.354C86.1661 155.29 85.6973 155.354 85.1007 155.354H85.0581Z" fill="#FAE9C5"/>
<path d="M107.813 140.694C107.835 140.694 107.877 140.651 107.898 140.651C109.631 140.409 110.498 141.148 110.498 142.867C110.498 145.019 110.498 147.171 110.732 149.429C110.924 149.131 111.137 148.833 111.308 148.513C112.458 146.446 113.63 144.358 114.781 142.292C115.846 140.353 115.952 140.289 118.296 140.715V155.289H115.569V146.638C115.484 146.617 115.377 146.574 115.292 146.553C114.93 147.128 114.567 147.703 114.227 148.3C113.055 150.409 111.883 152.519 110.711 154.628C110.349 155.267 108.474 155.715 107.898 155.267C107.749 155.161 107.664 154.905 107.664 154.713C107.664 150.111 107.664 145.488 107.707 140.885C107.707 140.821 107.771 140.757 107.813 140.694Z" fill="#FAE9C5"/>
<path d="M28.6582 155.183C28.5516 155.247 28.5303 155.269 28.4877 155.29C26.7548 155.517 25.8883 154.771 25.8883 153.053C25.8883 152.286 25.8883 151.519 25.8883 150.688H20.8599C20.8599 151.945 20.8173 153.138 20.8599 154.331C20.9025 155.098 20.6894 155.418 19.8585 155.375C17.7704 155.29 18.0474 155.652 18.0261 153.585C18.0261 151.54 18.0048 149.473 18.0261 147.428C18.0687 145.254 18.6653 143.23 19.9224 141.441C20.3272 140.865 20.7533 140.567 21.4991 140.588C22.6923 140.652 23.9068 140.631 25.1212 140.588C25.8883 140.546 26.3783 140.823 26.8045 141.441C27.8485 142.932 28.509 144.615 28.5942 146.384C28.7221 149.303 28.6369 152.243 28.6369 155.226L28.6582 155.183ZM26.1013 147.875C25.6965 146.405 25.3982 145.127 24.9508 143.891C24.8229 143.571 24.2051 143.252 23.8215 143.252C23.161 143.252 22.3087 142.847 21.84 143.763C21.2008 145.041 20.8812 146.384 20.9451 147.896H26.1013V147.875Z" fill="#FAE9C5"/>
<path d="M12.3796 155.267C10.5899 155.494 9.69496 154.742 9.69496 153.009C9.69496 152.263 9.69496 151.538 9.69496 150.708H4.66655C4.66655 151.815 4.60263 152.945 4.66655 154.053C4.73047 155.033 4.47479 155.523 3.38814 155.374C2.9407 155.31 2.47195 155.374 1.91797 155.374V140.629C2.62109 140.629 3.36684 140.544 4.06996 140.672C4.30434 140.715 4.62394 141.247 4.62394 141.546C4.68786 143.25 4.64525 144.955 4.64525 146.659C4.64525 147.043 4.64525 147.426 4.64525 147.895H9.67366C9.67366 145.85 9.67366 143.889 9.67366 141.908C9.67366 141.503 9.8228 140.757 9.99326 140.736C10.739 140.629 11.5273 140.715 12.2944 140.757C12.3796 140.757 12.4648 141.119 12.4648 141.311C12.4648 145.892 12.4648 150.452 12.4648 155.033C12.4648 155.097 12.4222 155.161 12.3583 155.288L12.3796 155.267Z" fill="#FAE9C5"/>
<path d="M134.787 155.33C133.764 155.33 132.912 155.373 132.102 155.309C131.868 155.309 131.591 154.989 131.442 154.734C130.738 153.583 130.078 152.411 129.417 151.239C129.119 150.707 128.842 150.6 128.246 150.813C127.138 151.176 126.626 151.708 126.69 153.008C126.818 155.629 126.733 155.629 124.112 155.309C124.069 155.309 124.048 155.266 123.963 155.224V140.607C124.666 140.607 125.305 140.629 125.923 140.607C126.584 140.565 126.775 140.884 126.775 141.502C126.754 143.463 126.775 145.401 126.775 147.362C126.775 147.703 126.775 148.065 126.775 148.427C129.162 148.193 130.099 146.786 130.888 143.995C131.122 143.186 131.143 142.312 131.186 141.46C131.207 140.799 131.463 140.629 132.081 140.607C134.211 140.543 134.254 140.543 134.02 142.653C133.785 144.656 133.146 146.531 131.804 148.086C131.292 148.683 131.292 149.13 131.676 149.769C132.571 151.218 133.38 152.71 134.211 154.201C134.403 154.521 134.552 154.862 134.808 155.373L134.787 155.33Z" fill="#FAE9C5"/>
<path d="M102.507 140.567V143.188C100.739 143.188 99.0557 143.231 97.3511 143.188C96.4989 143.146 96.2219 143.444 96.2645 144.275C96.3284 145.234 96.3071 146.192 96.2645 147.151C96.2645 147.748 96.4775 147.982 97.0741 147.961C98.4165 147.94 99.7588 147.961 101.272 147.961C101.272 148.749 101.336 149.452 101.229 150.134C101.208 150.326 100.76 150.603 100.505 150.603C99.4392 150.667 98.3738 150.688 97.3085 150.603C96.4136 150.539 96.2645 150.922 96.2432 151.711C96.2219 152.584 96.5628 152.797 97.3724 152.755C99.0344 152.712 100.696 152.755 102.486 152.755V155.29H93.4946C93.4733 154.949 93.4307 154.609 93.4307 154.268C93.4307 150.07 93.4307 145.894 93.4307 141.697C93.4307 140.887 93.6011 140.567 94.4747 140.589C97.1381 140.653 99.7801 140.589 102.529 140.589L102.507 140.567Z" fill="#FAE9C5"/>
<path d="M148.466 143.208C146.57 143.208 144.823 143.229 143.097 143.208C142.373 143.208 142.074 143.421 142.117 144.167C142.159 145.36 142.117 146.574 142.117 147.959C143.395 147.959 144.588 147.959 145.782 147.959C146.719 147.959 147.188 148.414 147.188 149.323C147.188 149.706 147.188 150.09 147.188 150.623C145.76 150.623 144.418 150.665 143.097 150.623C142.245 150.58 142.096 150.964 142.096 151.688C142.096 152.412 142.202 152.796 143.076 152.775C144.567 152.711 146.059 152.775 147.55 152.753C148.232 152.753 148.551 152.945 148.466 153.67C148.424 153.989 148.445 154.309 148.466 154.628C148.509 155.161 148.296 155.395 147.742 155.395C145.185 155.395 142.628 155.395 140.071 155.353C139.816 155.353 139.347 154.969 139.347 154.756C139.304 150.111 139.326 145.466 139.326 140.694C139.773 140.651 140.135 140.608 140.519 140.608C142.756 140.608 144.993 140.651 147.23 140.587C148.296 140.545 148.637 140.928 148.509 141.908C148.466 142.292 148.509 142.675 148.509 143.229L148.466 143.208Z" fill="#FAE9C5"/>
<path d="M71.0364 140.589C70.0137 144.978 69.9924 149.388 67.4356 153.138C66.3489 154.736 65.1131 155.738 63.0464 155.376C62.3646 155.248 61.6401 155.376 60.8518 155.376V152.84C62.5137 152.521 64.6231 153.479 65.4541 150.923C64.7296 150.731 64.0052 150.454 63.2595 150.347C62.4711 150.241 62.0237 149.793 61.6188 149.175C59.9782 146.597 59.6799 143.763 59.7225 140.631C60.5535 140.631 61.3205 140.567 62.0663 140.674C62.2793 140.695 62.5137 141.207 62.5563 141.526C62.7694 142.932 62.8759 144.339 63.1103 145.724C63.4086 147.556 64.4526 148.557 66.5407 148.43C66.6472 148.025 66.839 147.556 66.9242 147.045C67.2438 145.255 67.5847 143.486 67.8404 141.697C67.947 140.866 68.2452 140.482 69.1188 140.589C69.6728 140.653 70.2481 140.589 71.0577 140.589H71.0364Z" fill="#FAE9C5"/>
<path d="M127.543 14.8779C130.462 16.9447 132.081 19.5654 132.55 22.9106C132.912 25.5313 132.209 27.9603 131.272 30.368C130.995 31.0924 130.739 31.8382 130.398 32.5413C129.205 35.0342 128.608 37.591 129.013 40.3822C129.12 41.1279 129.013 41.9163 129.013 42.8964C127.522 42.0228 126.861 40.7657 126.584 39.3169C125.966 36.1208 126.584 33.0526 127.969 30.2188C129.567 26.9589 129.759 23.7416 128.8 20.3112C128.31 18.5427 127.948 16.7529 127.522 14.8992L127.543 14.8779Z" fill="#FAE9C5"/>
<path d="M109.624 8.25098C111.073 8.93279 111.925 9.78507 112.479 10.8717C114.354 14.5152 114.78 18.2652 113.161 22.143C111.456 26.1913 110.199 30.3461 110.071 34.778C110.071 34.9484 109.986 35.0976 109.943 35.3319C108.899 35.055 108.495 34.2879 108.175 33.4569C107.408 31.4541 107.557 29.3873 108.047 27.3845C108.495 25.5308 109.049 23.6771 109.816 21.9513C111.435 18.3291 111.733 14.7496 110.348 10.9996C110.05 10.2112 109.922 9.35893 109.645 8.25098H109.624Z" fill="#FAE9C5"/>
<path d="M67.6065 80.9922C72.3579 83.4212 76.9815 84.7635 82.159 83.1442C82.159 84.38 82.2656 85.3814 82.1164 86.3402C82.0525 86.745 81.4772 87.3203 81.0298 87.4055C76.2357 88.3217 71.6548 87.5973 67.3721 85.2536C67.0738 85.0831 66.7542 84.5078 66.7968 84.1669C66.946 83.1868 67.2656 82.228 67.6065 80.9922Z" fill="#FAE9C5"/>
<path d="M116.122 136.775C116.079 138.458 114.779 139.672 113.118 139.715C111.37 139.758 110.007 138.586 109.879 136.839C110.795 136.86 111.818 136.306 112.393 137.627C112.457 137.797 113.544 137.797 113.608 137.627C114.14 136.327 115.163 136.881 116.122 136.796V136.775Z" fill="#FAE9C5"/>
</svg>
