<svg width="33" height="32" viewBox="0 0 33 32" fill="none" xmlns="http://www.w3.org/2000/svg">
<g clip-path="url(#clip0_492_23)">
<path d="M13.7623 2.98953C7.96298 2.98953 3.26282 7.6903 3.26282 13.489C3.26282 19.289 7.96298 23.9892 13.7623 23.9892C19.5623 23.9892 24.2625 19.289 24.2625 13.489C24.2625 7.6903 19.5623 2.98953 13.7623 2.98953ZM13.7623 21.3643C9.42031 21.3643 5.88748 17.8318 5.88748 13.489C5.88748 9.14703 9.42024 5.6142 13.7623 5.6142C18.105 5.6142 21.6375 9.14695 21.6375 13.489C21.6375 17.8318 18.105 21.3643 13.7623 21.3643Z" fill="white"/>
<path d="M13.7621 9.54996C13.7621 10.2749 13.1392 10.8356 12.5035 11.1841C12.0636 11.4252 11.7001 11.7888 11.4589 12.2287C11.1104 12.8644 10.5498 13.4873 9.82482 13.4873V13.4873C9.09986 13.4873 8.49537 12.8905 8.67474 12.1881C9.14801 10.3347 10.6096 8.87317 12.4629 8.39989C13.1653 8.22052 13.7621 8.82501 13.7621 9.54996V9.54996ZM21.8411 19.7103C21.3285 19.1976 20.4974 19.1976 19.9848 19.7102V19.7102C19.4723 20.2227 19.4722 21.0536 19.9847 21.5662L26.7264 28.3099C27.2386 28.8223 28.0691 28.8228 28.5819 28.3111V28.3111C29.0956 27.7986 29.0961 26.9667 28.5831 26.4537L21.8411 19.7103ZM5.88739 29.2373C4.43777 29.2373 3.26261 28.0622 3.26261 26.6126V25.3C3.26261 24.5751 2.67492 23.9874 1.94997 23.9874V23.9874C1.22502 23.9874 0.637329 24.5751 0.637329 25.3V27.9252C0.637329 30.0998 2.40017 31.8626 4.57475 31.8626H7.19953C7.92449 31.8626 8.51218 31.2749 8.51218 30.55V30.55C8.51218 29.825 7.92449 29.2373 7.19953 29.2373H5.88739ZM26.8874 2.98775C28.337 2.98775 29.5122 4.16291 29.5122 5.61254V6.92468C29.5122 7.64963 30.0999 8.23732 30.8248 8.23732V8.23732C31.5498 8.23732 32.1375 7.64963 32.1375 6.92468V4.2999C32.1375 2.12532 30.3746 0.362473 28.2001 0.362473H25.5749C24.8499 0.362473 24.2623 0.950162 24.2623 1.67511V1.67511C24.2623 2.40007 24.8499 2.98775 25.5749 2.98775H26.8874Z" fill="white"/>
</g>
<defs>
<clipPath id="clip0_492_23">
<rect width="31.5" height="31.5" fill="white" transform="translate(0.637695 0.35936)"/>
</clipPath>
</defs>
</svg>
