<svg width="34" height="34" viewBox="0 0 34 34" fill="none" xmlns="http://www.w3.org/2000/svg">
<path fill-rule="evenodd" clip-rule="evenodd" d="M7.06233 0.258667C3.58294 0.258667 0.762329 3.07928 0.762329 6.55867V27.0337C0.762329 30.5131 3.58294 33.3337 7.06233 33.3337H27.5373C31.0167 33.3337 33.8373 30.5131 33.8373 27.0337V6.55867C33.8373 3.07927 31.0167 0.258667 27.5373 0.258667H7.06233ZM17.9059 12.4787C16.2818 13.1489 13.0594 14.5152 8.23862 16.6292C7.46524 16.9385 7.05276 17.2479 7.00121 17.5314C6.933 18.0316 7.56661 18.231 8.42455 18.5011C8.53939 18.5372 8.65825 18.5746 8.77999 18.6142C9.63071 18.8977 10.765 19.2329 11.3579 19.2329C11.8993 19.2329 12.4922 19.0266 13.1625 18.5626C17.6739 15.5206 19.994 13.9739 20.1487 13.9481C20.2518 13.9223 20.3807 13.8965 20.4838 13.9739C20.5726 14.0405 20.5659 14.1643 20.5623 14.2304C20.5617 14.2411 20.5612 14.2503 20.5612 14.2575C20.5052 14.5185 18.2636 16.601 16.9402 17.8305C16.4342 18.3006 16.0624 18.646 15.9982 18.7173C15.8712 18.8478 15.7418 18.9716 15.6172 19.0908C14.8311 19.8426 14.2355 20.4122 15.6373 21.3468C16.3919 21.8407 16.9786 22.2397 17.5799 22.6487C18.1085 23.0082 18.6484 23.3754 19.3238 23.8216C19.5211 23.9477 19.7104 24.0797 19.8951 24.2085C20.5792 24.6854 21.2023 25.1199 21.9533 25.059C22.3915 25.0075 22.8556 24.595 23.0876 23.3576C23.6547 20.4445 24.7117 14.077 24.9695 11.4733C24.9952 11.2413 24.9695 10.9577 24.9437 10.8288C24.9179 10.6999 24.8663 10.5194 24.7117 10.3905C24.5054 10.2359 24.1961 10.2101 24.0672 10.2101C23.4485 10.2359 22.4946 10.571 17.9059 12.4787Z" fill="#FAE9C5"/>
</svg>
