<svg width="34" height="34" viewBox="0 0 34 34" fill="none" xmlns="http://www.w3.org/2000/svg">
<path fill-rule="evenodd" clip-rule="evenodd" d="M6.43733 0.258667C2.95794 0.258667 0.137329 3.07928 0.137329 6.55867V27.0337C0.137329 30.5131 2.95794 33.3337 6.43733 33.3337H26.9123C30.3917 33.3337 33.2123 30.5131 33.2123 27.0337V6.55867C33.2123 3.07927 30.3917 0.258667 26.9123 0.258667H6.43733ZM16.3734 5.77112C19.2181 5.77235 21.8881 6.87982 23.8959 8.88992C25.9036 10.8999 27.0088 13.5717 27.0078 16.413C27.0054 22.2765 22.2344 27.0474 16.3735 27.0474H16.3691C14.5893 27.0468 12.8405 26.6002 11.2872 25.753L5.64982 27.2317L7.15847 21.7212C6.2278 20.1084 5.73822 18.279 5.73894 16.4047C5.74129 10.5414 10.5119 5.77112 16.3734 5.77112ZM16.3699 25.2514H16.3735C21.2452 25.2514 25.2102 21.2863 25.2122 16.4125C25.2131 14.0508 24.2947 11.8301 22.6259 10.1594C20.9571 8.48854 18.7378 7.568 16.3771 7.56718C11.5015 7.56718 7.53643 11.5319 7.53448 16.4053C7.53377 18.0755 8.00115 19.702 8.88588 21.1091L9.09604 21.4437L8.20312 24.7054L11.5485 23.8279L11.8713 24.0193C13.2283 24.8247 14.7839 25.2508 16.3699 25.2514ZM19.4061 17.767C19.6498 17.8557 20.956 18.4985 21.2217 18.6315C21.2737 18.6575 21.3223 18.681 21.3673 18.7028C21.5525 18.7923 21.6776 18.8527 21.731 18.9418C21.7974 19.0526 21.7974 19.5846 21.576 20.2054C21.3545 20.826 20.293 21.3926 19.7825 21.4689C19.3247 21.5372 18.7455 21.5659 18.1089 21.3636C17.7229 21.241 17.2279 21.0776 16.5941 20.8038C14.1033 19.7282 12.4199 17.3141 12.1015 16.8576C12.0792 16.8256 12.0636 16.8032 12.0549 16.7916L12.0527 16.7886C11.9116 16.6004 10.97 15.3436 10.97 14.0429C10.97 12.8189 11.5711 12.1774 11.8478 11.882C11.8668 11.8618 11.8843 11.8432 11.8999 11.8261C12.1435 11.5601 12.4313 11.4936 12.6084 11.4936C12.7857 11.4936 12.963 11.4953 13.1178 11.503C13.1369 11.5039 13.1567 11.5038 13.1772 11.5037C13.3321 11.5028 13.5252 11.5017 13.7156 11.9591C13.7889 12.1352 13.8962 12.3963 14.0093 12.6717C14.2379 13.2283 14.4904 13.8431 14.5349 13.9322C14.6014 14.0651 14.6457 14.2203 14.5571 14.3976C14.5437 14.4243 14.5314 14.4495 14.5196 14.4736C14.4531 14.6093 14.4042 14.7092 14.2913 14.8409C14.2468 14.8929 14.2008 14.949 14.1547 15.005C14.0634 15.1162 13.9722 15.2273 13.8927 15.3065C13.7596 15.439 13.6212 15.5827 13.7762 15.8488C13.9312 16.1149 14.4645 16.985 15.2543 17.6895C16.1039 18.4473 16.8421 18.7674 17.2161 18.9296C17.2889 18.9611 17.3479 18.9867 17.3912 19.0084C17.6568 19.1415 17.8118 19.1192 17.9669 18.942C18.1219 18.7646 18.6312 18.1661 18.8083 17.9001C18.9854 17.6341 19.1626 17.6785 19.4061 17.767Z" fill="#FAE9C5"/>
</svg>
