<svg width="32" height="32" viewBox="0 0 32 32" fill="none" xmlns="http://www.w3.org/2000/svg">
<path d="M20 11V9C20 6.79086 18.2091 5 16 5C13.7909 5 12 6.79086 12 9V11H11.5V9C11.5 6.51472 13.5147 4.5 16 4.5C18.4853 4.5 20.5 6.51472 20.5 9V11H20Z" stroke="black"/>
<path fill-rule="evenodd" clip-rule="evenodd" d="M13 9C13 7.34315 14.3431 6 16 6C17.6569 6 19 7.34315 19 9V11H21V9C21 6.23858 18.7614 4 16 4C13.2386 4 11 6.23858 11 9V11H13V9Z" fill="#FF0000"/>
<path d="M7.59852 24.3313L6.11726 11H25.8827L24.4015 24.3313C24.2327 25.8506 22.9485 27 21.4198 27H10.5802C9.05152 27 7.76733 25.8506 7.59852 24.3313Z" stroke="#FF0000" stroke-width="2"/>
<rect x="3" y="10" width="26" height="2" fill="#FF0000"/>
</svg>
