<svg width="37" height="37" viewBox="0 0 37 37" fill="none" xmlns="http://www.w3.org/2000/svg">
<rect width="37" height="37" rx="4" fill="white"/>
<g clip-path="url(#clip0_475_7691)">
<path d="M22.2819 28.7274C22.4763 28.4425 22.4028 28.054 22.1179 27.8598L20.2488 26.585C23.9717 25.7793 26.7715 22.4581 26.7715 18.4999C26.7715 16.2902 25.911 14.2129 24.3484 12.6506C24.1045 12.4068 23.7092 12.4069 23.4654 12.6507C23.2216 12.8945 23.2216 13.2898 23.4655 13.5336C24.7922 14.86 25.5228 16.6237 25.5228 18.4998C25.5228 21.9395 23.032 24.8111 19.7598 25.4076L21.2705 23.1927C21.465 22.9078 21.3914 22.5193 21.1065 22.3251C20.8216 22.1308 20.4332 22.2043 20.2389 22.4892L17.984 25.7952C17.9839 25.7955 17.9838 25.7957 17.9836 25.7958C17.9286 25.8766 17.895 25.9656 17.8816 26.0562C17.8772 26.0864 17.875 26.1167 17.875 26.147C17.875 26.3465 17.9704 26.5425 18.1475 26.6634L21.4143 28.8914C21.6992 29.0858 22.0876 29.0123 22.2819 28.7274Z" fill="black"/>
<path d="M13.6523 23.5834C12.2485 22.2444 11.4754 20.4392 11.4754 18.4999C11.4755 15.0605 13.9662 12.1888 17.2383 11.5923L15.7276 13.8073C15.6542 13.9149 15.619 14.0374 15.619 14.1585C15.619 14.3579 15.7143 14.554 15.8915 14.6749C16.1764 14.8692 16.5648 14.7957 16.7591 14.5109L19.014 11.2048C19.0141 11.2047 19.0142 11.2045 19.0144 11.2043C19.2088 10.9193 19.1353 10.531 18.8504 10.3367L15.5837 8.10858C15.2989 7.91436 14.9104 7.9877 14.7162 8.27257C14.6427 8.38021 14.6076 8.50266 14.6076 8.62379C14.6076 8.82333 14.703 9.01929 14.8802 9.14016L16.7494 10.4149C13.0266 11.2207 10.2269 14.542 10.2269 18.4999C10.2269 20.7837 11.1374 22.91 12.7906 24.4868C13.0401 24.7248 13.4353 24.7155 13.6733 24.466C13.9112 24.2164 13.9018 23.8212 13.6523 23.5834Z" fill="black"/>
</g>
<defs>
<clipPath id="clip0_475_7691">
<rect width="21" height="21" fill="white" transform="translate(29 8) rotate(90)"/>
</clipPath>
</defs>
</svg>
