<svg width="225" height="305" viewBox="0 0 225 305" fill="none" xmlns="http://www.w3.org/2000/svg">
<path fill-rule="evenodd" clip-rule="evenodd" d="M116.44 239.057C118.376 230.356 125.889 224.17 134.633 222.434C185.897 212.257 224.541 167.03 224.541 112.776C224.541 51.0307 174.487 0.976074 112.741 0.976074C50.9958 0.976074 0.941162 51.0307 0.941162 112.776C0.941162 167.029 39.5855 212.257 90.8497 222.434C99.5935 224.17 107.107 230.356 109.043 239.057L110.789 246.906C111.253 248.993 114.229 248.993 114.693 246.906L116.44 239.057Z" fill="#FF4433"/>
<circle cx="112.741" cy="283.924" r="20.6159" fill="white"/>
<circle cx="112.741" cy="283.924" r="10.9048" fill="#FF4433"/>
<path fill-rule="evenodd" clip-rule="evenodd" d="M102.924 136.807V160.367H158.88C159.267 160.367 159.65 160.291 160.007 160.143C160.364 159.995 160.689 159.778 160.963 159.505C161.236 159.231 161.453 158.907 161.601 158.549C161.749 158.192 161.825 157.809 161.825 157.422V89.6864C161.825 89.2996 161.749 88.9167 161.601 88.5594C161.453 88.2021 161.236 87.8774 160.963 87.6039C160.689 87.3305 160.364 87.1135 160.007 86.9655C159.65 86.8175 159.267 86.7413 158.88 86.7413H134.564L133.788 96.5581H152.008V101.467H133.406L132.625 111.283H152.008V116.192H132.237L130.407 139.335C130.395 139.531 130.344 139.722 130.258 139.899C130.172 140.075 130.051 140.232 129.904 140.362C129.757 140.491 129.585 140.591 129.399 140.654C129.213 140.717 129.017 140.742 128.821 140.729C128.446 140.692 128.099 140.516 127.848 140.235C127.597 139.954 127.461 139.589 127.466 139.212V59.2543C127.466 58.7336 127.26 58.2342 126.891 57.866C126.523 57.4978 126.024 57.291 125.503 57.291H122.558V54.3459C122.558 53.8252 122.351 53.3258 121.983 52.9576C121.615 52.5894 121.115 52.3826 120.595 52.3826H70.529C70.0083 52.3826 69.5089 52.5894 69.1407 52.9576C68.7725 53.3258 68.5656 53.8252 68.5656 54.3459V57.291H65.6206C65.0999 57.291 64.6005 57.4978 64.2323 57.866C63.8641 58.2342 63.6572 58.7336 63.6572 59.2543V157.422C63.6572 158.203 63.9675 158.952 64.5198 159.505C65.0721 160.057 65.8212 160.367 66.6023 160.367H88.1992V136.807C88.1992 136.267 88.641 135.825 89.1809 135.825H101.943C102.483 135.825 102.924 136.267 102.924 136.807ZM80.8366 121.1V91.6497H90.6534V121.1H80.8366ZM100.47 91.6497V121.1H110.287V91.6497H100.47ZM80.8366 81.833V67.1078H90.6534V81.833H80.8366ZM100.47 67.1078V81.833H110.287V67.1078H100.47ZM137.283 130.917V126.009H152.008V130.917H137.283Z" fill="white"/>
<path d="M134.956 81.833L135.344 76.9246H150.044C151.124 76.9246 152.008 77.8081 152.008 78.8879V81.833H134.956Z" fill="white"/>
</svg>