<svg width="512" height="512" viewBox="0 0 512 512" fill="none" xmlns="http://www.w3.org/2000/svg">
<g clip-path="url(#clip0_339_3)">
<path fill-rule="evenodd" clip-rule="evenodd" d="M511.949 382.01C511.949 384.81 511.809 390.84 511.669 395.61C511.249 407.11 510.409 421.97 509.009 428.71C506.909 438.81 503.819 448.48 499.749 456.48C494.979 465.88 488.809 474.43 481.519 481.72C474.229 489.01 465.809 495.18 456.419 499.95C448.429 504.02 438.749 507.1 428.509 509.21C421.779 510.61 407.049 511.45 395.689 511.87C390.919 512.01 384.889 512.15 382.089 512.15H130.089C127.289 512.15 121.259 512.01 116.489 511.87C104.989 511.45 90.1292 510.61 83.3892 509.21C73.2892 507.11 63.6192 504.02 55.6192 499.95C46.2192 495.18 37.6692 489.01 30.3792 481.72C23.0892 474.43 16.9192 466.01 12.1492 456.62C8.07922 448.63 4.99922 438.95 2.88922 428.71C1.48922 421.98 0.649219 407.25 0.229219 395.89C0.0892188 391.12 -0.0507812 385.09 -0.0507812 382.29V130.29C-0.0507812 127.49 0.0892188 121.46 0.229219 116.69C0.649219 105.19 1.48922 90.3304 2.88922 83.5904C4.98922 73.4904 8.07922 63.8204 12.1492 55.8204C16.9192 46.4204 23.0892 37.8704 30.3792 30.5804C37.6692 23.2904 46.0892 17.1204 55.4792 12.3504C63.4692 8.28039 73.1492 5.20039 83.3892 3.09039C90.1192 1.69039 104.849 0.850391 116.209 0.430391C120.979 0.290391 127.009 0.150391 129.809 0.150391H381.809C384.609 0.150391 390.639 0.290391 395.409 0.430391C406.909 0.850391 421.769 1.69039 428.509 3.09039C438.609 5.19039 448.279 8.28039 456.279 12.3504C465.679 17.1204 474.229 23.2904 481.519 30.5804C488.809 37.8704 494.979 46.2904 499.749 55.6804C503.819 63.6704 506.899 73.3504 509.009 83.5904C510.409 90.3204 511.249 105.05 511.669 116.41C511.809 121.18 511.949 127.21 511.949 130.01V382.01Z" fill="url(#paint0_linear_339_3)"/>
<path fill-rule="evenodd" clip-rule="evenodd" d="M390.649 122.58C356.149 88.0804 310.439 69.1504 261.629 69.1504C161.079 69.1504 79.1787 150.91 79.1787 251.6C79.1787 283.71 87.5887 315.13 103.579 342.75L77.6387 437.27L174.399 411.89C201.039 426.47 231.059 434.05 261.629 434.05H261.769C362.319 434.05 444.219 352.15 444.219 251.6C444.079 202.79 425.139 157.07 390.649 122.58ZM261.629 403.19C234.419 403.19 207.639 395.9 184.359 382.01L178.889 378.78L121.389 393.79L136.679 337.84L133.029 332.09C117.879 307.97 109.889 280.06 109.889 251.45C109.889 167.87 177.899 99.8604 261.619 99.8604C302.149 99.8604 340.149 115.71 368.899 144.31C397.509 172.92 413.349 211.06 413.209 251.59C413.219 335.17 345.209 403.19 261.629 403.19ZM344.789 289.6C340.159 287.36 317.859 276.28 313.659 274.74C309.459 273.2 306.509 272.5 303.419 276.98C300.329 281.61 291.639 291.84 288.979 294.79C286.319 297.88 283.649 298.16 279.159 295.91C274.529 293.67 259.949 288.76 242.559 273.33C228.959 261.27 219.839 246.26 217.179 241.78C214.519 237.15 216.899 234.77 219.139 232.52C221.239 230.42 223.769 227.19 226.009 224.53C228.249 221.87 229.099 219.9 230.639 216.96C232.179 213.87 231.339 211.21 230.219 208.97C229.099 206.73 219.979 184.29 216.199 175.17C212.549 166.34 208.769 167.46 205.959 167.32C203.299 167.18 200.209 167.18 197.269 167.18C194.179 167.18 189.279 168.3 185.069 172.93C180.859 177.56 169.079 188.5 169.079 210.93C169.079 233.36 185.349 254.96 187.729 258.05C189.969 261.14 219.839 307.13 265.559 326.91C276.499 331.54 284.909 334.34 291.499 336.45C302.439 339.96 312.399 339.39 320.249 338.27C328.939 337.01 347.179 327.19 350.959 316.53C354.749 305.87 354.749 296.76 353.619 294.79C352.359 293.1 349.279 291.98 344.789 289.6Z" fill="white"/>
</g>
<defs>
<linearGradient id="paint0_linear_339_3" x1="255.941" y1="512.14" x2="255.941" y2="0.166564" gradientUnits="userSpaceOnUse">
<stop stop-color="#25CF43"/>
<stop offset="1" stop-color="#61FD7D"/>
</linearGradient>
<clipPath id="clip0_339_3">
<rect width="512" height="512" fill="white"/>
</clipPath>
</defs>
</svg>