<svg width="26" height="26" viewBox="0 0 26 26" fill="none" xmlns="http://www.w3.org/2000/svg">
<g opacity="0.5" clip-path="url(#clip0_1344_3834)">
<path d="M20 20V18.1334C20 17.1432 19.6312 16.1936 18.9749 15.4935C18.3185 14.7934 17.4283 14.4 16.5 14.4H9.5C8.57174 14.4 7.6815 14.7934 7.02513 15.4935C6.36875 16.1936 6 17.1432 6 18.1334V20M17.2008 10.2C17.2008 12.5196 15.3204 14.4 13.0008 14.4C10.6812 14.4 8.80078 12.5196 8.80078 10.2C8.80078 7.8804 10.6812 6 13.0008 6C15.3204 6 17.2008 7.8804 17.2008 10.2ZM25 13C25 19.6274 19.6274 25 13 25C6.37258 25 1 19.6274 1 13C1 6.37258 6.37258 1 13 1C19.6274 1 25 6.37258 25 13Z" stroke="#FAFAFA" stroke-width="1.4" stroke-linecap="round" stroke-linejoin="round"/>
</g>
<defs>
<clipPath id="clip0_1344_3834">
<rect width="26" height="26" fill="white"/>
</clipPath>
</defs>
</svg>
