<svg width="110" height="12" viewBox="0 0 110 12" fill="none" xmlns="http://www.w3.org/2000/svg">
<path d="M1 5.3C0.613401 5.3 0.3 5.6134 0.3 6C0.3 6.3866 0.613401 6.7 1 6.7V5.3ZM109.495 6.49497C109.768 6.22161 109.768 5.77839 109.495 5.50503L105.04 1.05025C104.767 0.776886 104.324 0.776886 104.05 1.05025C103.777 1.32362 103.777 1.76684 104.05 2.0402L108.01 6L104.05 9.9598C103.777 10.2332 103.777 10.6764 104.05 10.9497C104.324 11.2231 104.767 11.2231 105.04 10.9497L109.495 6.49497ZM1 6.7H109V5.3H1V6.7Z" fill="#FAFAFA"/>
</svg>
