<svg width="110" height="12" viewBox="0 0 110 12" fill="none" xmlns="http://www.w3.org/2000/svg">
<path d="M109 5.3C109.387 5.3 109.7 5.6134 109.7 6C109.7 6.3866 109.387 6.7 109 6.7V5.3ZM0.505028 6.49497C0.231659 6.22161 0.231659 5.77839 0.505028 5.50503L4.9598 1.05025C5.23316 0.776886 5.67638 0.776886 5.94975 1.05025C6.22311 1.32362 6.22311 1.76684 5.94975 2.0402L1.98995 6L5.94975 9.9598C6.22311 10.2332 6.22311 10.6764 5.94975 10.9497C5.67638 11.2231 5.23316 11.2231 4.9598 10.9497L0.505028 6.49497ZM109 6.7H1V5.3H109V6.7Z" fill="#FAFAFA"/>
</svg>
