<svg width="14" height="19" viewBox="0 0 14 19" fill="none" xmlns="http://www.w3.org/2000/svg">
<path fill-rule="evenodd" clip-rule="evenodd" d="M7.52343 14.8315C9.90601 14.8315 11.694 13.7549 13.1361 12.0076C15.3066 9.37788 12.9711 6.7665 10.7073 7.33115C9.33581 7.67322 8.14491 9.43404 7.01708 9.43404C6.2375 9.43404 5.4983 8.84175 5.4983 8.08455C5.4983 6.75818 6.10296 6.66943 7.42635 5.68237L9.18834 4.40729C9.9332 3.85486 9.59726 3.13671 8.92972 3.13671C8.558 3.13671 6.52561 4.75493 6.22164 4.98425C5.55702 5.48566 4.86601 5.84039 4.48428 6.62133C4.09546 7.41636 4.08909 8.44273 4.48809 9.20658C5.17166 10.5154 6.82143 11.1664 8.31213 10.3908C9.1879 9.93509 10.4566 8.53432 11.3486 8.53432C12.0079 8.53432 12.6988 9.11863 12.6988 9.77123C12.6988 10.7831 12.0819 11.3145 11.419 11.9781C9.22297 14.1765 5.47598 14.0261 3.09295 11.6693C2.93451 11.5127 2.89288 11.4356 2.75436 11.2769C2.30018 10.7567 2.15811 10.4712 1.84086 9.82845C0.863593 7.84797 1.23824 5.02154 2.61637 3.46124C2.75657 3.30252 2.83495 3.18419 2.97994 3.03734C3.71816 2.28908 4.77053 1.70406 5.83451 1.44879C7.63387 1.01709 9.45183 1.50902 10.7219 2.47012C12.7204 3.98205 12.2763 4.87982 13.2051 4.87982C13.5299 4.87982 13.7675 4.60525 13.7675 4.20516C13.7675 3.80437 12.6345 2.36569 12.2322 2.02894C10.3501 0.454121 8.1729 -0.394669 5.57784 0.180432C4.91623 0.327019 4.23956 0.577059 3.74305 0.876611C1.79702 2.05099 0.49497 3.69747 0.0965881 6.00301C-0.0309508 6.74082 -0.0277623 7.60679 0.0801143 8.32715C0.326867 9.9753 1.04914 11.425 2.19319 12.5684C2.41372 12.7888 2.57253 12.9784 2.82937 13.1697C4.23159 14.2139 5.63257 14.8315 7.52334 14.8315H7.52343ZM3.64199 15.5625C3.64199 15.9927 3.86961 16.0762 4.20307 16.2383C4.5066 16.386 4.7677 16.4675 5.1109 16.5678C6.79185 17.0594 8.17476 17.0095 9.84198 16.5864C10.5649 16.4031 11.2925 16.2055 11.2925 15.5625C11.2925 15.2338 11.0023 14.9439 10.6735 14.9439C10.5325 14.9439 10.1947 15.1095 10.0484 15.1624C9.79371 15.2543 9.64004 15.3157 9.36866 15.3826C6.31127 16.1372 4.93536 14.9439 4.2044 14.9439C3.89317 14.9439 3.64199 15.268 3.64199 15.5625ZM7.74848 17.6989C5.76596 17.6989 5.65684 17.3616 4.87956 17.3616C4.57993 17.3616 4.42946 17.7257 4.42946 18.0925C4.42946 18.5845 5.05475 18.6774 5.48643 18.779C6.76731 19.0806 8.13597 19.0739 9.42553 18.7566C9.96579 18.6236 10.5048 18.5347 10.5048 17.9238C10.5048 17.5953 10.2147 17.3054 9.88608 17.3054C9.65651 17.3054 9.56768 17.367 9.38673 17.4248C8.92954 17.5705 8.25731 17.6989 7.74848 17.6989Z" fill="#FAFAFA"/>
</svg>
