<svg width="35" height="35" viewBox="0 0 35 35" fill="none" xmlns="http://www.w3.org/2000/svg">
<g clip-path="url(#clip0_1110_12766)">
<path fill-rule="evenodd" clip-rule="evenodd" d="M17.5 33.6C26.3918 33.6 33.6 26.3918 33.6 17.5C33.6 8.60822 26.3918 1.4 17.5 1.4C8.60822 1.4 1.4 8.60822 1.4 17.5C1.4 26.3918 8.60822 33.6 17.5 33.6ZM17.5 35C27.165 35 35 27.165 35 17.5C35 7.83502 27.165 0 17.5 0C7.83502 0 0 7.83502 0 17.5C0 27.165 7.83502 35 17.5 35Z" fill="#FAFAFA"/>
<path fill-rule="evenodd" clip-rule="evenodd" d="M16.5995 4.01742C14.9032 4.28551 13.5634 4.92817 12.4265 6.01898C11.4436 6.96206 10.8111 7.99287 10.4088 9.30748C10.2215 9.9196 10.1992 10.1193 10.1932 11.2337C10.1876 12.3036 10.2117 12.5685 10.3668 13.1324C11.1223 15.8797 13.2481 17.8746 16.0521 18.4677C16.7546 18.6163 18.2437 18.616 18.9479 18.4672C21.7409 17.8768 23.8779 15.8686 24.6329 13.125C24.8843 12.2114 24.882 10.3693 24.6285 9.44643C24.2647 8.12249 23.5632 6.96128 22.549 6.00406C21.1711 4.70343 19.657 4.07679 17.7335 4.01104C17.2389 3.9941 16.7286 3.99698 16.5995 4.01742ZM16.2867 5.20777C13.5634 5.78655 11.6168 7.92838 11.3043 10.6898C11.0984 12.5097 11.7729 14.3504 13.1348 15.6852C13.9347 16.469 14.5836 16.8577 15.7002 17.2216C16.2959 17.4158 16.4785 17.4387 17.4598 17.4419C18.5937 17.4457 18.8336 17.4053 19.7875 17.0502C21.2726 16.4973 22.6675 15.1125 23.2865 13.5765C24.6172 10.2743 22.8604 6.56325 19.4149 5.39862C18.8727 5.21531 18.6434 5.18407 17.6944 5.16417C17.0922 5.15159 16.4588 5.17117 16.2867 5.20777ZM16.2298 7.56936C13.8007 8.39191 12.7652 11.3236 14.167 13.4096C15.5972 15.538 18.4651 15.8512 20.2772 14.0767C21.4926 12.8866 21.8035 11.1053 21.0583 9.60185C20.558 8.59248 19.7117 7.85525 18.6951 7.54325C17.9702 7.32077 16.9312 7.3318 16.2298 7.56936ZM16.7559 8.58401C16.2034 8.75808 15.8226 8.99478 15.4386 9.40276C14.8596 10.0177 14.7226 10.3831 14.7226 11.3115C14.7226 12.0491 14.7362 12.1135 14.9906 12.5797C15.4377 13.3991 16.1606 13.9181 17.0449 14.0544C18.2793 14.2446 19.4058 13.6837 20.0064 12.5797C20.2596 12.1144 20.2736 12.0476 20.2744 11.3115C20.2751 10.6779 20.244 10.4673 20.1062 10.171C19.9096 9.74825 19.3802 9.15137 18.9772 8.89811C18.3589 8.50941 17.4159 8.37606 16.7559 8.58401ZM10.1539 17.887C9.30182 18.31 8.87161 19.1646 9.03373 20.1119C9.19171 21.0355 9.64608 21.6883 10.5071 22.2286C11.2928 22.7217 12.6282 23.3493 13.4226 23.5987C13.8148 23.7219 14.1358 23.8453 14.1359 23.8729C14.136 23.9005 13.3289 24.7052 12.3423 25.6611C10.2971 27.6429 10.1497 27.8517 10.1483 28.7699C10.1459 30.4026 11.8976 31.4885 13.3793 30.7726C13.5923 30.6696 14.365 29.9471 15.6007 28.6952L17.4954 26.7756L19.4719 28.7729C21.4066 30.7281 21.4581 30.7729 21.9121 30.9001C23.0428 31.2167 24.1008 30.7667 24.6111 29.7519C24.8057 29.365 24.8501 29.1809 24.8495 28.7642C24.8481 27.8526 24.698 27.6403 22.6555 25.6611C21.6689 24.7052 20.8618 23.9005 20.8619 23.8729C20.862 23.8453 21.1834 23.7217 21.5762 23.5984C22.4214 23.333 24.2576 22.4342 24.8112 22.0151C25.6546 21.3763 26.1459 20.2482 25.9613 19.3738C25.7416 18.3329 24.9279 17.644 23.9197 17.6452C23.3692 17.6459 23.0471 17.7651 22.3496 18.2263C20.8018 19.2498 19.3513 19.6864 17.4989 19.6864C15.6354 19.6864 14.2053 19.256 12.6483 18.2263C11.6314 17.5539 10.9982 17.4678 10.1539 17.887ZM10.7274 18.8395C10.1173 19.1129 9.96399 19.8141 10.3574 20.5325C10.6106 20.9947 11.2347 21.4333 12.4322 21.9903C13.3759 22.4293 13.991 22.6381 14.9572 22.8472C15.4591 22.9558 15.7003 23.0477 15.7979 23.1672C16.1139 23.5542 16.0759 23.6037 13.668 25.9449C11.1935 28.3506 11.123 28.4434 11.3065 29.0519C11.4427 29.5035 11.7835 29.7822 12.2546 29.8271C12.4711 29.8479 12.7455 29.8247 12.8644 29.7758C12.9833 29.7269 14.0098 28.7258 15.1456 27.5513C17.118 25.5115 17.2236 25.4157 17.4995 25.4157C17.7754 25.4157 17.8804 25.5111 19.8495 27.5499C20.9831 28.7237 22.0093 29.7248 22.13 29.7744C22.2507 29.8241 22.5267 29.8479 22.7432 29.8271C23.2143 29.7822 23.5551 29.5035 23.6913 29.0519C23.8747 28.4436 23.8044 28.3511 21.3298 25.9472C18.919 23.6053 18.8818 23.5567 19.1999 23.1672C19.2975 23.0477 19.5387 22.9558 20.0406 22.8472C21.0067 22.6381 21.6219 22.4293 22.5656 21.9903C23.8098 21.4115 24.4068 20.9852 24.6487 20.5028C25.0394 19.7238 24.8461 19.0271 24.1788 18.8082C23.8034 18.6851 23.5933 18.7531 22.86 19.2346C21.165 20.3479 19.5122 20.8427 17.4944 20.8409C15.4676 20.839 13.8306 20.3465 12.1223 19.2244C11.4189 18.7623 11.0975 18.6736 10.7274 18.8395Z" fill="#FAFAFA"/>
</g>
<defs>
<clipPath id="clip0_1110_12766">
<rect width="35" height="35" fill="white"/>
</clipPath>
</defs>
</svg>
