<svg width="69" height="55" viewBox="0 0 69 55" fill="none" xmlns="http://www.w3.org/2000/svg">
<path d="M2.52 30.3V31.2H13.32V33H0.72V30.3C0.72 28.392 2.304 26.7 4.32 26.7H9.72C10.71 26.7 11.52 25.89 11.52 24.9V24C11.52 23.01 10.71 22.2 9.72 22.2H4.32C3.33 22.2 2.52 23.01 2.52 24H0.72C0.72 22.092 2.304 20.4 4.32 20.4H9.72C11.61 20.4 13.32 22.002 13.32 24V24.9C13.32 26.808 11.736 28.5 9.72 28.5H4.32C3.33 28.5 2.52 29.31 2.52 30.3ZM25.5649 29.4V24C25.5649 23.01 24.7549 22.2 23.7649 22.2H18.3649C17.3749 22.2 16.5649 23.01 16.5649 24V29.4C16.5649 30.39 17.3749 31.2 18.3649 31.2H23.7649C24.7549 31.2 25.5649 30.39 25.5649 29.4ZM27.3649 24V29.4C27.3649 31.308 25.7809 33 23.7649 33H18.3649C16.4389 33 14.7649 31.434 14.7649 29.4V24C14.7649 22.092 16.3489 20.4 18.3649 20.4H23.7649C25.6909 20.4 27.3109 22.002 27.3649 24ZM41.2298 20.4V21.858L32.5358 33H31.3298V31.614L40.0958 20.4H41.2298ZM32.2298 25.8C33.2198 25.8 34.0298 24.99 34.0298 24C34.0298 23.01 33.2198 22.2 32.2298 22.2C31.2398 22.2 30.4298 23.01 30.4298 24C30.4298 24.99 31.2398 25.8 32.2298 25.8ZM35.8298 24C35.8298 25.908 34.2458 27.6 32.2298 27.6C30.3038 27.6 28.6298 26.034 28.6298 24C28.6298 22.092 30.2138 20.4 32.2298 20.4C34.1558 20.4 35.7758 22.002 35.8298 24ZM40.3298 31.2C41.3198 31.2 42.1298 30.39 42.1298 29.4C42.1298 28.41 41.3198 27.6 40.3298 27.6C39.3398 27.6 38.5298 28.41 38.5298 29.4C38.5298 30.39 39.3398 31.2 40.3298 31.2ZM43.9298 29.4C43.9298 31.308 42.3458 33 40.3298 33C38.4038 33 36.7298 31.434 36.7298 29.4C36.7298 27.492 38.3138 25.8 40.3298 25.8C42.2558 25.8 43.8758 27.402 43.9298 29.4Z" fill="#FF0009"/>
<path d="M41.1717 53.2889C55.5844 53.2889 67.2682 41.7428 67.2682 27.5C67.2682 13.2572 55.5844 1.71111 41.1717 1.71111C33.7047 1.71111 26.9702 4.81019 22.2134 9.77778L21 8.55556C26.0699 3.28544 33.2325 0 41.1717 0C56.5407 0 68.9998 12.3122 68.9998 27.5C68.9998 42.6878 56.5407 55 41.1717 55C33.2325 55 26.0699 51.7146 21 46.4444L22.2134 45.2222C26.9702 50.1898 33.7047 53.2889 41.1717 53.2889Z" fill="#FF0009"/>
</svg>
