<svg width="26" height="30" viewBox="0 0 26 30" fill="none" xmlns="http://www.w3.org/2000/svg">
<path fill-rule="evenodd" clip-rule="evenodd" d="M19.3465 0.103777C20.1672 0.42227 20.6716 0.957949 21.1494 2.0184C21.3893 2.55079 21.4338 2.75745 21.4272 3.31005C21.4054 5.1447 19.9912 6.94806 17.4235 8.4161L16.6561 8.85479L21.1786 8.90178C24.8285 8.93975 25.7298 8.97368 25.8503 9.07771C25.984 9.1933 25.9995 9.55747 25.9995 12.5784C25.9995 16.5411 26.0538 16.3261 25.0516 16.3261H24.4648L24.4612 17.2894C24.4592 17.8191 24.449 20.8203 24.4386 23.9585C24.421 29.2956 24.4093 29.6752 24.2585 29.8322C24.1054 29.9914 23.5327 30 13 30C2.46716 30 1.89464 29.9914 1.74162 29.8322C1.58987 29.6743 1.58039 29.2723 1.58039 22.9953V16.3261H0.971045C-0.0575371 16.3261 0.000600815 16.5507 0.000600815 12.5784C0.000600815 9.55738 0.0161304 9.1933 0.149826 9.07771C0.270342 8.97358 1.18382 8.93975 4.90229 8.90178L9.50563 8.85479L8.22789 8.07016C6.78252 7.18254 6.17235 6.57769 5.86795 5.73066C5.37876 4.36956 5.98161 2.87681 7.28931 2.21106C7.8519 1.92461 7.96429 1.90112 8.72855 1.90977C9.42862 1.91766 9.63219 1.95732 10.0375 2.16482C11.1778 2.74853 11.9449 3.77007 12.8331 5.88788L12.9684 6.21023L13.4653 5.13605C14.9919 1.83609 16.649 0.110167 18.3899 0.00688453C18.7795 -0.0161403 19.1285 0.0191957 19.3465 0.103777ZM19.104 1.37089C20.0855 1.84661 20.5008 3.24642 19.9955 4.37624C19.6929 5.05307 18.7323 6.06898 17.7427 6.75879C16.8608 7.3735 15.3262 8.17232 14.2735 8.56468L13.6061 8.81344L13.6589 8.35041C13.8436 6.72617 15.6248 3.19023 16.8147 2.08522C17.6532 1.30652 18.4549 1.05634 19.104 1.37089ZM9.75858 3.43636C10.7869 4.11526 11.6314 5.6894 12.1397 7.87469C12.2635 8.40708 12.3467 8.86137 12.3247 8.8843C12.1814 9.03354 8.25371 6.73266 7.57729 6.10328C6.80824 5.38764 6.68412 4.6156 7.21538 3.85202C7.54091 3.3842 8.03588 3.16908 8.78642 3.16908C9.25476 3.16908 9.42438 3.21569 9.75858 3.43636ZM24.8259 12.6139V15.1044H19.2289H13.632V12.6139V10.1235H19.2289H24.8259V12.6139ZM12.3681 12.6139V15.1044H6.77114H1.17416V12.6139V10.1235H6.77114H12.3681V12.6139ZM23.201 22.5287V28.7313H18.4165H13.632V22.5287V16.3261H18.4165H23.201V22.5287ZM12.3681 22.5287V28.7313H7.58361H2.79909V22.5287V16.3261H7.58361H12.3681V22.5287Z" fill="#FAFAFA"/>
</svg>
