<svg width="42" height="40" viewBox="0 0 42 40" fill="none" xmlns="http://www.w3.org/2000/svg">
<path d="M1.393 26H0.14L3.633 20.897L0.231 15.92H1.477L4.242 20.036L7.007 15.92H8.26L4.858 20.897L8.344 26H7.098L4.242 21.765L1.393 26ZM14.6152 18.44H15.4762V26H14.4752V20.113L10.3312 26H9.46323V18.44H10.4642V24.278L14.6152 18.44ZM20.5209 26H19.4919V19.392H16.8109V18.44H23.2019V19.392H20.5209V26Z" fill="#FF0009"/>
<path d="M21.7086 38.7556C32.2179 38.7556 40.7374 30.3584 40.7374 20C40.7374 9.64159 32.2179 1.24444 21.7086 1.24444C16.2639 1.24444 11.3533 3.49832 7.88479 7.11111L7 6.22222C10.6968 2.38941 15.9196 0 21.7086 0C32.9152 0 42 8.9543 42 20C42 31.0457 32.9152 40 21.7086 40C15.9196 40 10.6968 37.6106 7 33.7778L7.88479 32.8889C11.3533 36.5017 16.2639 38.7556 21.7086 38.7556Z" fill="#FF0009"/>
</svg>
