<svg width="40" height="40" viewBox="0 0 40 40" fill="none" xmlns="http://www.w3.org/2000/svg">
<path d="M40 20C40 31.0457 31.0457 40 20 40C8.9543 40 0 31.0457 0 20C0 8.9543 8.9543 0 20 0C31.0457 0 40 8.9543 40 20Z" fill="#030303"/>
<path fill-rule="evenodd" clip-rule="evenodd" d="M20 38.7556C30.3584 38.7556 38.7556 30.3584 38.7556 20C38.7556 9.64159 30.3584 1.24444 20 1.24444C9.64159 1.24444 1.24444 9.64159 1.24444 20C1.24444 30.3584 9.64159 38.7556 20 38.7556ZM20 40C31.0457 40 40 31.0457 40 20C40 8.9543 31.0457 0 20 0C8.9543 0 0 8.9543 0 20C0 31.0457 8.9543 40 20 40Z" fill="#FF0009"/>
<path fill-rule="evenodd" clip-rule="evenodd" d="M25.3701 7.08994C26.0645 7.36597 26.4914 7.83022 26.8957 8.74928C27.0986 9.21069 27.1363 9.38979 27.1307 9.86871C27.1122 11.4587 25.9156 13.0217 23.7429 14.294L23.0937 14.6742L26.9203 14.7149C30.0088 14.7478 30.7714 14.7772 30.8733 14.8673C30.9864 14.9675 30.9996 15.2831 30.9996 17.9013C30.9996 21.3356 31.0455 21.1493 30.1975 21.1493H29.701L29.6979 21.9841C29.6963 22.4433 29.6876 25.0442 29.6789 27.764C29.6639 32.3895 29.654 32.7185 29.5264 32.8545C29.3969 32.9926 28.9122 33 20 33C11.0876 33 10.6032 32.9926 10.4737 32.8545C10.3453 32.7177 10.3373 32.3693 10.3373 26.9293V21.1493H9.82165C8.95131 21.1493 9.00051 21.3439 9.00051 17.9013C9.00051 15.2831 9.01365 14.9675 9.12678 14.8673C9.22875 14.7771 10.0017 14.7478 13.1481 14.7149L17.0432 14.6742L15.9621 13.9941C14.7391 13.2249 14.2228 12.7007 13.9652 11.9666C13.5513 10.787 14.0614 9.49323 15.1679 8.91625C15.6439 8.668 15.739 8.64764 16.3857 8.65513C16.9781 8.66197 17.1503 8.69634 17.4933 8.87618C18.4581 9.38206 19.1072 10.2674 19.8588 12.1028L19.9732 12.3822L20.3937 11.4512C21.6855 8.59127 23.0876 7.09548 24.5607 7.00597C24.8903 6.98601 25.1856 7.01664 25.3701 7.08994ZM25.1649 8.18811C25.9954 8.6004 26.3468 9.81357 25.9193 10.7927C25.6632 11.3793 24.8504 12.2598 24.013 12.8576C23.2668 13.3904 21.9683 14.0827 21.0776 14.4227L20.5129 14.6383L20.5575 14.237C20.7139 12.8294 22.2209 9.76486 23.2278 8.80719C23.9373 8.13231 24.6157 7.9155 25.1649 8.18811ZM17.2573 9.97817C18.1274 10.5666 18.842 11.9308 19.2721 13.8247C19.3768 14.2861 19.4472 14.6799 19.4286 14.6997C19.3074 14.8291 15.9839 12.835 15.4115 12.2895C14.7608 11.6693 14.6558 11.0002 15.1053 10.3384C15.3808 9.93297 15.7996 9.74654 16.4347 9.74654C16.8309 9.74654 16.9745 9.78693 17.2573 9.97817ZM30.0065 17.9321V20.0905H25.2706H20.5347V17.9321V15.7737H25.2706H30.0065V17.9321ZM19.4653 17.9321V20.0905H14.7294H9.99352V17.9321V15.7737H14.7294H19.4653V17.9321ZM28.6316 26.5249V31.9004H24.5832H20.5347V26.5249V21.1493H24.5832H28.6316V26.5249ZM19.4653 26.5249V31.9004H15.4169H11.3685V26.5249V21.1493H15.4169H19.4653V26.5249Z" fill="#FF0009"/>
</svg>
