<svg width="75" height="40" viewBox="0 0 75 40" fill="none" xmlns="http://www.w3.org/2000/svg">
<path d="M2.009 26H0.98V15.92H2.009V20.463H7.581V15.92H8.603V26H7.581V21.45H2.009V26ZM13.721 26.21C12.9837 26.21 12.3443 26.042 11.803 25.706C11.2663 25.3653 10.8557 24.894 10.571 24.292C10.2863 23.69 10.144 22.997 10.144 22.213C10.144 21.4243 10.2887 20.729 10.578 20.127C10.8673 19.525 11.2803 19.0583 11.817 18.727C12.3583 18.3957 12.993 18.23 13.721 18.23C14.463 18.23 15.1023 18.398 15.639 18.734C16.1803 19.07 16.5933 19.539 16.878 20.141C17.1627 20.743 17.305 21.4337 17.305 22.213C17.305 23.0063 17.1603 23.704 16.871 24.306C16.5863 24.908 16.1733 25.377 15.632 25.713C15.0953 26.0443 14.4583 26.21 13.721 26.21ZM13.721 25.223C14.267 25.223 14.7267 25.0993 15.1 24.852C15.4733 24.6 15.751 24.25 15.933 23.802C16.1197 23.3493 16.213 22.8197 16.213 22.213C16.213 21.2797 16.0007 20.547 15.576 20.015C15.156 19.483 14.5377 19.217 13.721 19.217C12.8997 19.217 12.279 19.4877 11.859 20.029C11.4437 20.5657 11.236 21.2937 11.236 22.213C11.236 22.8243 11.3293 23.3563 11.516 23.809C11.7073 24.2617 11.9873 24.6117 12.356 24.859C12.7293 25.1017 13.1843 25.223 13.721 25.223ZM18.8421 26V18.44H21.9571C22.1391 18.44 22.3398 18.4517 22.5591 18.475C22.7831 18.4937 22.9861 18.5263 23.1681 18.573C23.5975 18.6897 23.9405 18.9207 24.1971 19.266C24.4538 19.6113 24.5821 20.0243 24.5821 20.505C24.5821 21.0277 24.4258 21.4523 24.1131 21.779C23.9685 21.9377 23.8098 22.0543 23.6371 22.129C23.7911 22.157 23.9521 22.2223 24.1201 22.325C24.6708 22.6563 24.9461 23.1953 24.9461 23.942C24.9461 24.4507 24.8248 24.8707 24.5821 25.202C24.3395 25.5333 24.0058 25.7597 23.5811 25.881C23.3011 25.9603 22.8951 26 22.3631 26H18.8421ZM21.9921 21.779C22.3235 21.779 22.5918 21.7417 22.7971 21.667C23.0305 21.5877 23.2055 21.4477 23.3221 21.247C23.4435 21.0463 23.5041 20.8177 23.5041 20.561C23.5041 20.2903 23.4388 20.057 23.3081 19.861C23.1821 19.6603 23.0001 19.5203 22.7621 19.441C22.5381 19.3617 22.2348 19.322 21.8521 19.322H19.8781V21.779H21.9921ZM22.3141 25.125C22.4261 25.125 22.5545 25.118 22.6991 25.104C22.8438 25.0853 22.9721 25.062 23.0841 25.034C23.3455 24.9687 23.5438 24.8333 23.6791 24.628C23.8145 24.4227 23.8821 24.1847 23.8821 23.914C23.8821 23.5873 23.7841 23.319 23.5881 23.109C23.3968 22.8943 23.1401 22.7613 22.8181 22.71C22.6781 22.6773 22.4611 22.661 22.1671 22.661H19.8781V25.125H22.3141ZM31.4863 18.44H32.3473V26H31.3463V20.113L27.2023 26H26.3343V18.44H27.3353V24.278L31.4863 18.44ZM35.334 26H34.305V18.44H35.334V21.723H39.597V18.44H40.626V26H39.597V22.71H35.334V26ZM43.6195 26H42.5765L42.5835 18.44H43.6195V22.08L46.9935 18.44H48.3655L44.8235 22.22L48.8275 26H47.3295L43.6195 22.36V26ZM55.2618 19.742C55.4112 20.106 55.4858 20.6263 55.4858 21.303V26H54.5688V24.747C54.2748 25.2277 53.8828 25.5917 53.3928 25.839C52.9028 26.0863 52.3358 26.21 51.6918 26.21C51.1412 26.21 50.6698 26.1097 50.2778 25.909C49.8905 25.7083 49.5988 25.4377 49.4028 25.097C49.2068 24.7563 49.1088 24.3807 49.1088 23.97C49.1088 23.382 49.2792 22.9083 49.6198 22.549C49.9605 22.1897 50.4318 21.9307 51.0338 21.772C51.4025 21.6833 51.8132 21.604 52.2658 21.534C52.7232 21.464 53.2505 21.3893 53.8478 21.31L54.4778 21.226C54.4685 20.5307 54.3052 20.0197 53.9878 19.693C53.6752 19.3663 53.1665 19.203 52.4618 19.203C51.9298 19.203 51.4865 19.322 51.1318 19.56C50.7818 19.798 50.5368 20.1643 50.3968 20.659L49.3958 20.365C49.5732 19.6837 49.9232 19.1587 50.4458 18.79C50.9732 18.4167 51.6498 18.23 52.4758 18.23C53.1665 18.23 53.7522 18.3607 54.2328 18.622C54.7182 18.8833 55.0612 19.2567 55.2618 19.742ZM51.8108 25.321C52.2775 25.321 52.6928 25.237 53.0568 25.069C53.4208 24.8963 53.7125 24.6607 53.9318 24.362C54.1558 24.0587 54.3005 23.7157 54.3658 23.333C54.4312 23.0437 54.4638 22.6423 54.4638 22.129C54.2818 22.1477 54.1512 22.164 54.0718 22.178C53.4372 22.2527 52.9215 22.3203 52.5248 22.381C52.1282 22.437 51.7688 22.5093 51.4468 22.598C50.5742 22.8547 50.1378 23.312 50.1378 23.97C50.1378 24.2033 50.1938 24.4227 50.3058 24.628C50.4225 24.8333 50.6068 25.0013 50.8588 25.132C51.1108 25.258 51.4282 25.321 51.8108 25.321Z" fill="#FF0009"/>
<path d="M54.7086 38.7556C65.2179 38.7556 73.7374 30.3584 73.7374 20C73.7374 9.64159 65.2179 1.24444 54.7086 1.24444C49.2639 1.24444 44.3533 3.49832 40.8848 7.11111L40 6.22222C43.6968 2.38941 48.9196 0 54.7086 0C65.9152 0 75 8.9543 75 20C75 31.0457 65.9152 40 54.7086 40C48.9196 40 43.6968 37.6106 40 33.7778L40.8848 32.8889C44.3533 36.5017 49.2639 38.7556 54.7086 38.7556Z" fill="#FF0009"/>
</svg>
