<svg width="30" height="30" viewBox="0 0 30 30" fill="none" xmlns="http://www.w3.org/2000/svg">
<path d="M23 21V19C23 17.9391 22.6049 16.9217 21.9016 16.1716C21.1984 15.4214 20.2446 15 19.25 15H11.75C10.7554 15 9.80161 15.4214 9.09835 16.1716C8.39509 16.9217 8 17.9391 8 19V21" stroke="#FAFAFA" stroke-width="1.4" stroke-linecap="round" stroke-linejoin="round"/>
<path d="M15.5 15C17.9853 15 20 12.9853 20 10.5C20 8.01472 17.9853 6 15.5 6C13.0147 6 11 8.01472 11 10.5C11 12.9853 13.0147 15 15.5 15Z" stroke="#FAFAFA" stroke-width="1.4" stroke-linecap="round" stroke-linejoin="round"/>
<path d="M15.5 27C22.4036 27 28 21.4036 28 14.5C28 7.59644 22.4036 2 15.5 2C8.59644 2 3 7.59644 3 14.5C3 21.4036 8.59644 27 15.5 27Z" stroke="#FAFAFA" stroke-width="1.4" stroke-linecap="round" stroke-linejoin="round"/>
</svg>
