<svg width="14" height="17" viewBox="0 0 14 17" fill="none" xmlns="http://www.w3.org/2000/svg">
<g clip-path="url(#clip0_306_379)">
<path fill-rule="evenodd" clip-rule="evenodd" d="M6.9987 0.1875C10.7128 0.1875 13.7279 3.20256 13.7279 6.91667C13.7279 8.85071 12.7628 10.8414 11.5512 12.513C9.85939 14.8476 7.74366 16.5497 7.74366 16.5497V16.5501C7.5325 16.7199 7.26967 16.8125 6.9987 16.8125C6.72773 16.8125 6.46489 16.7199 6.25374 16.5501V16.5497C6.25374 16.5497 4.13801 14.8476 2.44622 12.513C1.23457 10.8414 0.269531 8.85071 0.269531 6.91667C0.269531 3.20256 3.28459 0.1875 6.9987 0.1875ZM6.9987 4.14583C8.5278 4.14583 9.76953 5.38756 9.76953 6.91667C9.76953 8.44577 8.5278 9.6875 6.9987 9.6875C5.46959 9.6875 4.22786 8.44577 4.22786 6.91667C4.22786 5.38756 5.46959 4.14583 6.9987 4.14583Z" fill="#022113"/>
</g>
<defs>
<clipPath id="clip0_306_379">
<rect width="14" height="17" fill="white"/>
</clipPath>
</defs>
</svg>
