<svg width="20" height="15" viewBox="0 0 20 15" fill="none" xmlns="http://www.w3.org/2000/svg">
<path d="M19.4973 2.92554L12.6455 8.34784C11.8815 8.95091 10.8465 9.28958 9.76738 9.28958C8.68829 9.28958 7.65325 8.95091 6.88926 8.34784L0.0374416 2.92554C0.0260463 3.02731 0 3.11942 0 3.22055V10.9501C0.00129243 11.804 0.430483 12.6226 1.19343 13.2263C1.95637 13.8301 2.99078 14.1698 4.06974 14.1708H15.465C16.544 14.1698 17.5784 13.8301 18.3413 13.2263C19.1043 12.6226 19.5335 11.804 19.5348 10.9501V3.22055C19.5348 3.11942 19.5087 3.02731 19.4973 2.92554Z" fill="#022113"/>
<path d="M11.4945 7.43714L18.9291 1.553C18.5689 1.08041 18.061 0.689245 17.4542 0.417224C16.8474 0.145202 16.1623 0.0015077 15.4649 0H4.06963C3.37226 0.0015077 2.68714 0.145202 2.08036 0.417224C1.47359 0.689245 0.965623 1.08041 0.605469 1.553L8.04007 7.43714C8.49879 7.7987 9.11984 8.00171 9.76727 8.00171C10.4147 8.00171 11.0358 7.7987 11.4945 7.43714Z" fill="#022113"/>
</svg>
