<svg width="16" height="16" viewBox="0 0 16 16" fill="none" xmlns="http://www.w3.org/2000/svg">
<g clip-path="url(#clip0_306_354)">
<path d="M14.7654 14.3232L15.3721 13.6454C15.7582 13.2699 15.9751 12.7613 15.9751 12.2312C15.9751 11.701 15.7582 11.1925 15.3721 10.817C15.3514 10.797 13.7474 9.60089 13.7474 9.60089C13.3625 9.24568 12.8511 9.04791 12.3196 9.04864C11.7881 9.04934 11.2774 9.24852 10.8934 9.60476L9.62275 10.6425C8.58553 10.2264 7.64335 9.61585 6.85028 8.84582C6.05722 8.07579 5.42891 7.16149 5.00144 6.1554L6.0681 4.92766C6.43591 4.55558 6.64163 4.0604 6.6425 3.54508C6.64338 3.02975 6.43932 2.53395 6.07275 2.16069C6.07275 2.16069 4.83744 0.607904 4.81675 0.587874C4.43641 0.2168 3.92069 0.00567461 3.38103 0.000112726C2.84141 -0.00544913 2.32118 0.195 1.93276 0.55815L1.1661 1.20433C-3.36325 6.29759 6.3901 15.6783 11.8181 15.5096C12.3662 15.5127 12.9094 15.4093 13.4156 15.2055C13.9218 15.0017 14.3808 14.7017 14.7654 14.3232Z" fill="#022113"/>
</g>
<defs>
<clipPath id="clip0_306_354">
<rect width="16" height="15.5387" fill="white"/>
</clipPath>
</defs>
</svg>
